<svg
  viewBox="0 0 512 512"
  xmlns="http://www.w3.org/2000/svg"
>
  <path
    d="m80.64 340.9c-31.11 70.71-31.11 70.71-25.46 76.37l39.78 39.78c5.473 5.472 5.473 5.472 76.18-25.64l20.85 8.638c28 72 28 72 36 72h56.26c7.739-1e-5 7.739-1e-5 35.74-72l20.85-8.638c70.71 31.11 70.71 31.11 76.37 25.46l39.78-39.78c5.472-5.473 5.472-5.473-25.64-76.18l8.638-20.85c72-28 72-28 72-36v-56.26c-1e-5 -7.739-1e-5 -7.739-72-35.74l-8.638-20.85c31.11-70.71 31.11-70.71 25.46-76.37l-39.78-39.78c-5.473-5.472-5.473-5.472-76.18 25.64l-20.85-8.638c-28-72-28-72-36-72h-56.26c-7.739 1.1e-5 -7.739 1.1e-5 -35.74 72l-20.85 8.638c-70.71-31.11-70.71-31.11-76.37-25.46l-39.78 39.78c-5.473 5.473-5.473 5.473 25.64 76.18l-8.638 20.85c-72 28-72 28-72 36v56.26c0 7.739 0 7.739 72 35.74zm267.4-84.85a92 92 0 0 1-92 92 92 92 0 0 1-92-92 92 92 0 0 1 92-92 92 92 0 0 1 92 92z"
  />
</svg>
