<svg
  width="25"
  height="17"
  viewBox="0 0 25 17"
  fill="none"
  xmlns="http://www.w3.org/2000/svg"
>
  <path
    d="M22.9148 0H2.08521C0.935424 0 0 0.935424 0 2.08521V14.0053C0 15.1551 0.935424 16.0905 2.08521 16.0905H22.9148C24.0646 16.0905 25 15.1551 25 14.0053V2.08521C25 0.935424 24.0646 0 22.9148 0ZM2.08521 1.46488H22.9148C23.2568 1.46488 23.5351 1.74316 23.5351 2.08521V4.00381H1.46488V2.08521C1.46488 1.74316 1.74316 1.46488 2.08521 1.46488ZM22.9148 14.6257H2.08521C1.74316 14.6257 1.46488 14.3474 1.46488 14.0054V5.46874H23.5351V14.0054C23.5351 14.3474 23.2568 14.6257 22.9148 14.6257Z"
    fill="#2691F4"
  />
  <path
    d="M2.92969 13.1606H9.17985V8.63577H2.92969V13.1606V13.1606ZM4.39457 10.1007H7.71497V11.6958H4.39457V10.1007V10.1007Z"
    fill="#2691F4"
  />
  <path
    d="M15.9669 11.6958H14.502V13.1606H15.9669V11.6958Z"
    fill="#2691F4"
  />
  <path
    d="M18.8965 11.6958H17.4316V13.1606H18.8965V11.6958Z"
    fill="#2691F4"
  />
  <path
    d="M21.8263 11.6958H20.3613V13.1606H21.8263V11.6958Z"
    fill="#2691F4"
  />
</svg>
