<svg
  width="20"
  height="28"
  fill="none"
  xmlns="http://www.w3.org/2000/svg"
>
  <path
    d="M19.1441 15.9251L16.1054 9.6924V6.81707L18.8326 1.97043L15.1339 0.12102L12.5641 1.40387L9.99805 0.120911L7.43229 1.40376L4.86653 0.120911L1.16564 1.97135L3.90812 6.81815V9.69174L0.862231 15.9125C-0.42035 18.532 -0.264448 21.5733 1.2792 24.048C2.82291 26.5226 5.48578 28 8.40247 28H11.5977C14.5115 28 17.1729 26.5248 18.7172 24.0539C20.2614 21.583 20.421 18.5442 19.1441 15.9251ZM14.4706 9.06372H5.54283V7.42029H14.4706V9.06372ZM4.86653 1.94863L7.43229 3.23148L9.99805 1.94863L12.5635 3.23137L15.1333 1.94852L16.566 2.66487L14.81 5.78553H5.20215L3.43584 2.66395L4.86653 1.94863ZM17.3309 23.1875C16.0874 25.1773 13.9441 26.3652 11.5977 26.3652H8.40247C6.05375 26.3652 3.90932 25.1755 2.66625 23.1827C1.42312 21.19 1.29762 18.7408 2.33041 16.6314L5.23533 10.6984H14.7771L17.6747 16.6416C18.703 18.7507 18.5745 21.1978 17.3309 23.1875Z"
    fill="#2691F4"
  />
  <path
    d="M11.6417 18.3454C11.2794 18.0709 11.0662 17.9603 10.66 17.7572L10.1093 17.4716C10.014 17.4194 9.89559 17.338 9.74596 17.2351L9.73239 17.2258C9.47448 17.0241 9.4238 16.8491 9.4238 16.6158C9.4238 16.2688 9.68765 15.9866 10.012 15.9866C10.3664 15.9866 10.6147 16.0869 10.9117 16.6159L11.0537 16.8691L12.2308 16.1066L12.1196 15.8879C11.8031 15.2651 11.3519 14.8634 10.7762 14.6909V13.7511H9.41165V14.6835C8.55667 14.9532 7.97714 15.7474 7.97714 16.6875C7.97714 17.3076 8.1755 17.7727 8.60468 18.1542C8.98198 18.4791 9.27967 18.6612 9.87434 18.9315C10.7694 19.3578 11.0715 19.6473 11.0715 20.079C11.0715 20.3532 10.9998 20.5806 10.8581 20.7548C10.6758 20.9676 10.4328 21.0667 10.094 21.0667C9.45252 21.0667 9.0951 20.6885 8.8191 19.7176L8.72145 19.3741L7.47266 20.1299L7.51151 20.3184C7.72697 21.3635 8.44523 22.1383 9.41165 22.3893V23.3125H10.7762V22.3816C11.2099 22.272 11.5848 22.0459 11.8925 21.7084C12.3076 21.2589 12.518 20.7037 12.518 20.0584L12.5178 20.0468C12.4853 19.2874 12.2228 18.7781 11.6417 18.3454Z"
    fill="#2691F4"
  />
</svg>
