<svg
  xmlns="http://www.w3.org/2000/svg"
  height="618.031"
  width="1000.008"
>
  <path
    class="st1"
    fill="#ff5f00"
    d="M364.81 66.095h270.388v485.841H364.81z"
  />
  <path
    d="M381.977 309.016c0-98.714 46.353-186.268 117.598-242.92C447.214 24.892 381.119 0 309.015 0 138.2 0 0 138.2 0 309.016 0 479.832 138.199 618.03 309.015 618.03c72.104 0 138.199-24.893 190.56-66.095-71.245-55.794-117.598-144.207-117.598-242.92z"
    class="st2" fill="#eb001b"
  />
  <path
    d="M1000.008 309.016c0 170.816-138.198 309.015-309.015 309.015-72.104 0-138.199-24.893-190.56-66.095 72.104-56.653 117.598-144.207 117.598-242.92 0-98.714-46.353-186.268-117.598-242.92C552.794 24.892 618.89 0 690.993 0c170.817 0 309.015 139.057 309.015 309.016z"
    class="st3" fill="#f79e1b"
  />
</svg>
