<svg
  width="25"
  height="25"
  viewBox="0 0 25 25"
  fill="none"
  xmlns="http://www.w3.org/2000/svg"
>
  <g clip-path="url(#clip1)">
    <path
      d="M19.6726 12.816H8.84961V14.2804H19.6726V12.816Z"
      fill="#2691F4"
    />
    <path
      d="M19.6726 15.8336H8.84961V17.298H19.6726V15.8336Z"
      fill="#2691F4"
    />
    <path
      d="M22.9196 4.37654L18.3763 0H5.60271V3.52068H2.08203V25H19.399V21.4793H22.9196V4.37654ZM18.8132 2.45423L20.3718 3.95566H18.8132V2.45423ZM17.9345 23.5356H3.54646V4.9851H5.60271V21.4793H17.9345V23.5356ZM7.06713 20.0149V1.46443H17.3488V5.42009H21.4552V20.0149H7.06713V20.0149Z"
      fill="#2691F4"
    />
    <path
      d="M14.3149 8.44431C13.9867 8.44431 13.7269 8.29914 13.5256 7.59075L13.4381 7.28302L12.498 7.85195L12.5329 8.0208C12.6755 8.71269 13.1617 9.24838 13.7977 9.43524V10.0658H14.832V9.43095C15.1131 9.35084 15.3572 9.19849 15.5593 8.97683C15.8469 8.66534 15.9927 8.28118 15.9927 7.83497L15.9924 7.82452C15.9702 7.30465 15.782 6.94005 15.3839 6.64356C15.1379 6.45728 14.9941 6.38255 14.7208 6.24597L14.3545 6.05593C14.2938 6.02264 14.2123 5.96665 14.1182 5.90192L14.1109 5.8969C13.9589 5.77759 13.9308 5.68299 13.9308 5.54089C13.9308 5.34422 14.0786 5.18416 14.2602 5.18416C14.4775 5.18416 14.6214 5.2441 14.8053 5.5716L14.9326 5.79839L15.82 5.22355L15.7204 5.02761C15.5095 4.61254 15.2113 4.33914 14.832 4.21246V3.56958H13.7977V4.20831C13.226 4.40884 12.8419 4.95053 12.8419 5.58873C12.8419 6.01517 12.9848 6.34955 13.2818 6.61344C13.5384 6.83437 13.7402 6.95797 14.1417 7.14044C14.7115 7.41179 14.9038 7.59045 14.9038 7.84858C14.9038 8.01729 14.8603 8.15592 14.7777 8.25692C14.6674 8.38657 14.5246 8.44431 14.3149 8.44431Z"
      fill="#2691F4"
    />
  </g>
  <defs>
    <clipPath id="clip1">
      <rect
        width="25"
        height="25"
        fill="white"
      />
    </clipPath>
  </defs>
</svg>
