<svg
  width="24"
  height="24"
  viewBox="0 0 24 24"
  fill="none"
  xmlns="http://www.w3.org/2000/svg"
>
  <g clip-path="url(#clip0)">
    <path
      d="M16.47 12.3113V2.02498L14.4367 0L13.107 1.32432L11.7773 0L10.4476 1.32432L9.1178 0L7.78804 1.32432L6.45833 0L5.12857 1.32432L3.79891 0L1.76562 2.02498V20.4072C1.76562 22.3883 3.37736 24 5.35849 24H18.6482V24C20.6255 23.9983 22.2335 22.3906 22.2335 20.4147V12.3113H16.47ZM5.35849 22.5929C4.15325 22.5929 3.17268 21.6124 3.17268 20.4071V2.60952L3.79891 1.98582L5.12862 3.31014L6.45838 1.98582L7.78809 3.31014L9.11785 1.98582L10.4476 3.31014L11.7773 1.98582L13.1071 3.31014L14.4368 1.98582L15.0631 2.60952V20.4147C15.0631 21.2333 15.3389 21.9888 15.8024 22.5929H5.35849V22.5929ZM20.8265 20.4147C20.8265 21.6153 19.8488 22.5921 18.6466 22.5929C17.4463 22.5921 16.47 21.6153 16.47 20.4147V13.7183H20.8265V20.4147Z"
      fill="#1F8CF0"
    />
    <path
      d="M12.9519 8.24658H5.2832V9.65364H12.9519V8.24658Z"
      fill="#1F8CF0"
    />
    <path
      d="M12.9519 11.0609H5.2832V12.468H12.9519V11.0609Z"
      fill="#1F8CF0"
    />
    <path
      d="M12.9519 13.8751H5.2832V15.2822H12.9519V13.8751Z"
      fill="#1F8CF0"
    />
    <path
      d="M12.9519 16.6895H5.2832V18.0965H12.9519V16.6895Z"
      fill="#1F8CF0"
    />
  </g>
  <defs>
    <clipPath id="clip0">
      <rect
        width="24"
        height="24"
        fill="white"
      />
    </clipPath>
  </defs>
</svg>
