<svg
  width="25"
  height="23"
  xmlns="http://www.w3.org/2000/svg"
>
  <g
    fill="#2691F4"
    fill-rule="nonzero"
  >
    <path
      d="M23.33 9.442c-.887-.391-2.05-.607-3.275-.607s-2.388.216-3.274.607c-.072.032-.14.064-.205.097V2.77c0-.466-.217-1.343-1.671-1.985-.887-.391-2.05-.607-3.274-.607-1.225 0-2.388.216-3.275.607-1.453.642-1.67 1.519-1.67 1.985v8.912A5.39 5.39 0 000 16.908a5.39 5.39 0 005.384 5.384c1.873 0 3.525-.96 4.49-2.415a9.799 9.799 0 001.757.156c1.224 0 2.387-.216 3.274-.607.072-.031.14-.064.205-.096v.9c0 .465.217 1.343 1.67 1.984.887.391 2.05.607 3.275.607s2.387-.216 3.274-.607c1.454-.641 1.67-1.519 1.67-1.985v-8.802c0-.466-.216-1.343-1.67-1.985zm-5.958 1.341c.695-.306 1.672-.482 2.683-.482 1.01 0 1.988.176 2.683.482.58.256.796.53.796.644 0 .113-.216.387-.796.643-.695.307-1.672.482-2.683.482-1.01 0-1.988-.175-2.683-.482-.58-.256-.796-.53-.796-.643 0-.113.216-.388.796-.644zm-2.262 3.725c0 .112-.216.387-.797.643-.694.306-1.672.482-2.682.482a8.55 8.55 0 01-1.03-.061 5.358 5.358 0 00-.675-1.554 9.766 9.766 0 001.705.147c1.224 0 2.387-.216 3.274-.607.072-.032.14-.064.205-.097v1.046zM8.948 2.127c.694-.307 1.672-.483 2.683-.483 1.01 0 1.988.176 2.682.482.58.256.797.53.797.644 0 .113-.216.387-.797.643-.694.307-1.672.482-2.682.482-1.011 0-1.989-.175-2.683-.482-.58-.256-.797-.53-.797-.643 0-.113.217-.388.797-.644zm-.797 2.53c.066.033.134.066.205.097.887.392 2.05.607 3.275.607 1.224 0 2.387-.215 3.274-.607.072-.031.14-.064.205-.096v1.046c0 .113-.216.387-.797.643-.694.307-1.672.482-2.682.482s-1.989-.175-2.683-.482c-.58-.256-.797-.53-.797-.643V4.659zm0 2.935c.066.033.134.065.205.097.887.39 2.05.606 3.275.606 1.224 0 2.387-.215 3.274-.606.072-.032.14-.064.205-.097v1.046c0 .113-.216.388-.797.644-.694.306-1.672.482-2.682.482s-1.989-.176-2.683-.482c-.58-.256-.797-.53-.797-.644V7.593zm0 2.934c.066.033.134.065.205.097.887.391 2.05.606 3.275.606 1.224 0 2.387-.215 3.274-.606.072-.032.14-.064.205-.097v1.046c0 .113-.216.388-.797.644-.694.306-1.672.482-2.682.482-1.011 0-1.989-.176-2.683-.482-.58-.256-.797-.53-.797-.644v-1.046zm-2.767 10.3a3.923 3.923 0 01-3.918-3.92 3.923 3.923 0 013.918-3.918 3.923 3.923 0 013.92 3.919 3.923 3.923 0 01-3.92 3.919zm8.93-2.742c-.695.306-1.673.482-2.683.482-.376 0-.747-.024-1.101-.07.14-.456.223-.937.237-1.435.283.024.571.037.864.037 1.224 0 2.387-.216 3.274-.607.072-.032.14-.064.205-.097v1.047c0 .113-.216.387-.797.643zm8.424 2.788c-.695.306-1.672.482-2.683.482-1.01 0-1.988-.176-2.683-.482-.58-.256-.796-.53-.796-.644v-1.046c.065.033.133.065.205.097.886.39 2.05.606 3.274.606 1.225 0 2.388-.215 3.274-.606a5.07 5.07 0 00.205-.097v1.046c0 .113-.216.388-.796.644zm0-2.934c-.695.306-1.672.482-2.683.482-1.01 0-1.988-.176-2.683-.482-.58-.256-.796-.531-.796-.644V16.25c.065.033.133.065.205.097.886.39 2.05.606 3.274.606 1.225 0 2.388-.215 3.274-.607.072-.031.14-.063.205-.096v1.046c0 .113-.216.388-.796.644zm0-2.934c-.695.306-1.672.481-2.683.481-1.01 0-1.988-.175-2.683-.481-.58-.257-.796-.531-.796-.644v-1.046c.065.033.133.065.205.096.887.392 2.05.607 3.274.607 1.225 0 2.388-.215 3.274-.607.072-.031.14-.063.205-.096v1.046c0 .113-.216.387-.796.644z"
    />
    <path
      d="M6.398 16.717a3.158 3.158 0 00-.587-.352l-.32-.166c-.052-.029-.122-.077-.204-.133l-.004-.003c-.117-.092-.138-.16-.138-.272 0-.127.092-.264.24-.264.151 0 .271.023.435.314l.137.244.856-.555-.107-.21c-.184-.363-.444-.607-.772-.726v-.577H4.932v.574a1.31 1.31 0 00-.836 1.242c0 .388.13.692.401.933.229.197.408.307.764.468.537.256.639.4.639.576a.499.499 0 01-.099.326c-.058.068-.153.147-.368.147-.273 0-.476-.12-.644-.712l-.094-.33-.906.548.037.181c.126.611.55 1.087 1.106 1.264v.564h1.002v-.567c.24-.075.449-.21.624-.401.26-.282.392-.629.392-1.032v-.011c-.02-.471-.191-.801-.552-1.07z"
    />
  </g>
</svg>
