<svg
  width="105"
  height="33"
  fill="none"
  xmlns="http://www.w3.org/2000/svg"
>
  <g clip-path="url(#clip0)">
    <path
      d="M4.065 27.3c.033-.18.05-.361.082-.542.1-.706.379-1.363.774-1.955a5.493 5.493 0 012.008-1.823c.543-.296 1.135-.427 1.744-.542.856-.148 1.712-.296 2.551-.443 1.662-.296 3.325-.575 4.987-.871 1.037-.18 2.057-.378 3.094-.558.51-.1 1.02-.181 1.53-.263.708-.115 1.251-.625 1.366-1.282.132-.772-.46-1.363-1.234-1.215-.905.164-1.81.312-2.715.476-1.465.263-2.946.51-4.411.772l-2.42.444c-.69.115-1.365.246-2.057.345-.938.148-1.86.049-2.732-.345-.806-.378-1.464-.92-1.892-1.709-.181-.312-.313-.657-.445-1.002-.082-.213-.032-.262.182-.295.56-.099 1.135-.197 1.695-.296 1.004-.18 2.024-.361 3.028-.542 1.25-.23 2.501-.443 3.752-.673 1.366-.247 2.732-.477 4.098-.723 1.136-.197 2.288-.394 3.423-.608.708-.131 1.416-.23 2.14-.115 1.25.18 2.271.756 2.995 1.79.84 1.183.988 2.514.708 3.894-.28 1.363-.955 2.496-1.942 3.465-.659.657-1.415 1.167-2.304 1.479a8.81 8.81 0 01-1.333.345c-.74.148-1.465.263-2.206.394-.855.148-1.728.296-2.583.46l-3.309.591c-.773.132-1.53.28-2.304.41-1.35.247-2.699.477-4.048.707-.626.115-1.267.214-1.893.329-.033 0-.066.033-.099.033h-.23V27.3z"
      fill="url(#paint0_linear)"
    />
    <path
      d="M26.365 5.93c.017.05.066.115.066.164.016.493-.099.986-.28 1.446a5.392 5.392 0 01-1.662 2.3c-.494.41-1.037.739-1.662.903-.61.148-1.218.263-1.844.377-1.316.247-2.633.46-3.95.69l-3.06.542c-1.202.214-2.403.411-3.605.625-.823.147-1.662.295-2.485.443-.74.132-1.497.263-2.238.378l-1.12.197c-.279.05-.312 0-.23-.263a6.963 6.963 0 011.992-3.203c.888-.821 1.909-1.396 3.11-1.626 1.416-.263 2.831-.493 4.23-.756.823-.147 1.63-.295 2.436-.443.987-.18 1.958-.345 2.946-.51.822-.147 1.629-.295 2.435-.426 1.004-.181 1.992-.345 2.996-.526.592-.099 1.168-.214 1.76-.329a.126.126 0 00.083-.032c.033.049.05.049.082.049z"
      fill="url(#paint1_linear)"
    />
    <path
      d="M2.55 26.545c.116-.214.231-.41.363-.608.165-.246.346-.476.543-.706l-.329-.197a3.082 3.082 0 01-1.53-2.661l.032-11.86c0-1.084.593-2.103 1.547-2.645l10.32-5.88a3.075 3.075 0 013.077.016l6.254 3.647c.806-.148 1.613-.28 2.435-.427l-7.9-4.6a4.67 4.67 0 00-4.657-.016L2.386 6.505A4.636 4.636 0 00.05 10.513L0 22.373a4.66 4.66 0 002.32 4.04l.23.132zM27.929 6.8c-.214.51-.477.97-.79 1.397a3.064 3.064 0 011.201 2.447l-.05 11.86a3.057 3.057 0 01-1.546 2.644L16.44 31.03a3.075 3.075 0 01-3.077-.016l-5.2-3.024c-.806.148-1.613.28-2.42.427l6.83 3.975a4.598 4.598 0 002.354.625c.807 0 1.597-.198 2.32-.608l10.303-5.88a4.713 4.713 0 002.354-4.025l.049-11.86a4.738 4.738 0 00-2.024-3.843z"
      fill="#3E3E3D"
    />
    <path
      d="M47.003 9.248c0-.444-.18-.624-.625-.805L42.46 6.932c-1.333-.51-1.959-1.15-1.959-2.678V3.006c0-1.873.889-2.76 2.765-2.76h3.473c1.876 0 2.765.887 2.765 2.76v1.15a.423.423 0 01-.445.443h-1.777a.423.423 0 01-.444-.443v-.624c0-.543-.362-.887-.89-.887h-1.875c-.543 0-.89.36-.89.887v.542c0 .443.182.624.626.804l3.917 1.528c1.333.51 1.959 1.15 1.959 2.678v1.248c0 1.872-.889 2.76-2.765 2.76h-3.835c-1.876 0-2.765-.888-2.765-2.76v-1.15c0-.263.181-.443.445-.443h1.777c.263 0 .444.18.444.443v.624c0 .542.362.887.89.887h2.237c.544 0 .89-.361.89-.887v-.558z"
      fill="url(#paint2_linear)"
    />
    <path
      d="M58.507 12.894c-.362 0-.543-.18-.625-.443l-2.32-6.768h-.182v6.768a.423.423 0 01-.444.443h-1.778a.423.423 0 01-.444-.443V.887c0-.263.181-.444.444-.444h2.502c.362 0 .543.181.625.444l2.683 7.654h.18L61.832.887c.083-.263.264-.444.626-.444h2.502c.263 0 .444.181.444.444v11.58a.423.423 0 01-.445.444h-1.777a.423.423 0 01-.444-.444V5.683h-.181l-2.32 6.768c-.083.263-.264.443-.626.443h-1.103z"
      fill="url(#paint3_linear)"
    />
    <path
      d="M74.75 12.894c-.361 0-.542-.18-.625-.443l-2.32-6.768h-.181v6.768a.423.423 0 01-.445.443h-1.777a.423.423 0 01-.444-.443V.887c0-.263.18-.444.444-.444h2.502c.362 0 .543.181.625.444l2.666 7.654h.181L78.06.887c.082-.263.263-.444.625-.444h2.502c.263 0 .444.181.444.444v11.58a.423.423 0 01-.444.444h-1.778a.423.423 0 01-.444-.444V5.683h-.181l-2.32 6.768c-.083.263-.264.443-.626.443H74.75z"
      fill="url(#paint4_linear)"
    />
    <path
      d="M46.328 30.454c0 .164-.082.263-.263.263h-1.12c-.164 0-.262-.082-.262-.263V20.22h-3.786c-.164 0-.263-.082-.263-.262v-1.035c0-.164.082-.263.263-.263h9.217c.164 0 .263.082.263.263v1.035c0 .164-.082.262-.263.262h-3.786v10.234z"
      fill="url(#paint5_linear)"
    />
    <path
      d="M52.615 21.502c0-1.972 1.037-3.006 3.094-3.006h4.312c2.074 0 3.094 1.034 3.094 3.006v6.357c0 1.97-1.037 3.005-3.094 3.005H55.71c-2.073 0-3.094-1.034-3.094-3.006v-6.356zm8.871 0c0-.953-.51-1.462-1.465-1.462H55.71c-.954 0-1.464.509-1.464 1.462v6.357c0 .952.51 1.461 1.464 1.461h4.312c.955 0 1.465-.509 1.465-1.462v-6.356z"
      fill="url(#paint6_linear)"
    />
    <path
      d="M77.252 27.875c0 1.971-1.036 3.006-3.094 3.006h-3.785c-2.074 0-3.094-1.035-3.094-3.006v-8.936c0-.164.082-.263.263-.263h1.12c.164 0 .263.082.263.263v8.936c0 .953.51 1.462 1.465 1.462h3.785c.954 0 1.465-.51 1.465-1.462v-8.936c0-.164.082-.263.263-.263h1.119c.165 0 .263.082.263.263v8.936h-.033z"
      fill="url(#paint7_linear)"
    />
    <path
      d="M81.383 21.502c0-1.972 1.037-3.006 3.094-3.006h3.966c2.074 0 3.095 1.034 3.095 3.006v.69c0 .164-.083.262-.264.262h-1.119c-.165 0-.263-.082-.263-.262v-.69c0-.953-.51-1.462-1.465-1.462h-3.966c-.955 0-1.465.509-1.465 1.462v6.357c0 .952.51 1.461 1.465 1.461h3.966c.955 0 1.465-.509 1.465-1.462v-.69c0-.164.082-.262.263-.262h1.12c.164 0 .263.082.263.263v.69c0 1.97-1.037 3.005-3.094 3.005h-3.967c-2.073 0-3.094-1.034-3.094-3.006v-6.356z"
      fill="url(#paint8_linear)"
    />
    <path
      d="M103.354 18.923c0-.164.083-.263.264-.263h1.119c.164 0 .263.082.263.263v11.514c0 .165-.082.263-.263.263h-1.119c-.165 0-.264-.082-.264-.246v-5.092h-6.369v5.075c0 .165-.082.263-.263.263h-1.12c-.164 0-.263-.082-.263-.263V18.923c0-.164.083-.263.264-.263h1.119c.165 0 .263.082.263.263v4.895h6.369v-4.895z"
      fill="url(#paint9_linear)"
    />
  </g>
  <defs>
    <linearGradient
      id="paint0_linear"
      x1="4.07"
      y1="20.481"
      x2="26.443"
      y2="20.481"
      gradientUnits="userSpaceOnUse"
    >
      <stop stop-color="#1884C8"/>
      <stop
        offset=".995"
        stop-color="#146CA2"
      />
    </linearGradient>
    <linearGradient
      id="paint1_linear"
      x1="4.259"
      y1="9.98"
      x2="26.43"
      y2="9.98"
      gradientUnits="userSpaceOnUse"
    >
      <stop stop-color="#1884C8"/>
      <stop
        offset=".995"
        stop-color="#146CA2"
      />
    </linearGradient>
    <linearGradient
      id="paint2_linear"
      x1="40.315"
      y1="6.668"
      x2="49.683"
      y2="6.668"
      gradientUnits="userSpaceOnUse"
    >
      <stop stop-color="#1884C8"/>
      <stop
        offset=".995"
        stop-color="#146CA2"
      />
    </linearGradient>
    <linearGradient
      id="paint3_linear"
      x1="52.716"
      y1="6.668"
      x2="65.385"
      y2="6.668"
      gradientUnits="userSpaceOnUse"
    >
      <stop stop-color="#1884C8"/>
      <stop
        offset=".995"
        stop-color="#146CA2"
      />
    </linearGradient>
    <linearGradient
      id="paint4_linear"
      x1="68.954"
      y1="6.668"
      x2="81.623"
      y2="6.668"
      gradientUnits="userSpaceOnUse"
    >
      <stop stop-color="#1884C8"/>
      <stop
        offset=".995"
        stop-color="#146CA2"
      />
    </linearGradient>
    <linearGradient
      id="paint5_linear"
      x1="40.644"
      y1="24.69"
      x2="50.378"
      y2="24.69"
      gradientUnits="userSpaceOnUse"
    >
      <stop stop-color="#1884C8"/>
      <stop
        offset=".995"
        stop-color="#146CA2"
      />
    </linearGradient>
    <linearGradient
      id="paint6_linear"
      x1="52.618"
      y1="24.69"
      x2="63.127"
      y2="24.69"
      gradientUnits="userSpaceOnUse"
    >
      <stop stop-color="#1884C8"/>
      <stop
        offset=".995"
        stop-color="#146CA2"
      />
    </linearGradient>
    <linearGradient
      id="paint7_linear"
      x1="67.262"
      y1="24.776"
      x2="77.255"
      y2="24.776"
      gradientUnits="userSpaceOnUse"
    >
      <stop stop-color="#1884C8"/>
      <stop
        offset=".995"
        stop-color="#146CA2"
      />
    </linearGradient>
    <linearGradient
      id="paint8_linear"
      x1="81.39"
      y1="24.69"
      x2="91.555"
      y2="24.69"
      gradientUnits="userSpaceOnUse"
    >
      <stop stop-color="#1884C8"/>
      <stop
        offset=".995"
        stop-color="#146CA2"
      />
    </linearGradient>
    <linearGradient
      id="paint9_linear"
      x1="95.345"
      y1="24.69"
      x2="104.993"
      y2="24.69"
      gradientUnits="userSpaceOnUse"
    >
      <stop stop-color="#1884C8"/>
      <stop
        offset=".995"
        stop-color="#146CA2"
      />
    </linearGradient>
    <clipPath id="clip0">
      <path
        fill="#fff"
        d="M0 0h105v33H0z"
      />
    </clipPath>
  </defs>
</svg>
