<svg width="1151" height="372" xmlns="http://www.w3.org/2000/svg"><g fill="none" fill-rule="evenodd"><path d="M508.819 132.972c-11.581-3.356-19.834.187-25.659 7.815l20.701 20.872 4.958-28.687z" fill="#2691F4" fill-rule="nonzero"/><path d="m481.44 305.543 15.811-4.843s9.192-21.23 17.879-48.641l-24.998 3.209-8.692 50.275zm-8.69-58.07v60.73l6.096-1.866 8.9-51.468z" fill="#4C60A5" fill-rule="nonzero"/><path d="m497.93 195.963 5.426-31.375-21.611-21.794c-4.373 6.692-7.216 15.888-8.992 26.126v8.151l25.177 18.892zm-7.368 56.812 25.364-3.257c2.577-8.277 5.079-17.058 7.257-25.955l-28.236 3.863-4.385 25.349zm6.904-54.132-24.716-18.547v33.017l20.254 11.341zm30.223-45.084c-2.78-9.427-7.997-16.489-16.549-19.8l-4.924 28.479 21.473-8.679zm-27.409 43.007 29.021-6.109c1.432-12.844 1.391-24.804-.98-34.543l-22.589 9.131-5.452 31.521z" fill="#2691F4" fill-rule="nonzero"/><path fill="#4C60A5" fill-rule="nonzero" d="m450.408 280.313 19.922-17.554v-35.897l-27.212 23.428z"/><path d="m495.378 224.924 28.41-3.887c2.234-9.425 4.078-18.929 5.217-28.043l-29.17 6.14-4.457 25.79zm-2.812 2.059-19.816-11.094v28.885l15.424 7.609z" fill="#2691F4" fill-rule="nonzero"/><path d="m433.613 221.407-56.516-3.49a303.64 303.64 0 0 0 8.948 32.99l54.198-2.2-6.63-27.3zm-8.939-36.804-53.128-7.191c.697 12.235 2.41 25.096 5.038 38.049l56.429 3.485-8.339-34.343z" fill="#4C60A5" fill-rule="nonzero"/><path d="M403.177 96.084c-15.058 3.681-24.374 17.696-28.827 37.397l40.624 11.171-11.797-48.568zm23.133 85 38.024-39.6c-3.274-9.419-7.523-18.093-12.999-25.339l-33.359 30.63 8.334 34.309z" fill="#2691F4" fill-rule="nonzero"/><path d="m440.826 251.105-53.985 2.191c3.564 10.402 7.688 20.489 12.297 29.977l49.044-1.883-7.356-30.285zM400.3 285.649c7.114 14.231 15.351 27 24.505 37.235l31.138-9.536-7.18-29.56-48.463 1.861z" fill="#4C60A5" fill-rule="nonzero"/><path fill="#2691F4" fill-rule="nonzero" d="m442.477 247.649 27.854-23.979v-32.404l-34.402 29.425zm-7.19-29.596 35.041-29.972V164.44c-1.319-6.96-2.996-13.824-5.12-20.371l-38.22 39.805 8.299 34.179z"/><path fill="#4C60A5" fill-rule="nonzero" d="m451.055 282.968 7.206 29.671 12.07-3.695v-42.959z"/><path d="M449.837 114.235c-8.077-9.899-18.663-16.808-32.524-18.72-4.242-.586-8.15-.525-11.762.075l11.777 48.496 32.509-29.851zm-34.21 33.109-41.778-11.491c-2.33 11.532-3.087 24.85-2.429 39.098l52.642 7.123-8.435-34.73z" fill="#2691F4" fill-rule="nonzero"/><path fill="#637ABE" fill-rule="nonzero" d="m450.181 283.735-1.418.055 7.18 29.561 2.318-.712-7.206-29.671zM416.309 145.02l1.016-.934-11.777-48.496c-.805.133-1.594.302-2.371.491l11.796 48.569 1.336.37zm34.1 135.293-7.291-30.023-.881.76-1.411.055 7.354 30.287 1.05-.041zm-7.933-32.664-6.547-26.958-.937.801-1.379-.085 6.63 27.3 1.053-.044zm-16.166-66.565-8.331-34.312-1.021.937-1.331-.365 8.435 34.732 1.145.155zm8.977 36.969-8.299-34.181-.886.925-1.428-.194 8.341 34.34 1.147.073zm62.179-19.411-4.462 25.812 1.137.639 1.237-.169 4.459-25.79-1.338.283zm-4.9 28.341-4.392 25.4 1.125.555 1.263-.163 4.382-25.351-1.277.176zm12.379-64.23 1.271-.513 4.924-28.479a27.704 27.704 0 0 0-2.231-.764c-.029-.01-.058-.015-.087-.022l-4.961 28.687 1.084 1.091zm-16.062 92.677-1.137-.561-8.9 51.468 2.594-.794 8.692-50.272zm14.47-90.842-5.422 31.375 1.142.857 1.207-.254 5.45-31.518-1.37.554z"/><path d="m414.973 144.652-40.623-11.171c-.176.779-.339 1.573-.501 2.372l41.778 11.491-.654-2.692zm3.006 2.121 33.359-30.631a60.233 60.233 0 0 0-1.5-1.907l-32.513 29.851.654 2.687z" fill="#637ABE" fill-rule="nonzero"/><path fill="#637ABE" fill-rule="nonzero" d="m417.979 146.773-.654-2.687-1.016.934-1.336-.368.654 2.692 1.331.365zm6.083 35.303-52.642-7.122c.039.815.08 1.636.128 2.458l53.129 7.191-.615-2.527zm2.926 1.796 38.22-39.805c-.283-.869-.576-1.728-.874-2.585l-38.024 39.599.678 2.791z"/><path fill="#637ABE" fill-rule="nonzero" d="m426.987 183.872-.677-2.788-1.103 1.147-1.145-.155.612 2.527 1.428.194zm8.942 36.819 34.402-29.425v-3.185l-35.043 29.972zm-2.914-1.748-56.429-3.485c.167.818.337 1.639.511 2.457l56.516 3.49-.598-2.462z"/><path fill="#637ABE" fill-rule="nonzero" d="m435.929 220.691-.642-2.638-1.125.963-1.147-.073.598 2.464 1.379.085zm35.074 25.923 1.07-2.171.675.331v-28.887l-1.8-1.01 1.181-2.113.619.347v-33.019l-1.936-1.453 1.452-1.936.484.363v-8.151a141.137 141.137 0 0 0-.808 5.228c-.462-3.241-1-6.484-1.612-9.708v23.641l.424-.361 1.572 1.84-1.996 1.708v32.405l.421-.363 1.578 1.834-1.999 1.721v35.896l.409-.36 1.6 1.815-2.009 1.772v42.958l2.42-.74V247.47l-1.745-.856z"/><path fill="#637ABE" fill-rule="nonzero" d="m472.327 189.557-1.575-1.837-.421.361v3.185zm33.889-27.317-.487 2.807 22.589-9.131a52.192 52.192 0 0 0-.631-2.355l-21.471 8.679zm-2.355-.581-20.701-20.872c-.489.642-.963 1.31-1.418 2.007l21.611 21.794.508-2.929z"/><path fill="#637ABE" fill-rule="nonzero" d="m503.861 161.659-.508 2.929 1.007 1.014 1.369-.554.487-2.808-1.271.513zm-4.024 37.475 29.17-6.14c.107-.85.199-1.692.293-2.534l-29.02 6.108-.443 2.566zm-1.906-3.171-25.181-18.892v3.025l24.716 18.547z"/><path fill="#637ABE" fill-rule="nonzero" d="m497.93 195.963-.464 2.68 1.033.774 1.338-.283.443-2.568-1.207.254zm-25.666-19.255-1.45 1.936 1.936 1.452v-3.025zm20.74 47.746-20.254-11.341v2.776l19.816 11.094zm1.941 2.97 28.236-3.863c.206-.842.406-1.684.605-2.527l-28.411 3.887-.43 2.503z"/><path fill="#637ABE" fill-rule="nonzero" d="m493.004 224.454-.438 2.529 1.101.617 1.278-.176.433-2.5-1.237.169zm-20.873-11.687-1.183 2.113 1.802 1.009v-2.776zm18.001 42.504 24.998-3.21c.266-.839.533-1.691.796-2.543l-25.364 3.257-.43 2.496zm-17.382-10.497v2.699l14.996 7.396.428-2.486z"/><path fill="#637ABE" fill-rule="nonzero" d="m488.174 252.383-.428 2.486 1.137.561 1.249-.159.43-2.496-1.263.163zm-16.099-7.94-1.072 2.171 1.747.859v-2.699zm-31.832 4.264-54.198 2.2c.266.796.525 1.597.796 2.389l53.985-2.191-.583-2.398zm2.875 1.583 27.213-23.428v-3.192l-27.854 23.979z"/><path fill="#637ABE" fill-rule="nonzero" d="m443.118 250.29-.641-2.641-1.181 1.014-1.053.044.583 2.398 1.411-.055zm29.211-25.149-1.58-1.834-.418.363v3.192zm-21.274 57.827 19.275-16.983v-3.226l-19.922 17.554zm-2.875-1.576-49.044 1.883c.387.794.769 1.592 1.161 2.376l48.464-1.858-.581-2.401z"/><path fill="#637ABE" fill-rule="nonzero" d="m449.23 281.351-1.05.041.583 2.399 1.418-.056.874-.767-.646-2.655zm23.109-17.138-1.599-1.815-.409.361v3.226z"/><path d="M635.11 369.582s-17.03-115.149-120.205-132.853C411.731 219.025 424.212 73.234 283.241 79.038c-140.974 5.804-111.922 141.437-168.019 171.9C59.127 281.402 33.08 369.582 33.08 369.582h602.03z" fill="#82A7F7" fill-rule="nonzero"/><path d="M617.491 369.582s0-93.367 110.637-126.25C838.77 210.448 812.424 39.194 950.72 65.54c138.3 26.347 71.13 201.556 125.13 239.759 54 38.203 42.14 64.283 42.14 64.283H617.491z" fill="#82A7F7" fill-rule="nonzero"/><path d="m75.528 370.093 4.179.072L3.89 98.363c-23.653 9.502 71.638 271.73 71.638 271.73zm27.469.479 72.269-206.66c-18.727-.912-42.946 79.892-54.23 121.795-3.791 15.127-6.303 24.517-6.303 24.517s2.364-9.887 6.303-24.517c15.18-60.539 50.995-213.366 29.575-227.86L94.199 370.419l8.798.153zm-17.744-.31L78.811 1.056c-26.102 17.668-3.283 320.57-3.283 320.57S31.137 104.005 6.351 98.182l75.877 272.027 3.025.053z" fill="#A0ABE9" fill-rule="nonzero"/><path d="M121.036 285.705c-3.939 14.63-6.303 24.517-6.303 24.517s2.509-9.388 6.303-24.517zm-29.289 84.671 56.57-313.454c-29.589-5.15-56.647 264.704-56.647 264.704S111.273.226 81.292.226c-.027 0-.051.012-.075.012l6.456 370.065 4.074.073zm21.834.382s89.943-192.336 64.574-206.044c-.174-.095-.351-.148-.525-.228l-72.085 206.13 8.036.142z" fill="#A0ABE9" fill-rule="nonzero"/><path d="M82.23 370.209 6.351 98.182a4.086 4.086 0 0 0-2.318.104c-.051.017-.092.058-.143.08l75.814 271.799 2.526.044zm5.442.094L81.217.238c-.845.017-1.646.303-2.406.818l6.442 369.206 2.419.041zm6.529.117 56.412-312.573a6.53 6.53 0 0 0-1.285-.683c-.336-.13-.672-.181-1.009-.242L91.75 370.376l2.451.044zm11.344.198 72.085-206.129a6.601 6.601 0 0 0-2.364-.577l-72.269 206.66 2.548.046z" fill="#697DD1" fill-rule="nonzero"/><path d="m1059.22 370.376 56.57-313.454c-29.59-5.143-56.65 264.704-56.65 264.704s19.61-321.4-10.37-321.4c-.03 0-.06.012-.08.012l6.46 370.065 4.07.073zm11.25.196 72.27-206.66c-18.72-.914-42.95 79.892-54.23 121.795-3.79 15.127-6.3 24.517-6.3 24.517s2.36-9.887 6.3-24.517c15.18-60.539 50.99-213.371 29.57-227.86l-56.41 312.572 8.8.153z" fill="#A0ABE9" fill-rule="nonzero"/><path d="M1088.51 285.705c-3.94 14.63-6.3 24.517-6.3 24.517s2.51-9.388 6.3-24.517zm-7.46 85.053s89.95-192.336 64.58-206.044c-.18-.095-.35-.15-.53-.228l-72.08 206.132 8.03.14zm-38.05-.665 4.18.072-75.81-271.802c-23.66 9.502 71.63 271.73 71.63 271.73zm9.73.169-6.45-369.206c-26.1 17.668-3.28 320.57-3.28 320.57s-44.39-217.623-69.18-223.444l75.88 272.027 3.03.053z" fill="#A0ABE9" fill-rule="nonzero"/><path d="M1049.7 370.209 973.82 98.182a4.06 4.06 0 0 0-2.31.104c-.05.017-.09.058-.14.08l75.81 271.799 2.52.044zm5.45.094L1048.69.238c-.84.017-1.64.303-2.4.818l6.44 369.206 2.42.041zm6.52.117 56.41-312.573a6.25 6.25 0 0 0-1.28-.683c-.33-.13-.67-.184-1.01-.242l-56.56 313.454 2.44.044zm11.35.198 72.08-206.132a6.495 6.495 0 0 0-2.36-.574l-72.27 206.66 2.55.046z" fill="#697DD1" fill-rule="nonzero"/><path d="m164.82 121.767 58.459 246.317 4.665-.041 14.338-72.277c.728-29.188-4.095-113.707-77.462-173.999zm-.983 246.835 25.87-.225-107.234-120.96c26.859 95.536 81.364 121.185 81.364 121.185zM83.07 244.443 192.916 368.35l6.826-.058-33.959-69.557c-12.73-19.572-39.754-51.175-82.713-54.292zm83.243 49.866 36.11 73.959 18.376-.16-58.029-244.502c-26.825 67.217-8.481 137.393 3.543 170.703zm104.539 73.364s82.529-31.918 83.985-157.73L245.72 367.89l25.132-.217zm-26.504-69.894-13.933 70.247 12.351-.107 111.186-160.944c-78.568 32.876-102.64 73.546-109.604 90.804z" fill="#617FC8" fill-rule="nonzero"/><path d="M81.584 244.312c.286 1.06.596 2.062.889 3.105l107.234 120.96 3.209-.029L83.07 244.44c-.498-.034-.982-.099-1.486-.128zm82.253-123.363c-.37.883-.713 1.769-1.067 2.655l58.029 244.502 2.48-.022-58.459-246.317c-.332-.271-.649-.547-.983-.818zm190.115 86.024L242.766 367.917l2.957-.024L354.84 209.945c.012-1.121.034-2.232.034-3.369-.317.131-.608.266-.922.397z" fill="#7AA2F7" fill-rule="nonzero"/><path d="M173.642 312.422c.518 1.12.809 1.708.809 1.708s-.272-.612-.809-1.708z" fill="#637ABE" fill-rule="nonzero"/><path d="M173.642 312.422c.538 1.096.809 1.708.809 1.708s-.293-.588-.809-1.708c-1.214-2.481-3.816-7.474-7.859-13.689l33.959 69.557 2.681-.024-36.11-73.96c3.24 8.974 6.018 15.274 7.329 18.116zm68.025-6.252s.45-3.783.614-10.402l-14.337 72.277 2.471-.022 13.933-70.246c-2.129 5.278-2.681 8.393-2.681 8.393z" fill="#637ABE" fill-rule="nonzero"/><path d="m951.23 315.198 12.87 56.688h6.37l37.42-254.354c-65.59 66.083-62.4 156.464-56.66 197.666zm-88.4-116.396 95.78 173.084h3l-14.19-62.533c-11.24-32.458-36.07-84.826-84.59-110.551zm78.69 173.084h14.33l-95.03-171.709c.97 132.957 80.7 171.709 80.7 171.709zm74.95 0s65.23-30.434 95.17-131.766l-105.85 131.766h10.68zm1.49-53.049-19.8 53.049h4.52l108.43-134.975c-51.55 16.106-79.9 56.521-93.15 81.926zm-8.05-198.467-36.99 251.516h22.65l19.84-53.133c10.93-39.162 27.55-123.886-5.5-198.383z" fill="#2691F4" fill-rule="nonzero"/><path d="M860.8 197.732c0 .823.02 1.627.02 2.442l95.03 171.71h2.76L862.83 198.8c-.68-.356-1.35-.719-2.03-1.068zm147.6-80.733c-.18.174-.34.353-.51.53l-37.42 254.357h2.45l36.99-251.516c-.5-1.125-.99-2.25-1.51-3.371zm102.71 119.912-108.43 134.975h3.1l105.85-131.766c.37-1.256.76-2.471 1.12-3.749-.56.167-1.09.366-1.64.54zm-157.12 94.4c.94 3.805 1.36 5.976 1.36 5.976s-.56-2.116-1.36-5.976c-1.22-4.927-3.33-12.616-6.57-21.958l14.19 62.533h2.49l-12.87-56.689c.95 6.84 1.97 12.319 2.76 16.114z" fill="#637ABE" fill-rule="nonzero"/><path d="M953.99 331.311c.8 3.86 1.36 5.976 1.36 5.976s-.42-2.171-1.36-5.976zm55.94 5.17c-.96 2.776-1.53 4.264-1.53 4.264s.5-1.57 1.53-4.264c1.29-3.73 3.27-9.8 5.48-17.728l-19.84 53.133h2.58l19.81-53.048c-3.94 7.575-6.55 13.79-8.03 17.643z" fill="#637ABE" fill-rule="nonzero"/><path d="M1009.93 336.481c-1.03 2.696-1.53 4.264-1.53 4.264s.57-1.488 1.53-4.264z" fill="#637ABE" fill-rule="nonzero"/><path d="M653.687 151.04s-.036-.431-.174-1.188M626.474 40.875c.005-.397.005-.804.005-1.22" stroke="#2E3154" stroke-width=".5"/></g></svg>