<svg width="239" height="420" xmlns="http://www.w3.org/2000/svg"><g fill="none" fill-rule="evenodd"><path fill="#FFBE9D" fill-rule="nonzero" d="m125.322 188.257-14.107 221.06h14.265l37.107-185.132 21.809 185.132h13.37l.757-221.06z"/><path fill="#CFE8FF" fill-rule="nonzero" d="m42.866 122.754-.191 1.583-9.408 77.819h181.698l-17.461-76.834-28.822-94.289-66.843 12.045-1.382.25-1.375-.289-88.379-18.604 31.67 96.802z"/><path d="m223.972 209.344-19.516-85.871-30.767-100.65-73.126 13.181L0 14.837l35.539 108.636-10.383 85.871h198.816zM99.082 43.039l1.375.289 1.382-.25 66.843-12.048 28.825 94.292 17.461 76.832H33.269l9.409-77.82.191-1.582-.496-1.515-31.668-96.802 88.377 18.604z" fill="#FFF" fill-rule="nonzero"/><path d="M162.461 86.327c-6.255 0-11.324-5.07-11.324-11.326V56.123h22.646v18.878c.003 6.256-5.067 11.326-11.322 11.326z" fill="#FFBE9D" fill-rule="nonzero"/><path fill="#E0EEFB" fill-rule="nonzero" opacity=".7" d="m201.502 113.809-86.824 5.174-79.139 4.49-10.381 85.871h198.814z"/><path d="M94.821 56.677c-2.112 0-4.421 1.951-6.596 4.633h13.193c-2.176-2.682-4.484-4.633-6.597-4.633z" fill="#FFF" fill-rule="nonzero"/><path d="M110.39 76.751s-4.164-9.512-8.972-15.439H88.225c-4.808 5.927-8.973 15.439-8.973 15.439h31.138z" fill="#A0ABE9" fill-rule="nonzero"/><path d="M78.422 63.306c-1.415 0-2.959 1.307-4.418 3.103h8.835c-1.457-1.796-3.001-3.103-4.417-3.103z" fill="#FFF" fill-rule="nonzero"/><path d="M88.849 76.751s-2.79-6.37-6.008-10.34h-8.835c-3.22 3.97-6.008 10.34-6.008 10.34h20.851z" fill="#A0ABE9" fill-rule="nonzero"/><path d="M111.22 63.306c-1.416 0-2.959 1.307-4.418 3.103h8.834c-1.454-1.796-3-3.103-4.416-3.103z" fill="#FFF" fill-rule="nonzero"/><path d="M121.647 76.751s-2.79-6.37-6.008-10.34h-8.835c-3.221 3.97-6.008 10.34-6.008 10.34h20.851z" fill="#A0ABE9" fill-rule="nonzero"/><path d="M114.242 87.455c-6.068 3.122-10.804 8.043-14.378 14.819C62.36 78.953 31.467 83.595 30.167 83.822l1.368 4.294c.309-.053 30.341-5.341 66.761 17.416a60.843 60.843 0 0 0-2.642 7.26c-9.089 31.112-55.265 35.178-55.735 35.214l-.542 3.621c1.636-.131 33.417-2.897 50.619-21.77 6.159 4.72 31.305 27.453 15.685 72.299h3.86c16.021-45.998-10.214-69.724-17.229-75.067 2.942-3.817 5.311-8.212 6.795-13.29 3.356-11.493 8.846-19.064 16.781-23.147 11.237-5.777 27.508-4.62 51.205 3.674l1.185-3.393c-24.686-8.633-41.857-9.739-54.036-3.478z" fill="#FB6F6E" fill-rule="nonzero"/><path d="M36.8 172.942s14.785-14.802 30.61-4.555c15.823 10.247 19.743 3.1 26.789 10.148 9.44 9.441.625 23.619.625 23.619H33.27l3.53-29.212z" fill="#82A7F7" fill-rule="nonzero"/><path fill="#CFE8FF" fill-rule="nonzero" opacity=".5" d="m100.563 36.004 15.076 88.635 9.684 84.705H25.158l10.381-85.871L0 14.837z"/><path d="m170.27 100.195 22.627 46.463a11.49 11.49 0 0 0 7.811 6.179c7.591 1.707 14.833-4.489 13.965-12.222-2.648-23.565-23.221-55.403-23.221-55.403l-21.182 14.983z" fill="#F3A9B8" fill-rule="nonzero"/><path d="M123.687 186.04s-.036-.431-.174-1.188" stroke="#2E3154" stroke-width=".5"/><path d="M122.958 182.502c-1.969-6.922-9.091-21.775-34.111-23.931-21.234-1.832-31.663-17.68-14.845-42.429 16.181-23.812 22.029-19.175 22.45-39.026" stroke="#2E3154" stroke-width=".5" stroke-dasharray="1"/><path d="M96.474 75.875c.005-.397.005-.804.005-1.22" stroke="#2E3154" stroke-width=".5"/><path d="M96.196 83.338a5.222 5.222 0 1 0 0-10.444 5.222 5.222 0 0 0 0 10.444z" fill="#FB6F6E" fill-rule="nonzero"/><path d="M153.539 12.041s-16.815 3.195-16.815 30.355c0 27.159 14.836 26.361 25.386 19.57 10.55-6.789 15.496-23.566 8.242-39.143-7.252-15.576-16.813-10.782-16.813-10.782z" fill="#FFBE9D" fill-rule="nonzero"/><path d="M160.864 71.225s-25.516-1.67-30.063 26.869c-3.71 23.28 4.172 32.601 3.504 52.277-.32 9.39-8.98 26.62-8.98 37.884h73.2s-2.054-11.748-8.009-37.886c-1.549-6.801 1.996-14.921 4.716-23.958 12.948-43.012-14.17-55.186-34.368-55.186z" fill="#A0ABE9" fill-rule="nonzero"/><path d="M152.736 38.666s-17.413 1.612-19.315-18.936C131.519-.815 158.323-7.098 174.877 9.457c4.576-15.601 28.048-11.419 23.731 9.889 9.756 14.08-.651 17.885-6.098 17.885 0 22.067-14.197 30.059-26.371 26.252-12.176-3.802-13.403-24.817-13.403-24.817z" fill="#263238" fill-rule="nonzero"/><path d="m131.798 91.773-25.362 42.77-55.558-8.101-1.503 8.21s32.094 20.342 62.888 17.004c17.512-1.897 33.55-33.057 40.633-48.941a11.905 11.905 0 0 0-4.068-14.645c-5.674-3.945-13.505-2.244-17.03 3.703z" fill="#FFBE9D" fill-rule="nonzero"/><path d="M152.736 38.666s5.996-.636 5.996 5.649-7.724 6.922-7.724 6.922l1.728-12.571z" fill="#EB996E" fill-rule="nonzero"/><path d="M126.777 178.537s-13.766 27.613-13.766 72.745c19.167 9.187 45.721 6.791 45.721 6.791l3.729-23.965 2.062 24.246s23.96 5.709 44.725-6.274c1.313-45.93-12.615-73.543-12.615-73.543s-26.141 9.132-69.856 0zm-18.112 233.304v-30.754h27.372l-5.456 38.298H89.984c-.002 0 4.087-7.544 18.681-7.544zm96.624 0v-30.754h-27.373l5.375 38.298h40.678c.003 0-4.087-7.544-18.68-7.544z" fill="#2E3154" fill-rule="nonzero"/><path d="M166.035 80.899s-21.843 38.341-21.843 80.704c0 42.364 88.097 41.747 88.097 0 0-41.746-16.745-80.704-16.745-80.704h-49.509z" fill="#2691F4" fill-rule="nonzero"/><path d="M158.379 97.707h57.636c8.242 0 14.986-6.745 14.986-14.988 0-8.243-6.744-14.989-14.986-14.989h-56.922c-7.035 0-12.791 5.758-12.791 12.794v5.104c.002 6.643 5.437 12.079 12.077 12.079zm-11.922 39.314s-19.375 40.73 9.021 40.73 15.653-40.73 15.653-40.73h-24.674zm41.988 0s-17.473 40.73 13.674 40.73 36.846-1.416 36.846-19.96c0-18.543-7.976-20.77-7.976-20.77h-42.544z" fill="#1C6FBB" fill-rule="nonzero"/><path d="M156.584 97.407c6.131 0 11.101-6.576 11.101-14.688 0-8.112-4.97-14.688-11.101-14.688-6.132 0-11.102 6.576-11.102 14.688 0 8.112 4.97 14.688 11.102 14.688zm17.398-29.677s13.589 16.247 0 29.975h6.915s14.35-15.11-.363-29.975m26.354 0s13.59 16.247 0 29.975h6.916s14.349-15.11-.366-29.975" fill="#2691F4" fill-rule="nonzero"/><path d="M53.344 127.592s-8.026-10.148-9.924-9.478c-1.894.668 1.895 5.688 1.895 5.688s-11.148-1.672-12.711-1.672c-1.561 0-.445 3.01 2.231 3.678-2.398 2.399.557 8.14 8.697 8.81 8.137.67 10.48-.668 10.48-.668l-.668-6.358z" fill="#FFBE9D" fill-rule="nonzero"/></g></svg>