<svg width="165" height="52" fill="none" xmlns="http://www.w3.org/2000/svg"><g clip-path="url(#a)"><path d="M6.388 43.019c.052-.285.078-.57.13-.855.154-1.113.594-2.148 1.215-3.08a8.64 8.64 0 0 1 3.155-2.873c.853-.466 1.784-.673 2.741-.854 1.345-.233 2.69-.466 4.009-.699 2.612-.466 5.224-.906 7.836-1.372 1.63-.284 3.233-.595 4.862-.88a77.995 77.995 0 0 1 2.405-.414c1.112-.181 1.966-.983 2.147-2.019.207-1.216-.724-2.148-1.94-1.915-1.422.259-2.845.492-4.267.75-2.302.415-4.63.803-6.931 1.217l-3.802.699c-1.086.181-2.146.388-3.232.543-1.475.233-2.923.078-4.294-.543-1.267-.596-2.301-1.45-2.974-2.692-.284-.492-.491-1.035-.698-1.579-.13-.337-.052-.414.284-.466.88-.155 1.785-.31 2.664-.466 1.578-.285 3.181-.57 4.759-.854 1.965-.362 3.93-.699 5.896-1.061 2.147-.388 4.294-.75 6.44-1.139 1.785-.31 3.595-.621 5.38-.958 1.111-.207 2.224-.362 3.361-.18 1.966.284 3.57 1.19 4.707 2.82 1.32 1.864 1.552 3.96 1.112 6.135-.44 2.148-1.5 3.934-3.051 5.461-1.035 1.036-2.224 1.838-3.621 2.33a13.72 13.72 0 0 1-2.095.543c-1.164.233-2.301.414-3.465.621-1.345.233-2.716.466-4.06.725l-5.199.932c-1.215.207-2.405.44-3.62.647-2.121.388-4.242.75-6.363 1.113-.982.181-1.991.337-2.974.518-.052 0-.103.051-.155.051h-.362v-.206zM41.43 9.344c.027.078.104.181.104.259.026.776-.155 1.553-.44 2.277-.542 1.45-1.422 2.64-2.611 3.624-.776.647-1.63 1.165-2.612 1.424-.957.233-1.914.414-2.897.595-2.069.388-4.138.725-6.207 1.087l-4.81.854c-1.888.337-3.776.648-5.664.984-1.293.233-2.612.466-3.905.699a166 166 0 0 1-3.517.595c-.595.104-1.164.207-1.759.31-.44.078-.491 0-.362-.413.569-1.967 1.63-3.65 3.13-5.048 1.396-1.294 3-2.2 4.887-2.562 2.224-.414 4.448-.777 6.647-1.19 1.293-.234 2.56-.467 3.827-.7a298.79 298.79 0 0 1 4.63-.802c1.293-.233 2.56-.466 3.827-.673 1.578-.285 3.13-.543 4.707-.828.931-.156 1.836-.337 2.767-.518a.197.197 0 0 0 .13-.052c.051.078.077.078.129.078z" fill="#2691F4"/><path d="M4.009 41.828c.18-.336.362-.647.569-.957.258-.389.543-.751.853-1.113l-.517-.311a4.86 4.86 0 0 1-2.405-4.193l.051-18.688c0-1.708.931-3.313 2.431-4.167l16.216-9.267a4.82 4.82 0 0 1 4.836.026l9.828 5.746c1.267-.232 2.534-.44 3.827-.672L27.285.984a7.32 7.32 0 0 0-7.32-.026L3.75 10.25C1.5 11.545.078 13.952.078 16.566L0 35.254a7.346 7.346 0 0 0 3.647 6.367l.362.207zm39.879-31.112c-.336.802-.75 1.527-1.241 2.2a4.833 4.833 0 0 1 1.888 3.857l-.078 18.688a4.818 4.818 0 0 1-2.431 4.167l-16.19 9.266A4.82 4.82 0 0 1 21 48.868l-8.172-4.762c-1.268.233-2.535.44-3.802.672l10.733 6.264c1.138.673 2.405.984 3.698.984 1.267 0 2.508-.31 3.646-.958l16.19-9.266a7.43 7.43 0 0 0 3.698-6.341l.078-18.688a7.472 7.472 0 0 0-3.181-6.057z" fill="#263238"/><path d="M73.862 14.572c0-.698-.284-.983-.983-1.268l-6.155-2.381c-2.095-.803-3.078-1.812-3.078-4.22V4.738c0-2.951 1.397-4.349 4.345-4.349h5.457c2.949 0 4.345 1.398 4.345 4.349V6.55c0 .414-.284.698-.698.698h-2.793c-.414 0-.699-.284-.699-.698v-.984c0-.854-.569-1.398-1.396-1.398h-2.948c-.854 0-1.397.57-1.397 1.398v.854c0 .699.285.984.983 1.268L75 10.095c2.095.802 3.078 1.811 3.078 4.219v1.967c0 2.95-1.397 4.348-4.345 4.348h-6.026c-2.948 0-4.345-1.398-4.345-4.348v-1.812c0-.414.285-.699.698-.699h2.793c.414 0 .699.285.699.699v.984c0 .854.569 1.397 1.396 1.397h3.518c.853 0 1.396-.57 1.396-1.398v-.88zm18.078 5.747c-.57 0-.854-.285-.983-.7L87.311 8.957h-.285V19.62c0 .414-.284.699-.698.699h-2.793c-.414 0-.699-.285-.699-.7V1.399c0-.414.285-.7.699-.7h3.93c.57 0 .854.286.983.7l4.216 12.061h.284l4.216-12.061c.13-.414.414-.7.983-.7h3.931c.414 0 .698.286.698.7v18.248c0 .414-.284.698-.698.698h-2.793c-.414 0-.699-.284-.699-.698V8.956h-.284L94.655 19.62c-.129.414-.413.699-.982.699H91.94zm25.526 0c-.569 0-.854-.285-.983-.7l-3.647-10.663h-.284V19.62c0 .414-.285.699-.699.699h-2.793c-.413 0-.698-.285-.698-.7V1.399c0-.414.285-.7.698-.7h3.931c.569 0 .854.286.983.7l4.19 12.061h.284l4.216-12.061c.129-.414.414-.7.983-.7h3.931c.413 0 .698.286.698.7v18.248c0 .414-.285.698-.698.698h-2.794c-.413 0-.698-.284-.698-.698V8.956h-.284l-3.647 10.664c-.129.414-.414.699-.983.699h-1.706zM72.802 47.988c0 .259-.13.414-.414.414h-1.759c-.258 0-.413-.13-.413-.414V31.863h-5.949c-.258 0-.413-.13-.413-.415v-1.63c0-.26.129-.415.413-.415H78.75c.259 0 .414.13.414.415v1.63c0 .26-.13.415-.414.415h-5.948v16.125zm9.879-14.107c0-3.106 1.63-4.736 4.862-4.736h6.776c3.259 0 4.862 1.63 4.862 4.736v10.017c0 3.106-1.63 4.737-4.862 4.737h-6.776c-3.258 0-4.862-1.63-4.862-4.737V33.881zm13.94 0c0-1.5-.802-2.303-2.302-2.303h-6.776c-1.5 0-2.302.802-2.302 2.303v10.017c0 1.502.802 2.304 2.302 2.304h6.776c1.5 0 2.302-.802 2.302-2.304V33.881zm24.776 10.043c0 3.106-1.63 4.737-4.862 4.737h-5.949c-3.258 0-4.862-1.63-4.862-4.737v-14.08c0-.26.13-.415.414-.415h1.759c.258 0 .414.13.414.415v14.08c0 1.501.801 2.304 2.301 2.304h5.949c1.5 0 2.301-.803 2.301-2.304v-14.08c0-.26.13-.415.414-.415h1.759c.258 0 .413.13.413.415v14.08h-.051zm6.491-10.043c0-3.106 1.629-4.736 4.862-4.736h6.233c3.258 0 4.862 1.63 4.862 4.736v1.087c0 .26-.129.415-.414.415h-1.759c-.258 0-.413-.13-.413-.415v-1.087c0-1.5-.802-2.303-2.302-2.303h-6.233c-1.5 0-2.302.802-2.302 2.303v10.017c0 1.502.802 2.304 2.302 2.304h6.233c1.5 0 2.302-.802 2.302-2.304v-1.087c0-.259.129-.414.413-.414h1.759c.259 0 .414.13.414.414v1.087c0 3.106-1.629 4.737-4.862 4.737h-6.233c-3.259 0-4.862-1.63-4.862-4.737V33.881zm34.526-4.063c0-.26.129-.415.414-.415h1.758c.259 0 .414.13.414.415v18.144c0 .259-.129.414-.414.414h-1.758c-.259 0-.414-.13-.414-.388v-8.024h-10.009v7.998c0 .259-.129.414-.413.414h-1.759c-.259 0-.414-.13-.414-.414V29.818c0-.26.129-.415.414-.415h1.759c.258 0 .413.13.413.415v7.713h10.009v-7.713z" fill="#2691F4"/></g><defs><clipPath id="a"><path fill="#fff" d="M0 0h165v52H0z"/></clipPath></defs></svg>