<svg width="481" height="202" xmlns="http://www.w3.org/2000/svg"><path d="M153.753 127.854h-18.932v-40.59H91.007v40.59H51.519L111.832 8.788h-46.52L5 127.854v40.05h86.007v30.308h43.814v-30.308h18.932v-40.05zM241.674 202c48.953 0 77.081-40.049 77.081-98.5 0-58.45-28.128-98.5-77.081-98.5s-77.081 40.05-77.081 98.5c0 58.451 28.128 98.5 77.081 98.5zm0-42.214c-22.719 0-33.807-19.754-33.807-56.286s11.088-56.286 33.807-56.286 33.808 19.754 33.808 56.286-11.089 56.286-33.808 56.286zM481 127.854h-18.932v-40.59h-43.815v40.59h-39.487L439.079 8.788h-46.52l-60.312 119.066v40.05h86.006v30.308h43.815v-30.308H481v-40.05z" fill="#50BCFF"/><path d="M148.753 122.854h-18.932v-40.59H86.007v40.59H46.519L106.832 3.788h-46.52L0 122.854v40.05h86.007v30.308h43.814v-30.308h18.932v-40.05z" fill="url(#a)"/><path d="M236.674 197c48.953 0 77.081-40.049 77.081-98.5 0-58.45-28.128-98.5-77.081-98.5s-77.081 40.05-77.081 98.5c0 58.451 28.128 98.5 77.081 98.5zm0-42.214c-22.719 0-33.807-19.754-33.807-56.286s11.088-56.286 33.807-56.286 33.808 19.754 33.808 56.286-11.089 56.286-33.808 56.286z" fill="url(#b)"/><path d="M476 122.854h-18.932v-40.59h-43.815v40.59h-39.487L434.079 3.788h-46.52l-60.312 119.066v40.05h86.006v30.308h43.815v-30.308H476v-40.05z" fill="url(#c)"/><defs><linearGradient id="a" x1="-63.365" y1="319.236" x2="389.266" y2="-45.072" gradientUnits="userSpaceOnUse"><stop offset=".316" stop-color="#0071DA"/><stop offset="1" stop-color="#2691F4"/></linearGradient><linearGradient id="b" x1="-63.365" y1="319.236" x2="389.266" y2="-45.072" gradientUnits="userSpaceOnUse"><stop offset=".316" stop-color="#0071DA"/><stop offset="1" stop-color="#2691F4"/></linearGradient><linearGradient id="c" x1="-63.365" y1="319.236" x2="389.266" y2="-45.072" gradientUnits="userSpaceOnUse"><stop offset=".316" stop-color="#0071DA"/><stop offset="1" stop-color="#2691F4"/></linearGradient></defs></svg>