<svg width="10" height="8" fill="#FF5656" xmlns="http://www.w3.org/2000/svg"><path d="M5.246 7.906A.347.347 0 0 1 5 8a.347.347 0 0 1-.246-.094L1.272 4.771a2.056 2.056 0 0 1-.156-.136 6.833 6.833 0 0 1-.307-.338 4.816 4.816 0 0 1-.38-.51 3.15 3.15 0 0 1-.3-.63A2.186 2.186 0 0 1 0 2.436c0-.763.236-1.36.709-1.791C1.18.216 1.834 0 2.667 0c.231 0 .465.038.704.115.241.072.465.173.67.302.208.125.386.243.535.354.149.11.29.229.424.354.134-.125.275-.243.424-.354.149-.111.326-.23.53-.354a2.83 2.83 0 0 1 .67-.302C6.866.038 7.102 0 7.333 0c.833 0 1.486.215 1.958.646.473.43.709 1.028.709 1.792 0 .767-.426 1.548-1.278 2.343L5.246 7.906z"/></svg>