<svg width="18" height="18" viewBox="0 0 18 18" fill="none" xmlns="http://www.w3.org/2000/svg">
<path d="M10.2871 9.3082L10.2874 9.3079L10.8694 8.69948C10.8695 8.69936 10.8696 8.69924 10.8697 8.69912C11.2563 8.30353 11.5 7.74905 11.5 7.13965C11.5 5.62313 10.2984 4.39091 8.81018 4.39091C7.72959 4.39091 6.85869 4.98159 6.39835 5.92958C6.3539 6.02113 6.30785 6.12603 6.26019 6.24407L6.26014 6.24418C6.25553 6.25565 6.25118 6.26727 6.24712 6.27903C6.11675 6.65691 6.31739 7.06893 6.69527 7.19931C7.07348 7.32979 7.4887 7.14965 7.65179 6.78431C7.71732 6.63749 7.76995 6.53462 7.80991 6.47212C8.02454 6.13648 8.3941 5.91528 8.81018 5.91528C9.46504 5.91528 10.0051 6.46434 10.0051 7.13965C10.0051 7.47618 9.86418 7.78688 9.65173 8.00328L9.65103 8.004L8.84827 8.83827C8.47912 9.22106 8.2156 9.71209 8.1117 10.2595C8.09881 10.3274 8.09344 10.4579 8.09299 10.6406L8.09298 10.6412L8.09297 10.6412V10.6424C8.09297 11.059 8.43067 11.3967 8.84725 11.3967C9.24616 11.3967 9.57437 11.0827 9.59192 10.6841C9.59628 10.5853 9.60312 10.5161 9.61139 10.4734C9.71138 9.95716 9.94549 9.66247 10.2871 9.3082ZM17.1 9C17.1 4.52649 13.4735 0.9 9 0.9C4.52649 0.9 0.9 4.52649 0.9 9C0.9 13.4735 4.52649 17.1 9 17.1C13.4735 17.1 17.1 13.4735 17.1 9ZM2.40909 9C2.40909 5.35994 5.35994 2.40909 9 2.40909C12.6401 2.40909 15.5909 5.35994 15.5909 9C15.5909 12.6401 12.6401 15.5909 9 15.5909C5.35994 15.5909 2.40909 12.6401 2.40909 9ZM9.7557 13.1262C9.7557 12.6295 9.35299 12.2268 8.85623 12.2268C8.35946 12.2268 7.95676 12.6295 7.95676 13.1262V13.146C7.95676 13.6427 8.35946 14.0455 8.85623 14.0455C9.35299 14.0455 9.7557 13.6427 9.7557 13.146V13.1262Z" fill="#2691F4" stroke="#2691F4" stroke-width="0.2"/>
</svg>
