<svg viewBox="0 0 33 33" fill="none" xmlns="http://www.w3.org/2000/svg"><circle cx="16.5" cy="16.5" r="15.2" stroke="#2691F4" stroke-width="1.4"/><path d="M16.5 31C24.508 31 31 24.508 31 16.5S24.508 2 16.5 2 2 8.492 2 16.5 8.492 31 16.5 31z" fill="#F4F8FF"/><path d="M16.569 22.71c-.023 0-.046.024-.069.024-.023 0-.046-.023-.068-.023h.137z" fill="#84DBFF"/><path d="M27.758 25.634A14.478 14.478 0 0 1 16.5 31c-4.544 0-8.608-2.1-11.257-5.366 1.895-2.535 4.795-3.79 7.17-4.407-.183 1.507.594 3.516.616 3.47.8-1.826 3.471-1.986 3.471-1.986s2.672.16 3.448 1.987c.023.045.822-1.964.617-3.471 2.397.616 5.32 1.872 7.193 4.407z" fill="#2691F4"/><path d="M19.766 19.811v.023c0 .228-.115 1.69-3.197 2.854h-.137c-3.083-1.164-3.197-2.626-3.197-2.854v-.023c0-.297.068-.594.137-.89.89 1.118 1.964 1.872 3.128 1.872 1.165 0 2.238-.754 3.129-1.873.068.297.137.594.137.891z" fill="#fff"/><path d="M19.765 19.811s.16 1.644-3.265 2.923c0 0 2.672.16 3.448 1.986.046.046 1.576-3.927-.183-4.909zm-6.53 0c-1.758.982-.229 4.955-.183 4.887.8-1.827 3.448-1.987 3.448-1.987-3.425-1.256-3.265-2.9-3.265-2.9z" fill="#1786EC"/><path d="M21.295 14.034c-.206 1.416-.822 2.74-1.85 3.745a4.414 4.414 0 0 1-.616.525l-.366-1.165h-3.927l-.365 1.165c-.731-.548-2.261-2.078-2.284-3.517-.64-8.197 5.64-6.462 5.64-6.462 4.225-.297 4.088 3.425 3.768 5.709zm.845 1.484c-.32.525-.753.89-1.164 1.028.16-.366.296-.754.41-1.142v-.023l.275-1.027h-.023c.091-.343.182-.686.251-1.028.091 0 .183.046.274.091.502.32.48 1.256-.023 2.101zm-10.116 1.028c-.41-.137-.845-.503-1.164-1.028-.525-.845-.525-1.78-.023-2.078.046-.023.068-.045.114-.045.274 1.073.594 1.872.662 2.032.114.365.251.753.411 1.119z" fill="#fff"/><path d="M18.989 6.042c.183-2.101-3.151-1.964-3.151-1.964-5.047.73-5.595 5.435-5.595 5.435l.685-.822c-1.073 2.352.548 6.393.685 6.713.845 2.809 2.718 5.389 4.887 5.389 2.17 0 4.042-2.58 4.887-5.389v-.023c.09-.342.182-.685.25-1.027h-.022c.457-1.827.959-3.677.959-3.677 1.301-6.553-3.585-4.635-3.585-4.635zm2.306 7.992c-.205 1.416-.822 2.74-1.85 3.745a6.26 6.26 0 0 1-.616.525l-.365-1.142h-3.928l-.365 1.165c-.731-.548-1.348-1.302-1.85-2.17a4.85 4.85 0 0 1-.434-1.347c-.64-8.197 5.64-6.462 5.64-6.462 4.225-.32 4.088 3.402 3.768 5.686z" fill="#324A5E"/><path d="M18.989 6.042c.183-2.101-3.151-1.964-3.151-1.964-5.047.73-5.595 5.435-5.595 5.435l.685-.822c-1.073 2.352.548 6.393.685 6.713.845 2.809 2.718 5.389 4.887 5.389 2.17 0 4.042-2.58 4.887-5.389v-.023c.09-.342.182-.685.25-1.027h-.022c.457-1.827.959-3.677.959-3.677 1.301-6.553-3.585-4.635-3.585-4.635zm2.306 7.992c-.205 1.416-.822 2.74-1.85 3.745a6.26 6.26 0 0 1-.616.525l-.365-1.142h-3.928l-.365 1.165c-.731-.548-1.348-1.302-1.85-2.17a4.85 4.85 0 0 1-.434-1.347c-.64-8.197 5.64-6.462 5.64-6.462 4.225-.32 4.088 3.402 3.768 5.686z" fill="#324A5E"/><path d="M18.989 6.042c.183-2.101-3.151-1.964-3.151-1.964-5.047.73-5.595 5.435-5.595 5.435l.685-.822c-1.073 2.352.548 6.393.685 6.713.845 2.809 2.718 5.389 4.887 5.389 2.17 0 4.042-2.58 4.887-5.389v-.023c.09-.342.182-.685.25-1.027h-.022c.457-1.827.959-3.677.959-3.677 1.301-6.553-3.585-4.635-3.585-4.635zm2.306 7.992c-.205 1.416-.822 2.74-1.85 3.745a6.26 6.26 0 0 1-.616.525l-.365-1.142h-3.928l-.365 1.165c-.731-.548-2.26-2.078-2.284-3.517-.64-8.197 5.64-6.462 5.64-6.462 4.225-.32 4.088 3.402 3.768 5.686z" fill="#19233C"/><path d="M14.901 17.939c.389.433.96.73 1.599.73.64 0 1.21-.274 1.598-.73h-3.197z" fill="#fff"/></svg>