<svg width="19" height="20" viewBox="0 0 19 20" fill="none" xmlns="http://www.w3.org/2000/svg">
<path d="M18.9518 5.59582C18.9073 4.58463 18.744 3.88929 18.51 3.28678C18.2687 2.64732 17.8975 2.07479 17.4112 1.59888C16.9358 1.11537 16.3604 0.739844 15.7294 0.501983C15.1243 0.267734 14.4339 0.104181 13.4241 0.0595213C12.4067 0.0112115 12.0838 0 9.50377 0C6.92362 0 6.6007 0.0112115 5.58714 0.055722C4.57734 0.100382 3.88324 0.264084 3.28185 0.498183C2.64323 0.739844 2.0716 1.11176 1.59624 1.59888C1.11367 2.07479 0.738878 2.65112 0.501201 3.28317C0.267317 3.88929 0.104019 4.58083 0.0594286 5.59206C0.011194 6.61096 0 6.93441 0 9.5186C0 12.1026 0.011194 12.4262 0.0556724 13.4412C0.100262 14.4526 0.263672 15.1479 0.497556 15.7502C0.738878 16.3898 1.11367 16.9624 1.59624 17.4383C2.0716 17.9216 2.64699 18.2973 3.27805 18.5352C3.88324 18.7695 4.57358 18.933 5.5835 18.9775C6.59691 19.0223 6.92001 19.0334 9.50017 19.0334C12.0802 19.0334 12.4031 19.0223 13.4167 18.9775C14.4264 18.933 15.1205 18.7695 15.7219 18.5352C16.9992 18.0407 18.0088 17.0293 18.5026 15.7502C18.7365 15.1443 18.8999 14.4526 18.9444 13.4412C18.989 12.4262 19 12.1026 19 9.5186C19 6.93441 18.9962 6.61096 18.9518 5.59582ZM17.2405 13.3668C17.1995 14.2964 17.0436 14.7984 16.9138 15.133C16.5944 15.9622 15.9374 16.6203 15.1095 16.9401C14.7754 17.0702 14.2706 17.2263 13.3461 17.2672C12.3437 17.3119 12.0431 17.3229 9.50757 17.3229C6.97185 17.3229 6.66753 17.3119 5.66877 17.2672C4.74064 17.2263 4.23947 17.0702 3.90533 16.9401C3.49334 16.7876 3.1184 16.546 2.81404 16.2299C2.49853 15.9212 2.2571 15.5495 2.10484 15.1368C1.97498 14.8022 1.81908 14.2964 1.77828 13.3706C1.73369 12.3667 1.72265 12.0655 1.72265 9.52601C1.72265 6.98634 1.73369 6.68154 1.77828 5.68138C1.81908 4.75179 1.97498 4.25 2.10484 3.91533C2.2571 3.50255 2.49853 3.12703 2.81784 2.82208C3.1258 2.50604 3.49699 2.26438 3.90912 2.11189C4.24323 1.98182 4.74819 1.82572 5.67256 1.78467C6.67493 1.74016 6.97564 1.72895 9.51106 1.72895C12.0505 1.72895 12.3511 1.74016 13.3498 1.78467C14.278 1.82572 14.7792 1.98182 15.1133 2.11189C15.5253 2.26438 15.9002 2.50604 16.2045 2.82208C16.5202 3.13068 16.7615 3.50255 16.9138 3.91533C17.0436 4.25 17.1995 4.75544 17.2405 5.68138C17.2849 6.6853 17.2961 6.98634 17.2961 9.52601C17.2961 12.0655 17.2849 12.3629 17.2405 13.3668Z" fill="#2691F4"/>
<path d="M9.50388 4.62915C6.80869 4.62915 4.62207 6.81903 4.62207 9.51861C4.62207 12.218 6.80869 14.408 9.50388 14.408C12.1991 14.408 14.3856 12.218 14.3856 9.51861C14.3856 6.81903 12.1991 4.62915 9.50388 4.62915ZM9.50388 12.6901C7.75542 12.6901 6.33713 11.2699 6.33713 9.51861C6.33713 7.76724 7.75542 6.34689 9.50388 6.34689C11.2524 6.34689 12.6705 7.76724 12.6705 9.51861C12.6705 11.2699 11.2524 12.6901 9.50388 12.6901Z" fill="#2691F4"/>
<path d="M15.7184 4.43563C15.7184 5.06608 15.2081 5.57704 14.5786 5.57704C13.9493 5.57704 13.439 5.06608 13.439 4.43563C13.439 3.80518 13.9493 3.29419 14.5786 3.29419C15.2081 3.29419 15.7184 3.80518 15.7184 4.43563Z" fill="#2691F4"/>
</svg>
