<svg width="19" height="19" viewBox="0 0 19 19" fill="none" xmlns="http://www.w3.org/2000/svg">
<path d="M12.3957 0H6.57041C1.23619 0 0 1.27346 0 6.58802V12.412C0 17.7265 1.27005 19 6.60428 19H12.4296C17.7638 19 19 17.6926 19 12.378V6.55407C19 1.2395 17.7299 0 12.3957 0ZM15.7825 8.4218C15.0036 8.4218 14.2415 8.26899 13.5303 7.96336C13.0731 7.77659 12.6497 7.52189 12.2603 7.21626L12.2772 12.3101C12.2772 13.4647 11.82 14.5344 11.0071 15.3494C10.3467 16.0116 9.5 16.4361 8.58556 16.5719C8.36542 16.6059 8.14528 16.6229 7.92513 16.6229C6.94296 16.6229 6.01159 16.3003 5.24955 15.723C5.11408 15.6041 4.96168 15.4853 4.84314 15.3664C3.96257 14.4835 3.50535 13.2949 3.57308 12.0384C3.62389 11.0876 4.01337 10.1707 4.65686 9.45755C5.50356 8.5067 6.67201 7.98034 7.92513 7.98034C8.14528 7.98034 8.36542 7.99732 8.58556 8.03128V10.3405C8.38235 10.2726 8.16221 10.2386 7.94207 10.2386C6.79055 10.2386 5.85918 11.1725 5.87611 12.3271C5.89305 13.0572 6.28253 13.7024 6.87522 14.059C7.14617 14.2288 7.46791 14.3307 7.82353 14.3476C8.09447 14.3646 8.34848 14.3307 8.58556 14.2458C9.41533 13.9741 9.99109 13.193 9.99109 12.2931V8.88025V2.66577H12.2603C12.2603 2.88651 12.2772 3.10724 12.328 3.32797C12.4973 4.19392 12.9884 4.94102 13.6658 5.4504C14.2585 5.89187 14.9866 6.16354 15.7825 6.16354V8.4218Z" fill="#2691F4"/>
</svg>
