<svg width="19" height="19" viewBox="0 0 19 19" fill="none" xmlns="http://www.w3.org/2000/svg">
<path d="M12.3957 0H6.57041C1.23619 0 0 1.27346 0 6.58802V12.412C0 17.7265 1.27005 19 6.60428 19H12.4296C17.7638 19 19 17.6926 19 12.378V6.55407C19 1.2395 17.7299 0 12.3957 0ZM15.3592 13.5496H13.9875C13.4456 13.5496 13.3102 13.1081 12.3788 12.1743C11.549 11.3762 11.2103 11.2744 11.0071 11.2744C10.7362 11.2744 10.6346 11.3423 10.6346 11.7498V12.9893C10.6346 13.3289 10.533 13.5326 9.63547 13.5326C8.16221 13.5326 6.55348 12.6327 5.41889 10.9857C3.70856 8.57462 3.2344 6.7748 3.2344 6.40125C3.2344 6.1975 3.30214 5.99374 3.70856 5.99374H5.08021C5.45276 5.99374 5.58823 6.16354 5.72371 6.52011C6.40107 8.48972 7.53565 10.2046 8.0098 10.2046C8.17914 10.2046 8.28075 10.1367 8.28075 9.6613V7.69169C8.21301 6.75782 7.73886 6.6899 7.73886 6.35031C7.73886 6.18052 7.87433 6.01072 8.11141 6.01072H10.2959C10.6007 6.01072 10.7023 6.18052 10.7023 6.52011V9.27078C10.7023 9.57641 10.8378 9.67828 10.9055 9.67828C11.0749 9.67828 11.2442 9.57641 11.549 9.23682C12.5481 8.13315 13.2594 6.40125 13.2594 6.40125C13.2932 6.23146 13.4626 6.0277 13.8012 6.0277H15.1729C15.6132 6.0277 15.6809 6.23146 15.6132 6.53709C15.4438 7.33512 13.7335 9.71224 13.7335 9.71224C13.598 9.94995 13.5303 10.0858 13.7335 10.3065C13.869 10.5103 14.377 10.9008 14.6649 11.3083C15.2745 11.9705 15.6979 12.5478 15.8333 12.9214C15.918 13.3458 15.7487 13.5496 15.3592 13.5496Z" fill="#2691F4"/>
</svg>
