<svg width="23" height="16" viewBox="0 0 23 16" fill="none" xmlns="http://www.w3.org/2000/svg">
<path d="M22.5261 2.50361C22.261 1.52464 21.4841 0.752993 20.4992 0.489394C18.6993 0 11.4999 0 11.4999 0C11.4999 0 4.30057 0 2.50072 0.470738C1.53454 0.734158 0.738743 1.52482 0.473613 2.50361C0 4.29167 0 8 0 8C0 8 0 11.727 0.473613 13.4964C0.738923 14.4752 1.51558 15.247 2.5009 15.5106C4.31952 16 11.5 16 11.5 16C11.5 16 18.6993 16 20.4992 15.5293C21.4843 15.2658 22.261 14.494 22.5263 13.5152C22.9999 11.727 22.9999 8.01883 22.9999 8.01883C22.9999 8.01883 23.0189 4.29167 22.5261 2.50361ZM9.20762 11.4259V4.57411L15.1943 8L9.20762 11.4259Z" fill="#2691F4"/>
</svg>
