<svg width="200" height="61" viewBox="0 0 200 61" fill="none" xmlns="http://www.w3.org/2000/svg">
<path d="M7.47046 50.1843C7.53095 49.8522 7.5612 49.5201 7.62169 49.1881C7.80317 47.89 8.31736 46.6824 9.04327 45.5956C9.98091 44.1768 11.221 43.0598 12.7333 42.2447C13.7315 41.7013 14.8203 41.4598 15.9395 41.2485C17.5123 40.9768 19.0851 40.7051 20.6277 40.4334C23.6826 39.89 26.7374 39.3768 29.7923 38.8335C31.6979 38.5014 33.5731 38.1391 35.4787 37.807C36.4163 37.6259 37.3539 37.475 38.2916 37.324C39.5922 37.1127 40.5903 36.1769 40.802 34.9693C41.044 33.5505 39.9551 32.4637 38.5336 32.7354C36.87 33.0373 35.2064 33.309 33.5429 33.6109C30.851 34.0939 28.1288 34.5467 25.4368 35.0297C23.9548 35.3014 22.4727 35.5731 20.9906 35.8448C19.7203 36.0561 18.4802 36.2976 17.2098 36.4788C15.4858 36.7505 13.792 36.5693 12.1889 35.8448C10.7068 35.1505 9.49697 34.1543 8.71056 32.7052C8.37785 32.1316 8.13588 31.4977 7.89391 30.8637C7.74268 30.4713 7.83342 30.3807 8.22662 30.3203C9.255 30.1392 10.3136 29.9581 11.342 29.7769C13.187 29.4449 15.0623 29.1128 16.9074 28.7807C19.2061 28.3581 21.5048 27.9656 23.8035 27.543C26.314 27.0902 28.8244 26.6675 31.3349 26.2147C33.4219 25.8525 35.5392 25.4902 37.6262 25.0977C38.9268 24.8562 40.2274 24.6751 41.5582 24.8864C43.8569 25.2185 45.7322 26.2751 47.0631 28.177C48.6056 30.3505 48.8778 32.7958 48.3637 35.3316C47.8495 37.8372 46.6094 39.9202 44.7946 41.7013C43.5847 42.9089 42.1934 43.8447 40.5601 44.4183C39.7737 44.69 38.957 44.9013 38.1101 45.0523C36.749 45.324 35.4182 45.5353 34.0571 45.7768C32.4843 46.0485 30.8812 46.3202 29.3084 46.6221C27.2819 46.9843 25.2554 47.3466 23.2289 47.7088C21.8073 47.9503 20.4159 48.222 18.9944 48.4635C16.5141 48.9164 14.0339 49.339 11.5537 49.7616C10.4044 49.973 9.22475 50.1541 8.07539 50.3654C8.0149 50.3654 7.9544 50.4258 7.89391 50.4258C7.74268 50.4258 7.62169 50.4258 7.47046 50.4258C7.47046 50.3654 7.47046 50.2748 7.47046 50.1843Z" fill="white"/>
<path d="M48.4542 10.9092C48.4844 10.9997 48.5752 11.1205 48.5752 11.2111C48.6054 12.1167 48.3937 13.0224 48.061 13.8676C47.4258 15.5582 46.3974 16.9468 45.0061 18.094C44.0987 18.8487 43.1006 19.4525 41.9512 19.7544C40.8321 20.0261 39.713 20.2374 38.5636 20.4487C36.1439 20.9015 33.7242 21.294 31.3045 21.7166C29.4292 22.0487 27.5539 22.3807 25.6786 22.7128C23.4706 23.1053 21.2626 23.4675 19.0546 23.86C17.5423 24.1317 15.9998 24.4034 14.4874 24.6751C13.1263 24.9166 11.735 25.1581 10.3739 25.3694C9.67825 25.4902 9.01283 25.6109 8.31716 25.7317C7.80298 25.8222 7.74248 25.7317 7.89371 25.2486C8.55914 22.9543 9.79924 20.9921 11.5535 19.3619C13.1868 17.8525 15.0621 16.7959 17.2701 16.3733C19.8713 15.8903 22.4725 15.4676 25.0434 14.9846C26.5558 14.7129 28.0378 14.4412 29.5199 14.1695C31.3347 13.8374 33.1192 13.5356 34.934 13.2337C36.4463 12.962 37.9284 12.6903 39.4105 12.4488C41.2555 12.1167 43.0703 11.8148 44.9153 11.4827C46.0042 11.3016 47.0628 11.0903 48.1517 10.879C48.2122 10.879 48.2727 10.8488 48.3029 10.8186C48.3634 10.9092 48.3937 10.9092 48.4542 10.9092Z" fill="white"/>
<path d="M4.6882 48.7958C4.89992 48.4033 5.11165 48.041 5.35362 47.6788C5.65608 47.226 5.9888 46.8033 6.35175 46.3807L5.74682 46.0184C4.02278 45.0222 2.9339 43.1505 2.9339 41.1279L2.9944 19.3319C2.9944 17.3395 4.08327 15.4678 5.83756 14.4716L24.8021 3.66414C26.5564 2.66793 28.7039 2.66793 30.4582 3.69433L41.9518 10.3961C43.4339 10.1245 44.916 9.88295 46.4283 9.61125L31.91 1.15851C29.2786 -0.3811 25.9817 -0.3811 23.3503 1.12832L4.38573 11.9659C1.75429 13.4754 0.0907393 16.2829 0.0907393 19.3319L0 41.1279C0 44.1769 1.60306 47.0146 4.26475 48.5542L4.6882 48.7958Z" fill="white"/>
<path d="M51.3286 12.5091C50.9354 13.4449 50.4515 14.2902 49.8768 15.0751C51.2681 16.1317 52.0848 17.7921 52.0848 19.5732L51.994 41.3692C51.994 43.3616 50.9052 45.2333 49.1509 46.2295L30.2166 57.0369C28.4623 58.0332 26.3148 58.0331 24.5605 57.0067L15.0026 51.4521C13.5205 51.7238 12.0385 51.9653 10.5564 52.237L23.1087 59.5426C24.4395 60.3275 25.9216 60.6897 27.4339 60.6897C28.916 60.6897 30.3678 60.3275 31.6987 59.5728L50.6329 48.7653C53.2644 47.2559 54.9279 44.4182 54.9582 41.3692L55.0489 19.5732C55.0187 16.7355 53.6273 14.1091 51.3286 12.5091Z" fill="white"/>
<path fill-rule="evenodd" clip-rule="evenodd" d="M88.091 38.9995H95.3215C95.3882 39.0091 95.4562 39.0029 95.5201 38.9814C95.584 38.96 95.6421 38.9239 95.6898 38.8759C95.7376 38.8279 95.7736 38.7695 95.7951 38.705C95.8166 38.6406 95.8231 38.5721 95.8139 38.5047V36.5235C95.8232 36.4561 95.817 36.3874 95.7955 36.3229C95.7741 36.2583 95.7381 36.1997 95.6903 36.1516C95.6426 36.1035 95.5844 36.0673 95.5204 36.0458C95.4564 36.0243 95.3883 36.0181 95.3215 36.0277H77.7391C77.6722 36.0179 77.604 36.024 77.5399 36.0454C77.4758 36.0668 77.4175 36.103 77.3696 36.1511C77.3217 36.1992 77.2856 36.2579 77.2641 36.3226C77.2426 36.3872 77.2363 36.456 77.2457 36.5235V38.5047C77.2365 38.5722 77.2429 38.6409 77.2645 38.7054C77.2861 38.7699 77.3222 38.8284 77.3701 38.8764C77.4179 38.9244 77.4762 38.9605 77.5402 38.9818C77.6042 39.0032 77.6723 39.0092 77.7391 38.9995H84.9696V58.8051C84.9599 58.8728 84.966 58.9419 84.9873 59.0069C85.0086 59.0718 85.0447 59.1309 85.0926 59.1793C85.1405 59.2277 85.1989 59.2642 85.2632 59.2859C85.3275 59.3076 85.3959 59.3138 85.463 59.3042H87.5986C87.6658 59.3138 87.7342 59.3076 87.7985 59.2859C87.8628 59.2642 87.9212 59.2277 87.9691 59.1793C88.017 59.1309 88.0531 59.0718 88.0744 59.0069C88.0957 58.9419 88.1018 58.8728 88.092 58.8051V38.9995H88.091ZM100.087 53.6074C100.087 57.4059 102.059 59.3052 106.003 59.3052H114.222C118.165 59.3052 120.137 57.4059 120.138 53.6074V41.5599C120.138 37.762 118.166 35.8628 114.222 35.8621H106.006C102.061 35.8621 100.09 37.7613 100.09 41.5599V53.6074H100.087ZM117.013 53.5796C117.062 53.9585 117.023 54.3438 116.899 54.7049C116.776 55.066 116.57 55.3931 116.299 55.6602C116.029 55.9274 115.7 56.1273 115.339 56.2441C114.979 56.3609 114.596 56.3915 114.222 56.3334H106.006C105.631 56.3923 105.248 56.3623 104.887 56.2457C104.526 56.1291 104.197 55.9292 103.925 55.6619C103.654 55.3945 103.448 55.067 103.324 54.7054C103.2 54.3438 103.161 53.958 103.211 53.5785V41.5887C103.161 41.2095 103.2 40.8239 103.325 40.4624C103.449 40.101 103.654 39.7737 103.925 39.5064C104.197 39.2391 104.526 39.0392 104.886 38.9225C105.247 38.8057 105.63 38.7754 106.005 38.8339H114.222C114.597 38.7756 114.979 38.8061 115.34 38.9229C115.701 39.0397 116.03 39.2396 116.301 39.5069C116.572 39.7742 116.777 40.1014 116.901 40.4627C117.025 40.8241 117.064 41.2096 117.015 41.5887V53.5785L117.013 53.5796ZM147.083 36.5203C147.092 36.453 147.086 36.3845 147.064 36.3202C147.042 36.2559 147.006 36.1976 146.958 36.1499C146.91 36.1022 146.852 36.0664 146.788 36.0454C146.724 36.0244 146.656 36.0187 146.59 36.0288H144.454C144.388 36.0187 144.32 36.0244 144.256 36.0454C144.192 36.0664 144.133 36.1022 144.086 36.1499C144.038 36.1976 144.001 36.2559 143.98 36.3202C143.958 36.3845 143.952 36.453 143.961 36.5203V53.5497C144.012 53.9306 143.975 54.3183 143.852 54.6823C143.73 55.0462 143.525 55.3763 143.254 55.6464C142.983 55.9165 142.653 56.1192 142.291 56.2384C141.929 56.3577 141.544 56.3902 141.168 56.3334H133.937C133.56 56.3902 133.176 56.3577 132.814 56.2384C132.451 56.1192 132.122 55.9165 131.851 55.6464C131.58 55.3763 131.375 55.0462 131.252 54.6823C131.129 54.3183 131.092 53.9306 131.144 53.5497V36.5193C131.153 36.452 131.147 36.3835 131.125 36.3192C131.103 36.2549 131.067 36.1966 131.019 36.1489C130.971 36.1011 130.913 36.0654 130.849 36.0443C130.785 36.0233 130.717 36.0176 130.651 36.0277H128.516C128.449 36.0176 128.381 36.0233 128.317 36.0443C128.254 36.0654 128.195 36.1011 128.147 36.1489C128.1 36.1966 128.063 36.2549 128.042 36.3192C128.02 36.3835 128.013 36.452 128.023 36.5193V53.5679C128.023 57.3928 129.994 59.3052 133.938 59.3052H141.169C145.112 59.3052 147.084 57.3928 147.084 53.5679V36.5193L147.083 36.5203ZM154.97 53.6085C154.97 57.407 156.942 59.3063 160.887 59.3063H168.445C172.388 59.3063 174.36 57.402 174.361 53.5935V52.2855C174.37 52.2184 174.363 52.15 174.342 52.0859C174.32 52.0218 174.284 51.9636 174.236 51.9161C174.188 51.8686 174.13 51.833 174.066 51.8122C174.002 51.7914 173.934 51.7859 173.868 51.7961H171.732C171.666 51.7857 171.598 51.7911 171.535 51.8116C171.471 51.8322 171.413 51.8675 171.365 51.9147C171.317 51.9619 171.281 52.0196 171.259 52.0835C171.237 52.1473 171.23 52.2154 171.239 52.2823V53.5785C171.288 53.9577 171.249 54.3432 171.125 54.7045C171.001 55.0659 170.795 55.3931 170.524 55.6604C170.253 55.9276 169.924 56.1276 169.563 56.2444C169.203 56.3612 168.82 56.3917 168.445 56.3334H160.887C160.512 56.3921 160.129 56.3619 159.768 56.2453C159.407 56.1286 159.078 55.9287 158.807 55.6614C158.536 55.394 158.33 55.0666 158.206 54.7051C158.082 54.3436 158.043 53.9579 158.092 53.5785V41.5887C158.043 41.2095 158.082 40.8239 158.206 40.4624C158.33 40.101 158.536 39.7737 158.807 39.5064C159.078 39.2391 159.407 39.0392 159.768 38.9225C160.129 38.8057 160.512 38.7754 160.887 38.8339H168.445C168.82 38.7756 169.203 38.8061 169.563 38.9229C169.924 39.0397 170.253 39.2396 170.524 39.5069C170.795 39.7742 171.001 40.1014 171.125 40.4627C171.249 40.8241 171.288 41.2096 171.239 41.5887V42.885C171.23 42.9519 171.237 43.02 171.259 43.0838C171.281 43.1476 171.317 43.2054 171.365 43.2526C171.413 43.2998 171.471 43.3351 171.535 43.3556C171.598 43.3762 171.666 43.3815 171.732 43.3712H173.868C173.934 43.3814 174.002 43.3759 174.066 43.3551C174.13 43.3342 174.188 43.2987 174.236 43.2512C174.284 43.2036 174.32 43.1455 174.342 43.0814C174.363 43.0173 174.37 42.9489 174.361 42.8818V41.5748C174.361 37.7663 172.389 35.8621 168.445 35.8621H160.887C156.942 35.8621 154.97 37.7613 154.97 41.5599V53.6074V53.6085ZM196.873 46.0993H184.713V36.531C184.723 36.4632 184.717 36.3939 184.696 36.3287C184.675 36.2635 184.639 36.2041 184.591 36.1553C184.543 36.1065 184.485 36.0695 184.421 36.0474C184.356 36.0252 184.288 36.0185 184.22 36.0277H182.084C182.017 36.0182 181.948 36.0246 181.884 36.0463C181.82 36.0681 181.762 36.1046 181.714 36.153C181.666 36.2015 181.63 36.2604 181.609 36.3253C181.588 36.3901 181.582 36.4591 181.592 36.5267V58.8062C181.582 58.8738 181.588 58.9428 181.609 59.0076C181.63 59.0725 181.666 59.1315 181.714 59.1799C181.762 59.2283 181.82 59.2648 181.884 59.2866C181.948 59.3083 182.017 59.3147 182.084 59.3052H184.22C184.287 59.315 184.355 59.309 184.419 59.2876C184.483 59.2663 184.542 59.2301 184.589 59.1821C184.637 59.1341 184.673 59.0755 184.695 59.011C184.716 58.9465 184.722 58.8778 184.713 58.8105V49.069H196.873V58.8425C196.867 58.9079 196.876 58.9738 196.899 59.0352C196.922 59.0966 196.959 59.1517 197.007 59.1964C197.055 59.241 197.112 59.274 197.174 59.2927C197.237 59.3113 197.302 59.3153 197.367 59.3042H199.502C199.569 59.3138 199.638 59.3076 199.702 59.2859C199.766 59.2642 199.825 59.2277 199.873 59.1793C199.921 59.1309 199.957 59.0718 199.978 59.0069C199.999 58.9419 200.005 58.8728 199.996 58.8051V36.5267C200.005 36.459 199.999 36.3899 199.978 36.325C199.957 36.26 199.921 36.201 199.873 36.1526C199.825 36.1041 199.766 36.0676 199.702 36.0459C199.638 36.0243 199.569 36.018 199.502 36.0277H197.367C197.299 36.0183 197.23 36.0249 197.166 36.047C197.102 36.0691 197.043 36.106 196.995 36.1548C196.947 36.2036 196.911 36.2631 196.89 36.3284C196.869 36.3937 196.863 36.4631 196.873 36.531V46.0983V46.0993Z" fill="white"/>
<path fill-rule="evenodd" clip-rule="evenodd" d="M89.5296 18.8034C89.5414 19.0219 89.5082 19.2405 89.4322 19.4458C89.3561 19.651 89.2387 19.8385 89.0873 19.9966C88.928 20.1468 88.7399 20.2632 88.5343 20.3388C88.3287 20.4143 88.1099 20.4475 87.8911 20.4362H83.7981C83.5792 20.4535 83.3591 20.4234 83.1529 20.3478C82.9467 20.2722 82.7594 20.1529 82.6037 19.9982C82.4481 19.8435 82.3278 19.657 82.2512 19.4515C82.1745 19.2459 82.1433 19.0263 82.1597 18.8076V17.6629C82.175 17.5521 82.1644 17.4392 82.1286 17.3331C82.0928 17.2271 82.0328 17.1309 81.9534 17.0519C81.8739 16.973 81.7772 16.9136 81.6708 16.8784C81.5645 16.8432 81.4513 16.8332 81.3404 16.8491H78.0677C77.9568 16.833 77.8435 16.8429 77.7371 16.878C77.6306 16.9131 77.5338 16.9725 77.4543 17.0515C77.3748 17.1304 77.3148 17.2268 77.2791 17.3329C77.2434 17.439 77.2329 17.552 77.2485 17.6629V19.7795C77.2485 23.1449 78.9415 24.8275 82.3275 24.8275H89.3734C92.7594 24.8275 94.4524 23.1449 94.4524 19.7795V17.5006C94.4634 16.8912 94.3924 16.2832 94.2413 15.6928C94.1143 15.2135 93.8913 14.7649 93.5857 14.3741C93.2682 13.9856 92.8857 13.655 92.455 13.397C91.9408 13.09 91.4002 12.8293 90.8398 12.618L83.6313 9.84679C83.2987 9.72804 82.9956 9.53932 82.7424 9.2934C82.5466 9.03156 82.4535 8.70725 82.4806 8.38161V7.40446C82.4642 7.18578 82.4954 6.96614 82.5721 6.76064C82.6487 6.55513 82.769 6.36862 82.9247 6.2139C83.0803 6.05919 83.2677 5.93993 83.4738 5.86433C83.68 5.78872 83.9001 5.75855 84.1191 5.77589H87.5596C87.7786 5.75855 87.9987 5.78872 88.2049 5.86433C88.411 5.93993 88.5984 6.05919 88.754 6.2139C88.9097 6.36862 89.03 6.55513 89.1066 6.76064C89.1833 6.96614 89.2145 7.18578 89.1981 7.40446V8.54394C89.1825 8.65481 89.193 8.76779 89.2287 8.87392C89.2644 8.98004 89.3244 9.07641 89.4039 9.15537C89.4834 9.23434 89.5802 9.29373 89.6867 9.32885C89.7932 9.36397 89.9064 9.37384 90.0174 9.3577H93.2901C93.401 9.37384 93.5142 9.36397 93.6207 9.32885C93.7272 9.29373 93.824 9.23434 93.9035 9.15537C93.983 9.07641 94.043 8.98004 94.0787 8.87392C94.1144 8.76779 94.1249 8.65481 94.1093 8.54394V6.42732C94.1093 3.06195 92.4163 1.37927 89.0303 1.37927H82.6474C79.2621 1.37927 77.5694 3.06195 77.5694 6.42732V8.70732C77.5581 9.31664 77.6291 9.92471 77.7806 10.5151C77.9072 10.9945 78.1303 11.4432 78.4362 11.8338C78.7534 12.2225 79.136 12.5531 79.5668 12.8109C80.0776 13.1187 80.615 13.3801 81.1726 13.592L88.382 16.36C88.7129 16.4797 89.0145 16.6684 89.2667 16.9134C89.4623 17.1754 89.5554 17.4996 89.5286 17.8252V18.8024L89.5296 18.8034ZM112.631 24.5029C112.901 24.5212 113.169 24.4402 113.385 24.2752C113.565 24.1163 113.702 23.9133 113.78 23.686L118.04 11.3099H118.368V23.686C118.352 23.7969 118.362 23.91 118.398 24.0163C118.433 24.1226 118.493 24.2191 118.573 24.2982C118.652 24.3772 118.749 24.4367 118.856 24.4719C118.962 24.5071 119.076 24.517 119.187 24.5008H122.459C122.571 24.5175 122.684 24.508 122.791 24.4731C122.898 24.4382 122.996 24.3788 123.076 24.2996C123.156 24.2205 123.216 24.1237 123.252 24.0172C123.287 23.9107 123.298 23.7972 123.282 23.686V2.51875C123.297 2.40792 123.287 2.29503 123.251 2.18901C123.215 2.08298 123.155 1.98672 123.076 1.90781C122.996 1.82889 122.899 1.76949 122.793 1.7343C122.687 1.6991 122.574 1.68906 122.463 1.70499H117.876C117.605 1.6867 117.337 1.76766 117.122 1.93267C116.942 2.09115 116.807 2.29295 116.728 2.51875L111.813 16.5234H111.485L106.569 2.51875C106.49 2.29321 106.355 2.09149 106.176 1.93267C105.961 1.76809 105.693 1.68718 105.422 1.70499H100.834C100.723 1.68884 100.61 1.69872 100.504 1.73383C100.397 1.76895 100.3 1.82834 100.221 1.90731C100.141 1.98627 100.081 2.08264 100.046 2.18877C100.01 2.2949 99.9994 2.40787 100.015 2.51875V23.686C99.9992 23.7969 100.01 23.91 100.045 24.0163C100.081 24.1226 100.141 24.2191 100.22 24.2982C100.3 24.3772 100.397 24.4367 100.503 24.4719C100.61 24.5071 100.723 24.517 100.834 24.5008H104.107C104.218 24.517 104.331 24.5071 104.438 24.4719C104.544 24.4367 104.641 24.3772 104.721 24.2982C104.8 24.2191 104.86 24.1226 104.896 24.0163C104.932 23.91 104.942 23.7969 104.926 23.686V11.312H105.253L109.519 23.686C109.596 23.912 109.732 24.114 109.911 24.272C110.126 24.4371 110.394 24.518 110.665 24.4997H112.631V24.5029ZM142.451 24.5029C142.721 24.5211 142.989 24.4401 143.204 24.2752C143.383 24.1166 143.518 23.9148 143.597 23.6891L147.858 11.313H148.185V23.686C148.169 23.7969 148.18 23.91 148.215 24.0163C148.251 24.1226 148.311 24.2191 148.39 24.2982C148.47 24.3772 148.567 24.4367 148.673 24.4719C148.78 24.5071 148.893 24.517 149.004 24.5008H152.277C152.388 24.517 152.501 24.5071 152.608 24.4719C152.715 24.4367 152.812 24.3772 152.891 24.2982C152.971 24.2191 153.031 24.1226 153.066 24.0163C153.102 23.91 153.112 23.7969 153.096 23.686V2.51875C153.112 2.40792 153.101 2.29503 153.065 2.18901C153.029 2.08298 152.97 1.98672 152.89 1.90781C152.811 1.82889 152.714 1.76949 152.608 1.7343C152.501 1.6991 152.388 1.68906 152.277 1.70499H147.689C147.418 1.68709 147.15 1.76801 146.935 1.93267C146.756 2.09121 146.621 2.29302 146.542 2.51875L141.627 16.5234H141.3L136.389 2.51875C136.31 2.29295 136.174 2.09115 135.995 1.93267C135.78 1.76783 135.512 1.68689 135.241 1.70499H130.654C130.543 1.68884 130.43 1.69872 130.323 1.73383C130.217 1.76895 130.12 1.82834 130.041 1.90731C129.961 1.98627 129.901 2.08264 129.865 2.18877C129.83 2.2949 129.819 2.40787 129.835 2.51875V23.686C129.819 23.7969 129.829 23.91 129.865 24.0163C129.901 24.1226 129.961 24.2191 130.04 24.2982C130.12 24.3772 130.216 24.4367 130.323 24.4719C130.43 24.5071 130.543 24.517 130.654 24.5008H133.927C134.038 24.517 134.151 24.5071 134.258 24.4719C134.364 24.4367 134.461 24.3772 134.541 24.2982C134.62 24.2191 134.68 24.1226 134.716 24.0163C134.751 23.91 134.762 23.7969 134.746 23.686V11.312H135.073L139.337 23.686C139.416 23.9119 139.551 24.1138 139.731 24.272C139.946 24.4372 140.214 24.5182 140.485 24.4997H142.451V24.5029Z" fill="white"/>
</svg>
