<svg width="12" height="7" viewBox="0 0 12 7" fill="none" xmlns="http://www.w3.org/2000/svg">
<path d="M12 0.998281C12 0.902062 11.9519 0.793814 11.8798 0.721649L11.2786 0.120274C11.2064 0.0481094 11.0982 0 11.002 0C10.9058 0 10.7976 0.0481094 10.7255 0.120274L6 4.84708L1.27455 0.120274C1.2024 0.0481094 1.09419 0 0.997996 0C0.88978 0 0.793587 0.0481094 0.721443 0.120274L0.12024 0.721649C0.0480962 0.793814 0 0.902062 0 0.998281C0 1.0945 0.0480962 1.20275 0.12024 1.27491L5.72345 6.87972C5.79559 6.95189 5.90381 7 6 7C6.09619 7 6.20441 6.95189 6.27655 6.87972L11.8798 1.27491C11.9519 1.20275 12 1.0945 12 0.998281Z" fill="#6153CE"/>
</svg>
