<svg width="1440" height="923" viewBox="0 0 1440 923" fill="none" xmlns="http://www.w3.org/2000/svg">
<path d="M1569.68 -56.9182C1581.13 239.87 1592.59 536.938 1604.04 833.727C1401.17 776.525 1206.01 726.562 1084.66 709.195C738.364 658.922 400.377 860.626 -25.986 798.929C-316.753 756.84 -574.866 597.949 -709.188 501.263C-717.975 319.356 -726.773 137.171 -735.56 -44.7353C32.9651 -48.9866 801.148 -52.9456 1569.68 -56.9182Z" fill="url(#paint0_linear_8_9689)"/>
<path d="M2767.3 -0.000976562H-1328.8C-1328.8 254.099 -1328.9 508.199 -1329 762.299C-1158.7 682.799 -1011.2 646.399 -909 628.299C-785.9 606.499 -696.7 605.399 -674.3 605.299C-626.3 605.099 -525.2 604.999 -399.7 633.699C-193.8 680.799 -115.8 768.399 212.2 753.799C659.5 733.899 714.2 660.099 984.7 684.799C993.7 685.599 1025.4 688.999 1064.2 695.999C1192.5 718.999 1390.4 780.799 1443.1 795.999C1494.4 810.699 1657.4 852.799 1840.1 829.299C2042.6 803.299 2094.3 719.099 2362.1 668.199C2522.7 637.699 2650.7 647.099 2767.3 670.499V-0.000976562Z" fill="url(#paint1_linear_8_9689)"/>
<path opacity="0.1" d="M386.102 -563.25C305.049 -616.883 219.054 -654.768 122.876 -658.858C86.9114 -660.336 50.855 -659.987 14.8528 -654.448C12.9732 -638.806 -293.977 -407.624 -295.999 -392.001C-312.489 -262.373 -252.724 -275.592 -269.499 -146.001C-269.499 205.499 -128.839 424.193 -125.716 428.108C-95.3402 467.155 -61.2627 501.162 -22.8059 529.383C13.5362 555.992 52.3432 575.897 95.4329 585.154C118.884 590.196 142.589 589.92 166.399 588.822C221.332 586.235 274.278 573.19 324.993 545.978C363.853 525.091 400.067 498.845 434.945 470.586C476.486 436.836 520.883 411.314 570.369 400.33C608.632 391.906 647.359 384.379 686.09 380.196C770.456 371.218 851.374 346.244 929.167 306.151C1001.82 268.737 1064.67 216.175 1112.13 141.221C1151.39 79.084 1178.01 11.4643 1182.84 -65.1613C1187.22 -135.994 1170.26 -199.054 1135.16 -255.433C1104.73 -304.185 1063.66 -339.098 1019 -368.79C972.213 -399.928 922.296 -419.265 866.498 -418.964C830.749 -418.742 794.82 -419.38 759.226 -421.479C707.466 -424.334 655.99 -430.495 605.614 -444.039C567.022 -454.386 529.241 -467.637 494.794 -489.82C458.212 -513.45 422.478 -539.145 386.102 -563.25Z" fill="white"/>
<defs>
<linearGradient id="paint0_linear_8_9689" x1="1509.32" y1="129.355" x2="-507.525" y2="-439.909" gradientUnits="userSpaceOnUse">
<stop stop-color="white"/>
<stop offset="1" stop-color="#A1C3FF"/>
</linearGradient>
<linearGradient id="paint1_linear_8_9689" x1="-81.5001" y1="358.499" x2="1789.5" y2="377" gradientUnits="userSpaceOnUse">
<stop stop-color="#3171FF"/>
<stop offset="1" stop-color="#ADCEFF"/>
</linearGradient>
</defs>
</svg>
