<svg width="56" height="57" viewBox="0 0 56 57" fill="none" xmlns="http://www.w3.org/2000/svg">
<g clip-path="url(#clip0_8_9591)">
<path d="M55.7222 24.7106L46.0583 13.7262C45.8479 13.487 45.5455 13.3501 45.2278 13.3501H10.7723C10.4547 13.3501 10.1522 13.487 9.94187 13.7262L0.277804 24.7106C-0.0107946 25.0387 -0.081171 25.5061 0.0979287 25.9054C0.165424 26.0559 0.26384 26.1859 0.383535 26.2898C0.385862 26.2923 0.387636 26.2952 0.389963 26.2979L27.1709 56.6253C27.3813 56.8636 27.683 56.9999 28 56.9999C28.317 56.9999 28.6188 56.8635 28.8291 56.6253L55.6101 26.2979C55.6124 26.2953 55.6143 26.2924 55.6165 26.2898C55.7361 26.1859 55.8345 26.0558 55.9021 25.9054C56.0812 25.5061 56.0108 25.0387 55.7222 24.7106ZM28 16.2651L35.9857 24.3345H20.0143L28 16.2651ZM17.6628 23.5527L12.7374 15.5767H25.556L17.6628 23.5527ZM30.444 15.5765H43.2626L38.3373 23.5525L30.444 15.5765ZM16.6829 26.5611L25.7306 51.639L3.58538 26.5611H16.6829ZM35.9766 32.9764C35.4022 32.7631 34.7649 33.058 34.5529 33.6347L28.0101 51.4224L19.0406 26.5611H52.4146L30.3106 51.5924L36.632 34.4065C36.8442 33.8297 36.5507 33.1894 35.9766 32.9764ZM40.4628 24.3345L45.3997 16.3399L52.4333 24.3345H40.4628ZM10.6003 16.3399L15.5372 24.3345H3.56677L10.6003 16.3399Z" fill="#0085FF"/>
<path d="M28.0009 7.96141C28.6129 7.96141 29.1092 7.46299 29.1092 6.84813V1.11328C29.1092 0.498416 28.6129 0 28.0009 0C27.3889 0 26.8926 0.498416 26.8926 1.11328V6.84813C26.8926 7.46299 27.3889 7.96141 28.0009 7.96141Z" fill="#0085FF"/>
<path d="M33.2724 10.3559C33.556 10.3559 33.8397 10.2471 34.0561 10.0298L38.0932 5.97467C38.5259 5.53994 38.5259 4.83501 38.0932 4.40027C37.6604 3.96553 36.9588 3.96553 36.5257 4.40027L32.4887 8.4554C32.0559 8.89014 32.0559 9.59507 32.4887 10.0298C32.7052 10.2472 32.9888 10.3559 33.2724 10.3559Z" fill="#0085FF"/>
<path d="M21.7288 10.0298C21.9453 10.2472 22.2289 10.3559 22.5125 10.3559C22.7961 10.3559 23.0797 10.2471 23.2962 10.0298C23.729 9.59507 23.729 8.89014 23.2962 8.4554L19.2592 4.40027C18.8266 3.96553 18.125 3.96553 17.6918 4.40027C17.259 4.83501 17.259 5.53994 17.6918 5.97467L21.7288 10.0298Z" fill="#0085FF"/>
<path d="M37.0243 30.9893C37.6364 30.9893 38.1326 30.4908 38.1326 29.876C38.1326 29.2611 37.6364 28.7627 37.0243 28.7627C36.4122 28.7627 35.916 29.2611 35.916 29.876C35.916 30.4908 36.4122 30.9893 37.0243 30.9893Z" fill="#0085FF"/>
</g>
<defs>
<clipPath id="clip0_8_9591">
<rect width="56" height="57" fill="white"/>
</clipPath>
</defs>
</svg>
