<svg width="25" height="25" viewBox="0 0 25 25" fill="none" xmlns="http://www.w3.org/2000/svg">
<path d="M24.9357 7.35C24.8774 6.02182 24.6629 5.10851 24.3555 4.31712C24.0386 3.4772 23.551 2.7252 22.9122 2.1001C22.2879 1.46502 21.5321 0.971771 20.7032 0.659344C19.9085 0.351663 19.0016 0.13684 17.6752 0.07818C16.339 0.014726 15.9148 0 12.526 0C9.137 0 8.71286 0.014726 7.38157 0.0731898C6.05522 0.131849 5.14353 0.346869 4.35361 0.654354C3.5148 0.971771 2.76397 1.46027 2.1396 2.1001C1.50576 2.7252 1.01347 3.48219 0.701286 4.31238C0.394085 5.10851 0.179595 6.01683 0.121027 7.34506C0.0576718 8.68337 0.0429688 9.10822 0.0429688 12.5025C0.0429688 15.8966 0.0576718 16.3216 0.116093 17.6547C0.174662 18.9832 0.389297 19.8965 0.696499 20.6876C1.01347 21.5277 1.50576 22.2797 2.1396 22.9049C2.76397 23.5397 3.51974 24.0332 4.34863 24.3456C5.14353 24.6533 6.05028 24.8682 7.37678 24.9266C8.70788 24.9855 9.13227 25 12.5213 25C15.91 25 16.3342 24.9855 17.6655 24.9266C18.9918 24.8682 19.9035 24.6533 20.6934 24.3456C22.3711 23.6961 23.6972 22.3677 24.3458 20.6876C24.653 19.8917 24.8676 18.9832 24.926 17.6547C24.9846 16.3216 24.9991 15.8966 24.9991 12.5025C24.9991 9.10822 24.9941 8.68337 24.9357 7.35ZM22.688 17.5571C22.6342 18.7781 22.4294 19.4374 22.2589 19.877C21.8395 20.9661 20.9764 21.8305 19.889 22.2505C19.4501 22.4214 18.7871 22.6264 17.5728 22.6801C16.2561 22.7388 15.8613 22.7533 12.531 22.7533C9.20036 22.7533 8.80064 22.7388 7.48879 22.6801C6.26971 22.6264 5.61144 22.4214 5.17254 22.2505C4.63141 22.0502 4.13893 21.7328 3.73916 21.3177C3.32474 20.9122 3.00762 20.4239 2.80764 19.8819C2.63706 19.4424 2.43229 18.7781 2.37871 17.5621C2.32014 16.2434 2.30563 15.8478 2.30563 12.5122C2.30563 9.17642 2.32014 8.77608 2.37871 7.46238C2.43229 6.24139 2.63706 5.58229 2.80764 5.14271C3.00762 4.60054 3.32474 4.10729 3.74414 3.70675C4.14865 3.29163 4.6362 2.97422 5.17752 2.77392C5.61637 2.60308 6.27962 2.39804 7.49377 2.34413C8.81036 2.28567 9.20534 2.27094 12.5356 2.27094C15.8711 2.27094 16.2659 2.28567 17.5777 2.34413C18.7968 2.39804 19.4551 2.60308 19.894 2.77392C20.4351 2.97422 20.9276 3.29163 21.3273 3.70675C21.742 4.11208 22.0589 4.60054 22.2589 5.14271C22.4294 5.58229 22.6342 6.24618 22.688 7.46238C22.7464 8.78102 22.7611 9.17642 22.7611 12.5122C22.7611 15.8478 22.7464 16.2385 22.688 17.5571Z" fill="#0085FF"/>
<path d="M12.5254 6.08008C8.98537 6.08008 6.11328 8.95645 6.11328 12.5023C6.11328 16.0479 8.98537 18.9245 12.5254 18.9245C16.0656 18.9245 18.9375 16.0479 18.9375 12.5023C18.9375 8.95645 16.0656 6.08008 12.5254 6.08008ZM12.5254 16.668C10.2289 16.668 8.36598 14.8026 8.36598 12.5023C8.36598 10.2019 10.2289 8.33629 12.5254 8.33629C14.8221 8.33629 16.6848 10.2019 16.6848 12.5023C16.6848 14.8026 14.8221 16.668 12.5254 16.668Z" fill="#0085FF"/>
<path d="M20.6893 5.82641C20.6893 6.65449 20.019 7.32562 19.1922 7.32562C18.3656 7.32562 17.6953 6.65449 17.6953 5.82641C17.6953 4.99833 18.3656 4.32715 19.1922 4.32715C20.019 4.32715 20.6893 4.99833 20.6893 5.82641Z" fill="#0085FF"/>
</svg>
