<svg data-name="Слой 1" xmlns="http://www.w3.org/2000/svg" viewBox="0 0 375 666"><defs/><defs><linearGradient id="a" x1="-7.07" y1="-2.05" x2="492.14" y2="242.2" gradientTransform="matrix(1 0 0 -1 0 432)" gradientUnits="userSpaceOnUse"><stop offset="0" stop-color="#06f"/><stop offset="1" stop-color="#89cdff"/></linearGradient></defs><path fill="url(#a)" d="M-9-2h421v668H-9z"/><path d="M-14-170.75c-35.66-23.6-73.49-40.26-115.8-42.06-15.83-.65-31.69-.5-47.53 1.94-.82 6.88-135.86 108.58-136.75 115.46-7.26 57 19 51.21 11.65 108.22 0 154.64 61.89 250.86 63.26 252.58A229.77 229.77 0 00-193.88 310c16 11.7 33.06 20.46 52 24.53 10.32 2.22 20.75 2.1 31.23 1.61 24.16-1.13 47.46-6.87 69.77-18.84 17.09-9.19 33-20.74 48.37-33.17 18.29-14.9 37.82-26.13 59.59-30.96 16.83-3.71 33.87-7 50.91-8.86 37.12-3.95 72.72-14.94 106.94-32.58 32-16.46 59.62-39.58 80.49-72.56 17.28-27.33 29-57.08 31.11-90.79 1.93-31.16-5.53-58.91-21-83.71-13.36-21.45-31.43-36.81-51.08-49.87-20.58-13.7-42.54-22.21-67.09-22.07-15.73.09-31.54-.19-47.2-1.11-22.77-1.26-45.41-4-67.58-9.93-17-4.55-33.59-10.38-48.75-20.14C17.74-148.84 2-160.15-14-170.75z" style="isolation:isolate" fill="#fff" opacity=".1"/></svg>