<svg data-name="Слой 1" xmlns="http://www.w3.org/2000/svg" viewBox="0 0 375 602.59"><defs/><defs><linearGradient id="a" x1="-54.95" y1="76.01" x2="602.16" y2="241.56" gradientTransform="matrix(1 0 0 -1 0 437.19)" gradientUnits="userSpaceOnUse"><stop offset="0" stop-color="#06f"/><stop offset="1" stop-color="#89cdff"/></linearGradient></defs><path fill="url(#a)" d="M-23-2.41h421v605H-23z"/><path d="M298.15 441.69c8.38 53.48 25.09 103.08 59.53 144.17 12.9 15.34 26.58 30 42.38 42.77 7.14-5.1 217.5 34.32 224.68 29.29C684.25 616 656.37 596.4 716 554.63c144.56-132 181.68-272 182.12-274.75a290.81 290.81 0 003-80.36c-2.71-24.94-9.1-48.37-21.47-69.57-6.73-11.54-15.75-21.18-25.15-30.57-21.69-21.62-46.94-38.49-77.18-49.13-23.18-8.14-47.58-13.18-72.3-16.91-29.5-4.41-56.67-13.08-79.77-29.34-17.84-12.58-35.48-25.68-51.74-40-35.38-31.33-76-55.23-121.74-72.17-42.68-15.83-87.9-21.94-136.55-13.31-40.3 7.19-78.11 21.64-111.44 48.42C173-48.25 153.44-17.6 143.43 18c-8.62 30.83-7.55 60.83-3 90.35 4.77 30.94 15.56 58.73 36.64 81.56 13.52 14.62 26.75 29.64 39.25 45.07 18.27 22.36 35.07 45.84 48.42 71.65 10.24 19.76 19 40.27 22.79 62.77 4.02 23.93 6.87 48.28 10.62 72.29z" style="isolation:isolate" fill="#fff" opacity=".1"/></svg>