<svg width="25" height="25" viewBox="0 0 25 25" fill="none" xmlns="http://www.w3.org/2000/svg"><path d="M16.31 0H8.645C1.627 0 0 1.676 0 8.668v7.663C0 23.325 1.671 25 8.69 25h7.665C23.373 25 25 23.28 25 16.287V8.624C25 1.63 23.329 0 16.31 0zm3.9 17.828h-1.805c-.713 0-.892-.58-2.117-1.81-1.092-1.05-1.538-1.183-1.805-1.183-.356 0-.49.089-.49.625v1.631c0 .447-.134.715-1.315.715-1.938 0-4.055-1.184-5.548-3.351-2.25-3.173-2.874-5.54-2.874-6.032 0-.268.089-.536.624-.536h1.804c.49 0 .669.223.847.692.891 2.592 2.384 4.848 3.008 4.848.223 0 .357-.09.357-.715v-2.591c-.09-1.23-.713-1.319-.713-1.765 0-.224.178-.447.49-.447h2.874c.401 0 .535.223.535.67v3.62c0 .402.178.536.267.536.223 0 .446-.134.847-.581 1.315-1.453 2.25-3.731 2.25-3.731.045-.224.268-.492.713-.492h1.805c.58 0 .669.268.58.67-.223 1.05-2.474 4.178-2.474 4.178-.178.313-.267.492 0 .782.179.268.847.782 1.226 1.318.802.872 1.36 1.631 1.537 2.123.112.558-.111.826-.624.826z" fill="currentColor"/></svg>