<svg width="611" height="458" viewBox="0 0 611 458" fill="none" xmlns="http://www.w3.org/2000/svg"><defs/><path d="M287.946 28.75c0-1.982-.661-3.569-1.983-4.23-1.322-.793-6.477-3.701-7.799-4.494-1.322-.794-3.041-.662-4.76.396l-161.151 93.069c-2.115 1.19-3.834 3.437-4.892 5.817l180.718 104.306V28.751h-.133z" fill="#F0F0F0"/><path d="M106.172 439.364c0 1.983.661 3.57 1.983 4.231.529.264 6.478 3.701 7.8 4.494.528.265 1.189.529 1.85.529.926 0 1.851-.264 2.909-.925l161.152-93.201c2.644-1.454 6.081-3.966 6.081-8.329V223.482L107.229 119.176c-.661 1.586-1.057 3.173-1.057 4.627v315.561z" fill="#E0E0E0"/><path d="M281.602 25.447L120.45 118.516c-3.173 1.85-5.684 6.213-5.684 9.915V443.86c0 3.701 2.511 5.156 5.684 3.305l161.152-93.069c3.173-1.851 5.685-4.098 5.685-7.8V28.752c0-3.702-2.512-5.156-5.685-3.305z" fill="#FAFAFA"/><path d="M117.805 448.619c-.661 0-1.322-.132-1.851-.529-1.322-.793-1.983-2.247-1.983-4.23V128.431c0-3.834 2.644-8.461 6.081-10.444l161.152-93.069c1.718-1.057 3.437-1.19 4.759-.396 1.322.793 1.983 2.247 1.983 4.23v317.544c0 4.363-3.437 6.875-6.081 8.329l-161.152 93.201c-.925.529-1.983.793-2.908.793zM284.112 25.315c-.661 0-1.454.264-2.247.66l-161.152 93.07c-2.908 1.718-5.288 5.816-5.288 9.254v315.429c0 1.454.529 2.644 1.322 3.04.793.529 1.983.397 3.305-.396l161.152-93.201c3.701-2.115 5.288-4.363 5.288-7.139V28.752c0-1.454-.529-2.644-1.322-3.04-.265-.265-.661-.397-1.058-.397z" fill="#E6E6E6"/><path d="M274.33 53.074c-.264-.397-.529-.529-.925-.265l-6.875 3.966c-.661.397-1.057 1.587-1.057 2.777v5.155c0 .661.132 1.322.396 1.587l.397.396c.132.133.396 0 .529 0l6.874-3.966c.661-.396 1.058-1.586 1.058-2.776v-5.156c0-.793-.133-1.454-.397-1.718zm-8.196 12.559c-.133-.132-.133-.397-.133-.793v-5.156c0-.926.397-1.851.794-2.115l6.874-3.966c.132 0 .264-.133.264 0 0 0 .133 0 .133.132.132.132.132.396.132.793v5.156c0 .925-.397 1.85-.793 2.115l-6.875 3.966c-.264 0-.396 0-.396-.132z" fill="#455A64"/><path d="M270.496 56.379v6.081l-3.702 2.115h-.132v-4.891c0-.661.265-1.454.661-1.587l3.173-1.718zM274.991 54.529c.264-.133.397.528.397 1.586v.925c0 1.058-.265 2.116-.529 2.248l-.529.264v-4.891c.264.132.529 0 .661-.133zM245.511 78.058c0 .132 0 .132-.132.264 0 .132-.132.132-.132.132l-.397.133h-.132s-.132-.133-.132-.265v-7.006l-1.322 2.38c0 .131-.132.131-.132.131h-.133l-.132-.264v-.264c0-.133 0-.133.132-.265l1.719-3.173c0-.132.132-.132.132-.132s.132 0 .132-.132l.397-.132h.132s.132.132.132.264v8.329h-.132zM247.494 71.316h.133v1.322c0 .133-.133.133-.133.133l-.528.264h-.133s-.132-.132-.132-.264v-.661c0-.133 0-.133.132-.265 0-.132.133-.132.133-.132l.528-.397zm0 4.495h.133v1.322c0 .132-.133.132-.133.132l-.528.265h-.133s-.132-.132-.132-.265v-.793c0-.132 0-.132.132-.264 0-.132.133-.132.133-.132l.528-.265zM251.593 74.884h-.132s-.133-.132-.133-.264V72.9l-2.644 1.454h-.132s-.132-.132-.132-.264v-.397-.264c0-.132 0-.132.132-.265l2.644-6.742c0-.132.132-.264.132-.264 0-.132.133-.132.133-.132l.396-.133h.132s.133.133.133.265v5.288l.661-.397h.132s.132.133.132.265v.396c0 .133 0 .133-.132.265 0 .132-.132.132-.132.132l-.661.396v1.72c0 .131 0 .131-.133.263 0 .133-.132.133-.132.133l-.264.264zm-.265-3.04v-3.57l-1.85 4.627 1.85-1.057zM254.501 71.183c0 .133.132.265.132.397s.132.132.264.264h.397c.132 0 .397-.132.661-.264.132-.132.397-.264.529-.397.132-.132.264-.396.396-.528.133-.265.265-.397.265-.661.132-.265.132-.53.132-.793 0-.265 0-.53-.132-.661a.284.284 0 00-.265-.265h-.396c-.132 0-.265.132-.529.264l-.661.397h-.132s-.132-.132-.132-.264v-.53-.263c0-.133 0-.133.132-.265l1.454-3.305-2.38 1.322h-.132s-.132-.132-.132-.264v-.397c0-.132 0-.132.132-.264 0-.133.132-.133.132-.133l3.305-1.85h.133v.925c0 .132 0 .132-.133.264l-1.454 3.306c.265-.133.529-.265.793-.265.265 0 .397 0 .529.132.132.133.265.397.397.661.132.265.132.661.132 1.058s0 .793-.132 1.322c-.132.396-.265.793-.397 1.057-.132.397-.396.661-.661.926-.264.264-.529.529-.793.66-.397.265-.661.397-.925.397-.265 0-.529 0-.661-.132a1.808 1.808 0 01-.397-.529c-.132-.264-.132-.528-.132-.793v-.264c0-.132.132-.132.132-.132l.397-.265h.132v.132z" fill="#455A64"/><path d="M144.511 357.401c-.529.264-.926.925-1.322 1.851l-8.064 22.474c-.529 1.586 0 2.379 1.322 1.586l30.009-17.318c1.322-.793 1.719-1.983.925-2.776l-5.288-5.156c-.396-.397-1.057-.397-1.586 0-.529.264-1.058.793-1.454 1.454l-1.719 3.437c-.396.661-.925 1.322-1.454 1.587-.661.396-1.19.396-1.586 0l-8.329-7.007c-.529-.264-.925-.264-1.454-.132zm12.823-18.112c-2.644 1.587-4.759 5.156-4.759 8.065 0 2.908 2.247 3.966 4.759 2.511 2.512-1.454 4.759-5.155 4.759-7.932 0-3.04-2.115-4.098-4.759-2.644z" fill="#5B99FB"/><path d="M136.578 383.309c-1.322.793-1.85 0-1.322-1.587l8.065-22.474c.264-.925.793-1.454 1.322-1.851.396-.264.925-.264 1.189.133l8.329 7.006c.397.397 1.058.397 1.586 0 .529-.264 1.058-.793 1.455-1.586l1.983-3.437c.396-.661.925-1.19 1.454-1.455.661-.396 1.19-.396 1.586 0l5.288 5.156c.793.793.265 1.983-.925 2.776l-30.01 17.319zm20.888-33.447c-2.644 1.586-4.759.397-4.759-2.512 0-2.908 2.115-6.478 4.759-8.064 2.644-1.586 4.759-.397 4.759 2.512 0 2.908-2.115 6.478-4.759 8.064zm10.312-24.721l-33.844 19.565c-2.776 1.587-4.891 5.288-4.891 8.329l.397 34.107c0 3.041 2.247 4.099 5.023 2.512l33.843-19.565c2.777-1.587 4.892-5.288 4.892-8.329l-.397-34.108c0-2.908-2.247-3.966-5.023-2.511z" fill="#BDD2FC"/><path d="M154.955 125.521v-1.19l1.322-.793c.529-.264.794-.264.794.132 0 .397-.265.794-.794 1.058l-1.322.793zm0-2.247v-1.19l1.058-.661c.264-.132.397-.132.529-.132s.132.132.132.264c0 .397-.264.793-.793 1.058l-.926.661zm1.19-2.909l-2.379 1.322v5.421l2.379-1.322c.529-.397 1.058-.661 1.322-1.19.265-.397.529-.926.529-1.454 0-.397-.132-.529-.264-.661-.133-.133-.397-.133-.661-.133.396-.528.661-1.057.661-1.586 0-.397-.133-.661-.397-.793-.132 0-.529 0-1.19.396zM163.415 116.133l-1.322.793-1.983 3.569v-2.379l-1.057.529v5.552l1.19-.661-.133-1.719.661-.925 1.587 1.454 1.322-.793-2.248-1.983 1.983-3.437zM166.72 118.779c-.396.264-.793.264-1.057.132-.265-.132-.397-.529-.397-.925 0-.529.132-.926.397-1.454.264-.529.661-.794 1.057-1.058.397-.264.793-.264 1.058-.132.264.132.396.529.396.925 0 .529-.132.926-.396 1.454a4.018 4.018 0 01-1.058 1.058zm0-4.627a3.893 3.893 0 00-1.851 1.983c-.528.793-.793 1.719-.793 2.38 0 .793.265 1.322.793 1.586.529.264 1.19.132 1.851-.264a3.893 3.893 0 001.851-1.983c.529-.794.793-1.719.793-2.38 0-.793-.264-1.322-.793-1.586-.529-.265-1.19-.133-1.851.264zM174.519 109.789l-1.189.661.132 2.115-2.115 1.19v-2.247l-1.058.661v5.552l1.19-.661-.132-2.247 2.115-1.19v2.247l1.057-.661v-5.42zM179.411 106.879l-4.099 2.38v1.189l1.587-.925v4.363l1.058-.661v-4.363l1.454-.793v-1.19zM181.924 108.732l.661-2.116.661 1.455-1.322.661zm1.057-3.966l-1.057.528-2.115 6.743 1.057-.661.397-1.455 2.115-1.189.529.925 1.19-.661-2.116-4.23zM190.383 100.668l-1.322.661-1.983 3.569v-2.379l-1.189.661.132 5.42 1.057-.529v-1.718l.529-1.058 1.587 1.454 1.322-.793-2.116-1.851 1.983-3.437zM194.879 98.023l-4.098 2.38v1.058l1.454-.794.133 4.363 1.057-.661v-4.363l1.454-.925v-1.058zM199.506 95.379l-3.834 2.115.132 5.42 3.834-2.115-.132-1.058-2.644 1.587v-1.19l2.379-1.322v-1.058l-2.379 1.323v-1.19l2.644-1.455V95.38z" fill="#000"/><path d="M142.925 130.941c.132-.132.264-.265.396-.529.661-1.19 1.19-2.776 1.19-2.776 0-.132.132-.397.397-.529l.925-.529c.264-.132.397 0 .264.265-.132.661-1.057 2.776-1.189 3.04-.133.265-.133.397 0 .397.132.132.396.264.661.396.396.265.661.529.793.794.132.264 0 .528-.265.661l-.925.528c-.397.265-.529 0-1.058-.396-.528-.265-.793-.265-.925-.132-.132.132-.264.264-.264.528v.926c0 .264 0 .396-.661.793-1.058.529-2.116.529-2.909-.264-1.19-1.19-1.586-2.248-1.586-2.644 0-.133 0-.265.264-.529l.926-.529c.264-.132.396-.132.396.132.529 1.19 1.322 2.115 1.587 1.851.132-.132.132-.132.132-.529v-1.586c0-.661-.397-.529-.397-.793 0-.133.132-.265.265-.397l1.454-.793c.264-.132.264 0 .264.264v2.115c.132.265.132.265.265.265zm1.057-7.8l-3.966 2.247c-3.701 2.116-4.495 3.57-4.495 7.536v4.362c0 3.966.926 4.495 4.495 2.38l3.966-2.247c3.702-2.116 4.495-3.57 4.495-7.536v-4.362c0-4.099-.793-4.495-4.495-2.38zM197.126 326.598c-.529.265-.925.926-1.322 1.851l-8.064 22.474c-.529 1.586 0 2.38 1.322 1.587l30.009-17.319c1.322-.793 1.719-1.983.926-2.776l-5.288-5.156c-.397-.396-1.058-.396-1.587 0-.529.265-1.057.794-1.454 1.587l-1.983 3.437c-.397.661-.925 1.322-1.454 1.586-.661.397-1.19.397-1.719 0l-8.328-7.006c-.133-.397-.661-.529-1.058-.265zm12.823-18.111c-2.644 1.586-4.759 5.156-4.759 7.932 0 2.776 2.248 3.966 4.759 2.512 2.644-1.587 4.76-5.156 4.76-8.065 0-2.908-2.116-3.833-4.76-2.379z" fill="#5B99FB"/><path d="M189.194 352.508c-1.322.793-1.851 0-1.322-1.587l8.064-22.474c.264-.925.793-1.454 1.322-1.851.396-.264.925-.264 1.19.133l8.328 7.006c.397.397 1.058.397 1.719 0 .529-.264 1.057-.793 1.454-1.586l1.983-3.437a5.646 5.646 0 011.454-1.587c.661-.396 1.19-.396 1.587 0l5.288 5.156c.793.793.264 1.983-.926 2.776l-30.141 17.451zm20.887-33.447c-2.644 1.586-4.759.397-4.759-2.512 0-2.908 2.115-6.478 4.759-7.932 2.644-1.586 4.759-.396 4.759 2.512s-2.115 6.346-4.759 7.932zm10.312-24.721l-33.843 19.565c-2.777 1.587-4.892 5.288-4.892 8.329l.397 34.107c0 3.041 2.247 4.099 5.023 2.512l33.844-19.565c2.776-1.587 4.891-5.288 4.891-8.329l-.397-34.108c-.132-2.908-2.379-4.098-5.023-2.511z" fill="#BDD2FC"/><path d="M248.685 296.853c-.529.265-.926.926-1.322 1.851l-8.065 22.474c-.528 1.586 0 2.38 1.322 1.586l30.01-17.318c1.322-.793 1.718-1.983 1.057-2.776l-5.288-5.156c-.396-.396-1.057-.396-1.586 0-.529.265-1.058.793-1.454 1.587l-1.983 3.437c-.397.793-.926 1.322-1.454 1.586-.661.397-1.19.397-1.587 0l-8.328-7.006c-.397-.529-.926-.529-1.322-.265zm12.823-18.111c-2.644 1.586-4.759 5.156-4.759 7.932 0 2.908 2.247 3.966 4.759 2.512 2.644-1.587 4.759-5.156 4.759-8.065 0-2.776-2.115-3.966-4.759-2.379z" fill="#5B99FB"/><path d="M240.752 322.762c-1.322.793-1.851 0-1.322-1.587l8.064-22.474c.265-.925.794-1.454 1.322-1.851.397-.264.926-.264 1.19.133l8.329 7.006c.396.397 1.057.397 1.586 0 .529-.264 1.058-.793 1.454-1.586l1.983-3.437a5.649 5.649 0 011.455-1.587c.661-.396 1.189-.396 1.586 0l5.288 5.156c.793.793.264 1.983-1.058 2.776l-29.877 17.451zm20.888-33.579c-2.644 1.586-4.759.396-4.759-2.512s2.115-6.478 4.759-7.932c2.644-1.586 4.759-.397 4.759 2.512 0 2.908-2.115 6.478-4.759 7.932zm10.311-24.589l-33.843 19.565c-2.776 1.587-4.891 5.288-4.891 8.329l.396 34.107c0 3.041 2.248 4.099 5.024 2.512l33.843-19.565c2.776-1.587 4.892-5.288 4.892-8.329l-.397-34.108c-.132-2.908-2.38-4.098-5.024-2.511zM250.932 105.161l-20.491 11.898c-.132 3.702-1.587 8.197-4.892 13.088.265 1.322.529 2.776.794 4.363 1.586 11.237-1.455 16.657-3.173 18.772-1.454 1.851-4.363 3.702-7.403 5.42-.397.265-.794.529-1.19.661l1.057 7.536 5.817-3.041c.132-.132.265-.264.397-.264.793-.529 2.115-1.454 3.569-2.248 2.776-1.586 6.346-3.172 8.858-2.644 3.966.926 7.006 3.702 10.179 6.214 1.454 1.19 3.702 3.04 3.966 3.305 2.247 1.586 4.759 3.305 6.213 4.098 2.777 1.454 7.932 6.874 8.858 9.254.925 2.38.529 7.271-4.363 10.047-.132.132-.264.132-.396.265-3.041 1.586-7.8 4.098-13.22 5.155-3.702.661-7.668.133-12.295-.396-.397 0-.661-.132-1.058-.132l-1.586 2.379c0 1.587.132 5.156.661 10.841.132 1.85.529 4.098.925 6.081l-43.493 25.118c.528-1.322 1.057-2.909 1.718-4.495 1.851-5.156 1.454-8.99.529-12.427-.264-1.057-1.058-2.908-1.851-5.42-.529.264-.925.661-1.454.925-2.512 1.719-4.627 4.099-9.254 7.271-.132 0-.132.133-.264.133-1.19.925-2.38 1.718-3.57 2.776-3.04 2.776-5.817 6.213-10.179 11.237-3.702 4.495-8.858 8.328-12.163 10.179-.264.132-.661.397-.925.529-3.305 1.719-5.685 3.305-6.874 2.38-1.719-1.058-.926-5.421 1.586-11.634 2.512-6.346 5.817-9.518 9.915-15.335a1952.42 1952.42 0 0110.179-14.542v-.132s9.915-14.278 13.749-19.566c3.041-4.23 6.61-8.064 9.122-9.518 0 0 9.386-7.139 10.973-8.197l-.661-5.023c-1.983-4.76-13.353-.133-16.525-11.634-1.455-4.23-1.19-9.254.264-14.145l-1.454.793c-1.058 2.908-1.587 6.61-1.454 10.311.264 6.875 2.247 12.559 1.718 20.095-.132 2.247-.529 4.627-1.454 7.006-.925 2.38-2.644 4.892-4.495 6.214 0-1.322-.132-2.512-.132-3.834-2.512 4.759-6.346 8.857-10.312 11.105-1.189.661-2.379 1.19-3.569 1.454-.397.132-.925.132-1.058-.132-.264-.529.397-1.587.926-2.38 2.908-4.362 7.403-10.708 7.006-15.203-.396-5.023-1.718-9.386-2.247-14.41-.264-3.701-.132-7.932 1.058-12.162l-16.393 9.518c-13.352 7.668-24.061 25.779-23.928 40.454l.528 46.402c.133 14.674 11.105 20.226 24.457 12.559l99.547-57.507c13.352-7.668 24.06-25.779 23.928-40.453l-.529-46.403c.133-14.674-10.84-20.358-24.192-12.559z" fill="#BDD2FC"/><path d="M220.791 197.57c-.265.133-.397.265-.661.397h-.133.133c-.661.397-1.322.925-2.116 1.454-.396.265-.793.529-1.189.661-.661.397-1.455.793-2.116 1.19-.793.397-1.586.793-2.247 1.19-1.454.925-3.041 1.983-4.759 3.437-1.587 1.454-3.702 3.702-5.024 5.42-.661.793-1.057 1.587-1.454 2.248 1.058.264 2.512.264 4.098-.265 1.19-.264 2.248-.793 3.305-1.454 5.42-3.173 9.386-9.254 9.386-9.254s-3.04 7.8-9.518 11.634c-.925.528-1.983.925-3.041 1.322-3.04.925-4.891.528-6.213-.397-.132.264-.264.529-.397.661h-.132c-.529 0-.661-.397-2.776-.397-1.322 0-3.041.794-4.891 1.851-.661.397-1.322.793-1.851 1.19.793 2.512 1.586 4.363 1.851 5.42.925 3.57 1.322 7.403-.529 12.427-.529 1.586-1.19 3.041-1.719 4.495l43.494-25.118c-.397-1.851-.793-4.098-.925-6.081-.529-5.817-.661-9.254-.661-10.841a12.429 12.429 0 001.586-2.379c-4.23-.397-6.874-.265-8.725.132-1.058.132-1.983.529-2.776 1.057zm-16.658-.396l-1.454 1.19s-1.454 3.569-2.247 4.098c0 0-.132 1.057-.793 1.454-.133 0-.133.132-.265.132 0 0-.529 1.19-1.057 1.454h-.133s-.132 0-.264-.132c0 .265.132.529.132.529s-.132.397-.793.793c-.132 0-.132.132-.264.132-.794.397-1.455-.396-1.455-.396l-.396.396c-.265.133-.661.265-1.058.133-.793-.133-1.718-1.058-1.718-1.058s-1.19.661-2.116 1.058a31.2 31.2 0 01-1.454.528v.133c-.132.396-.529 1.718-.396 2.776 0 .396 0 .793.132 1.19v.264s0 .132.132.132v.132c.529.661 1.586.794 3.041.529.396-.132.925-.264 1.454-.396 2.512-.926 4.891-1.322 5.817-.133l.132.133c.132.132.264.264.396.264.265-1.19.794-2.776 1.719-3.966 1.19-1.719 3.041-3.569 4.495-5.42a7.94 7.94 0 001.586-2.909v-.132-.132-.132-.265-.132c-.264-.661-1.057-1.19-1.718-1.322-.661-1.057-1.19-1.057-1.455-.925zm-3.701-22.342c-1.719 1.058-10.973 8.196-10.973 8.196 1.454 1.851 3.57 3.702 3.305 10.709-.132 2.247-.264 3.966-.661 5.552.265-.132.529-.397.793-.529.133-.132.265-.132.397-.132.661-.264 1.19.793 2.38 1.454.396.265.793.397 1.057.661.132-.793.529-1.454.926-2.644.925-2.247 1.718-4.891 2.644-5.552.132 0 .132-.132.264-.132 1.322-.794 4.627-2.248 7.271-3.57 2.776-1.454 3.569-1.057 5.156-.793 1.718.264 7.932-.925 9.65-1.19 1.719-.264 4.099-1.586 5.288-1.322.794.132 5.685-.925 8.461-1.586l-12.559-5.949-1.454-8.329c-.661-1.851-1.058-3.834-.925-5.817l-5.817 3.041v.264s3.569.265 4.362 3.966c.397 1.851-2.644 5.156-6.345 7.404-2.248 1.322-4.627 2.115-6.742 1.983-4.495-.397-6.214-3.305-6.214-3.305l-.264-2.38z" fill="#455A64"/><path d="M176.108 139.401c-2.644 2.512-4.892 5.685-6.61 9.122-.661 1.586-1.322 3.04-1.719 4.627-1.19 4.362-1.454 8.461-1.058 12.162.397 5.024 1.719 9.386 2.248 14.41.396 4.495-3.966 10.84-7.007 15.203-.529.793-1.19 1.851-.925 2.38.132.396.661.264 1.057.132 1.19-.265 2.38-.793 3.57-1.454 3.834-2.248 7.8-6.346 10.311-11.105 0 1.322.133 2.512.133 3.834 1.983-1.322 3.569-3.834 4.494-6.214.926-2.379 1.322-4.759 1.455-7.006.528-7.536-1.455-13.088-1.719-20.095-.132-3.701.397-7.403 1.454-10.311.661-1.983 1.587-3.57 2.776-4.76.397-.925.794-1.983 1.322-2.908 0 0-.132 0-.132.132-2.115 1.058-6.874 3.305-9.65 1.851z" fill="#263238"/><path d="M190.78 119.308c-.793.396-1.718 1.586-2.776 3.701-1.983 3.834-2.247 8.064-1.983 10.841.397.396.793.925 1.19 1.454a44.051 44.051 0 014.495-6.875c.661-1.85 1.057-3.569 1.19-5.155 0-2.909-.661-4.892-2.116-3.966z" fill="#5B99FB"/><path d="M177.164 133.584c-2.512 1.454-4.098 3.966-1.19 5.684l.133.133c2.776 1.454 7.403-.794 9.915-2.116 0 0 .132 0 .132-.132.264-.661.661-1.322.925-1.851a4.136 4.136 0 00-1.19-1.454c-1.718-1.586-4.23-1.983-6.742-1.19-.661.265-1.322.529-1.983.926z" fill="#5B99FB"/><path d="M248.683 167.956s-2.776 7.006-9.915 15.335c1.587-.661 5.817-3.437 8.858-4.495 3.173-1.19 8.857-1.851 11.766.926 1.454.396 2.776.925 4.362 1.586-.925-2.38-6.081-7.8-8.857-9.254-1.454-.793-3.966-2.512-6.214-4.098zm-27.233-4.231c-.132 1.983.397 3.966.926 5.817l-.926-5.817zm.529-.264c-.132.132-.264.132-.397.264 0 0 .133-.132.397-.264z" fill="#FFA8A7"/><path d="M238.77 183.291c12.426-4.627 16.789-4.627 20.623-3.57-3.041-2.776-8.725-2.115-11.766-.925-3.041 1.057-7.271 3.834-8.857 4.495z" fill="#F28F8F"/><path d="M225.549 161.216c-1.586.925-2.776 1.719-3.569 2.247-.132.133-.397.265-.529.265l.926 5.817 1.454 8.328 12.559 5.949a40.026 40.026 0 002.115-.529c.132 0 .132 0 .264-.132 7.007-8.328 9.915-15.335 9.915-15.335-.264-.264-2.511-2.115-3.966-3.305-3.172-2.38-6.213-5.288-10.179-6.213-2.644-.397-6.213 1.189-8.99 2.908z" fill="#37474F"/><path d="M166.456 212.375c-3.834 5.552-7.8 11.237-10.18 14.542-4.23 5.817-7.403 8.99-9.915 15.335.529-.925 1.322-1.851 2.248-2.908 4.23-5.156 11.766-9.386 15.996-12.163 3.305-2.115 5.685-4.23 7.271-5.949-3.834-1.983-5.288-8.064-5.42-8.857z" fill="#FFA8A7"/><path d="M171.877 221.367c-1.587 1.851-3.966 3.834-7.271 5.949-4.231 2.776-11.898 6.875-15.997 12.163 3.702-3.57 10.048-7.271 14.542-10.312 3.305-2.247 5.949-3.834 7.668-5.42.529-.529 1.322-1.322 1.851-1.983l-.793-.397z" fill="#F28F8F"/><path d="M189.326 183.16c-2.644 1.454-6.082 5.288-9.122 9.519-3.834 5.288-13.749 19.565-13.749 19.565v.132c.132.794 1.586 6.875 5.42 8.99l.793.397c.397-.397.661-.794.926-1.19.661-.926 1.454-1.983 2.379-3.437 1.19-1.851 3.438-5.421 4.363-7.271.925-1.851 1.586-3.305 2.115-4.099.397-.793 2.248-1.718 3.834-2.776 1.586-1.057 2.908-1.983 3.966-2.644.264-.264.529-.396.793-.529.397-.264.529-.264.529-.264s.264-.132.529-.397c.264-1.454.529-3.305.661-5.552.132-6.742-1.983-8.725-3.437-10.444zM218.014 202.594s-3.966 6.213-9.386 9.254c-1.058.661-2.248 1.057-3.305 1.454-1.719.397-3.041.397-4.098.264-.529.794-.926 1.322-1.19 1.587h-.132c-.265 0-.397-.265-.529-.661 0 .264 0 .396-.132.529 1.322.925 3.305 1.322 6.213.396 1.058-.396 2.115-.793 3.041-1.322 6.61-3.701 9.518-11.501 9.518-11.501zm-18.905 9.915c.133.264.265.661.397 1.057 0-.264 0-.528.132-.793-.264 0-.396-.132-.529-.264z" fill="#37474F"/><path d="M216.825 108.732c-1.851 1.057-3.966 2.776-5.949 5.023-1.587.529-3.437 1.19-5.553 2.512-2.908 1.719-6.345 4.23-10.443 8.461-1.058 1.057-2.116 2.379-3.173 3.701-1.587 2.116-3.173 4.363-4.495 6.875-.397.661-.661 1.322-.925 1.851-.529.925-.926 1.983-1.322 2.908-.529 1.322-1.058 2.644-1.455 3.966-1.454 5.024-1.85 10.047-.264 14.145 3.173 11.37 14.542 6.875 16.525 11.634l-1.322-9.122s-.925 1.851-2.776 2.909a4.57 4.57 0 01-2.38.661c-3.569 0-4.362-3.966-2.512-7.8a8.293 8.293 0 013.305-3.702c1.587-.925 3.305-.925 4.099.397 0 0 4.627-3.834 10.84-13.352 6.61-10.312 7.668-16.261 8.725-22.342 2.38-.265 5.817 2.644 7.8 12.427 3.173-4.76 4.627-9.387 4.891-13.088.397-8.197-5.684-12.691-13.616-8.064z" fill="#263238"/><path d="M214.577 152.093c-1.058 0-1.851-.926-1.586-2.512l5.42-1.983c-.265 1.586-1.322 3.305-2.644 4.098 0 0-.132 0-.132.132-.133 0-.265.132-.397.132h-.397-.132c0 .133 0 .133-.132.133.132 0 .132 0 0 0zm-4.23-7.404c-.661.397-1.19.133-1.455-.528-.132-.794.265-1.851 1.058-2.512.132-.132.132-.132.264-.132.661-.397 1.19-.133 1.455.528.132.794-.265 1.851-1.058 2.512 0 0-.132 0-.264.132zm7.535-.132l-1.586-8.196 5.684 3.569-4.098 4.627zm3.702-9.122c-.661.397-1.19.133-1.455-.528-.132-.794.265-1.851 1.058-2.512.132-.132.132-.132.264-.132.661-.397 1.19-.133 1.455.528.132.794-.265 1.851-1.058 2.512 0 0-.132 0-.264.132zm1.454-6.477l-3.041.132c.265-.793.926-1.587 1.454-1.983.265-.132.529-.265.794-.265.793 0 1.189.926.793 2.116zm-5.288-11.37c-1.19 6.082-2.115 12.031-8.725 22.342-6.082 9.519-10.841 13.352-10.841 13.352-.793-1.322-2.512-1.322-4.098-.396a8.29 8.29 0 00-3.305 3.701c-1.719 3.834-.925 7.932 2.512 7.8a4.56 4.56 0 002.379-.661c1.851-1.057 2.777-2.908 2.777-2.908l1.322 9.122.661 5.023.264 1.983s1.719 2.909 6.213 3.305c2.116.132 4.495-.661 6.743-1.983 3.701-2.115 6.742-5.552 6.345-7.403-.793-3.702-4.362-3.966-4.362-3.966v-.264l-1.058-7.536.264 2.248s-7.535 3.172-9.915 3.04c-2.511-.264-3.172-1.718-3.172-1.718 1.586 1.983 8.593-1.058 12.294-3.173.132-.132.265-.132.397-.265.396-.264.793-.528 1.19-.661 3.04-1.718 5.949-3.569 7.403-5.42 1.586-2.115 4.759-7.535 3.173-18.772a137.904 137.904 0 00-.794-4.363c-1.85-9.783-5.288-12.823-7.667-12.427z" fill="#FFA8A7"/><path d="M210.347 141.517c-.132 0-.132.133-.264.133-.794.661-1.19 1.718-1.058 2.511.132.661.793.794 1.454.529.132 0 .132-.132.265-.132.793-.661 1.189-1.719 1.057-2.512-.264-.793-.793-.925-1.454-.529z" fill="#263238"/><path d="M212.991 149.58c-.265 1.586.528 2.512 1.586 2.512-.661 0-1.19-.397-1.454-.926.396-.396.661-.793 1.19-1.057 1.189-.661 2.115-.265 2.379.925-.264.265-.529.529-.793.661h-.132s.132 0 .132-.132c1.322-.793 2.38-2.512 2.644-4.098l-5.552 2.115z" fill="#B16668"/><path d="M214.313 150.111c-.397.264-.793.528-1.19 1.057.264.661.793.926 1.454.926h.793c.133 0 .265-.133.397-.133h.132c.265-.132.529-.396.793-.661-.264-1.454-1.189-1.85-2.379-1.189z" fill="#F28F8F"/><path d="M221.45 127.108c-.661.397-1.19 1.058-1.454 1.983l3.041-.132c.396-1.19 0-2.115-.926-2.115-.132 0-.396.132-.661.264zM221.583 132.263c-.132 0-.132.133-.264.133-.793.661-1.19 1.718-1.058 2.511.133.661.794.926 1.455.529.132 0 .132-.132.264-.132.793-.661 1.19-1.719 1.058-2.512-.265-.793-.794-.925-1.455-.529z" fill="#263238"/><path d="M216.295 136.359l1.586 8.197 4.098-4.627-5.684-3.57zM201.885 162.667s.661 1.586 3.173 1.719c2.511.264 9.915-3.041 9.915-3.041l-.265-2.247c-.132.132-.264.132-.396.264-3.834 2.38-10.973 5.288-12.427 3.305z" fill="#F28F8F"/><path d="M207.306 200.345c0 .132 0 .132 0 0 0 .132 0 .132 0 0zm0-.133c0 .133 0 .133 0 0 0 .133 0 .133 0 0zm0-.132c0 .132 0 .132 0 0 0 .132 0 .132 0 0zm.132-.793c0 .132 0 .132 0 0 0 .132 0 .132 0 0zm0-.264s0 .132 0 0c0 .132 0 0 0 0zm-.132-.397c0 .132 0 .132 0 0 0 .132 0 .132 0 0zm-7.007 3.834s-.925.396-.529-1.322c.397-1.719.529-3.305.926-3.966.396-.661 2.776-3.437 3.173-3.834 0 0 .132-.132.264-.132l3.966-1.983c-.264.132-.397.264-.661.396-1.454.794-3.041 1.851-3.569 2.248-.661.529-2.777 3.437-3.173 3.834-.397.528-.529 2.247-.793 3.437-.133 1.057-.133 1.322.396 1.322zm-1.057 1.586s-.397.132-.794-.661c-.396-.793-.396-2.644-.528-3.305-.133-.661 0-.793.528-2.115.529-1.322 1.851-3.834 2.38-4.891.397-.661.661-1.058 1.058-1.322.132-.133.264-.133.528-.265-.132 0-.132.132-.264.132-.529.397-.793.926-1.322 1.851-.529 1.058-2.38 4.892-2.512 5.42-.132.529 0 1.322 0 1.983.132.794.265 2.512.926 3.173zm1.189-11.766c-.132.133-.264.133-.264.133-.925.661-1.719 3.305-2.644 5.552-.529 1.19-.793 1.851-.925 2.644.396.264.661.397.661.793.132.529.132 1.587.132 2.248 0 .396.132 1.189.264 1.718a.41.41 0 00.265.132h.132c.529-.264 1.057-1.454 1.057-1.454.133 0 .265-.132.265-.132.793-.397.793-1.454.793-1.454.793-.529 2.247-4.098 2.247-4.098l1.455-1.19c.396-.132.793-.132 1.322 0-.265 0-.529-.132-.794-.132-.132 0-.396 0-.528.132l-1.455 1.19s.133-.661 0-1.322c0 0 .265.264.926-.133a.284.284 0 00.264-.264c1.058-.661 1.719-1.586 1.851-2.512 0 0 0 1.058.661 1.058.264 0 .529-.132.925-.397a9.672 9.672 0 001.719-1.322s0 .926-1.322 1.983c0 0 .529.529 1.322 0 .529-.396 1.454-1.322 2.247-1.718.397-.265.794-.397 1.19-.265 1.058.397 2.512 1.587 3.834 1.851s2.644.397 4.23-.132h-.132c-1.851 1.057-4.362 1.454-6.213.793-1.454-.529-2.38-.397-2.909-.132-.132.132-.396.264-.528.396-.926.926-1.587 3.834-5.024 7.007-1.322 1.851-3.173 3.569-4.495 5.42-.925 1.322-1.454 2.776-1.718 3.966 0 .265-.133.529-.133.793 0 .265.133.661 0 .926.133.396.265.661.529.661h.132c.265-.132.661-.661 1.19-1.587.397-.661.926-1.322 1.454-2.247 1.19-1.719 3.305-3.966 5.024-5.42 1.719-1.587 3.305-2.644 4.759-3.437.793-.397 1.587-.794 2.248-1.19a30.303 30.303 0 002.115-1.19c.396-.264.793-.397 1.19-.661.793-.529 1.454-.925 2.115-1.454 1.057-.793 2.115-3.305 2.379-4.495.133-.529.133-.793.265-.793s.132.396.132 1.19c0 1.189.264 2.247.793 2.511 1.851-.396 4.495-.528 8.725-.132.397 0 .661.132 1.058.132 4.627.529 8.461 1.058 12.295.397 5.42-.925 10.047-3.569 13.22-5.156.132-.132.264-.132.396-.264 4.892-2.776 5.288-7.8 4.363-10.047-1.587-.529-2.909-1.19-4.363-1.587-3.834-1.19-8.196-1.057-20.623 3.57-.132 0-.132 0-.264.132 0 0-.926.264-2.116.529-2.908.661-7.667 1.718-8.46 1.586-1.19-.264-3.57 1.058-5.288 1.322-1.719.264-8.065 1.454-9.651 1.19-1.586-.265-2.38-.661-5.156.793-2.379 1.322-5.817 2.908-7.139 3.569z" fill="#FFA8A7"/><path d="M205.72 194.263c0 .925-.793 1.718-1.851 2.511-.132.133-.264.133-.264.265-.793.396-.925.132-.925.132.132.661 0 1.322 0 1.322l1.454-1.19c.132 0 .396-.132.529-.132.264 0 .528 0 .793.132.661.132 1.322.661 1.718 1.322v.793c-.264.926-.925 1.851-1.586 2.909 3.569-3.173 4.23-6.081 5.024-7.007.132-.132.264-.264.528-.396.661-.397 1.455-.397 2.909.132 1.851.661 4.362.264 6.213-.793h.132c-1.586.528-2.776.528-4.23.132-1.322-.265-2.776-1.454-3.834-1.851-.396-.132-.793 0-1.19.264-.793.529-1.718 1.455-2.247 1.719-.793.529-1.322 0-1.322 0 1.322-1.058 1.322-1.983 1.322-1.983-.397.397-1.058 1.058-1.719 1.322-.396.264-.661.397-.925.397-.529.925-.529 0-.529 0z" fill="#F28F8F"/><path d="M204.266 193.076c-.132.132-.264.132-.264.132-.397.397-2.777 3.173-3.173 3.834-.397.661-.529 2.248-.926 3.966-.396 1.719.529 1.322.529 1.322-.396-.132-.529-.264-.264-1.454.264-1.19.529-3.041.793-3.437.397-.529 2.512-3.437 3.173-3.834.529-.397 2.115-1.454 3.569-2.247.265-.133.397-.265.661-.397-.132.132-3.173 1.586-4.098 2.115z" fill="#F28F8F"/><path d="M202.018 191.753c-.397.264-.661.661-1.058 1.322-.529.925-1.851 3.569-2.38 4.891-.528 1.322-.661 1.454-.528 2.115.132.661.132 2.512.528 3.305.397.793.794.661.794.661-.794-.661-.794-2.379-.794-3.173 0-.793-.132-1.454 0-1.983.133-.528 1.851-4.362 2.512-5.42.529-.925.793-1.586 1.322-1.851.132 0 .132-.132.265-.132-.397.132-.529.132-.661.265zM222.773 192.547s-.132.264-.265.793c-.264 1.19-1.322 3.702-2.379 4.495.264-.132.397-.265.661-.397.793-.396 1.718-.793 2.908-1.057-.529-.265-.793-1.322-.793-2.512 0-.926 0-1.322-.132-1.322z" fill="#F28F8F"/><path d="M188.534 212.244s.132 0 0 0zm-.133-.397s0 .132.133.132c-.133 0-.133 0-.133-.132zm7.139-5.42c.397-.661.529-.925 0-1.322s-1.322-1.058-1.718-1.322c-.397-.264-.926-.265-1.851-.265-.926 0-1.322-.132-2.248.265 0 0 .133 0 .265-.132.264-.132.925-.529 1.322-.529h2.512c.396 0 1.322.925 1.586 1.19.264.264.793.661.661.925s-.529 1.19-.529 1.19zm1.058-.132l.396-.397c.529-.661.397-.793.133-1.454-.265-.529-.529-1.454-.794-2.115-.132-.661-.264-1.19-.925-1.322-1.19-.265-3.702-1.19-4.098-1.455 0 0 2.644.661 3.04.661.794.133 1.851.265 1.983.794.133.529.661 2.379.794 2.644.264.661.528 1.19.396 1.454s-.396.925-.925 1.19c-.265.132-.661.264-1.058.132h-.264.264c.397.132.793 0 1.058-.132zm-3.834-7.536c-.264.133-.529.397-.793.529-.265.264-.529.397-.529.397s-.132 0-.529.264c-.132.132-.396.265-.793.529-.925.661-2.38 1.586-3.966 2.644-1.586 1.058-3.437 1.983-3.834 2.776-.396.793-1.057 2.248-2.115 4.098-.925 1.851-3.173 5.42-4.363 7.271-.925 1.454-1.718 2.512-2.379 3.437-.265.397-.529.794-.926 1.19-.661.793-1.322 1.454-1.85 1.983-1.719 1.587-4.363 3.173-7.668 5.42-4.495 3.041-10.84 6.743-14.542 10.312-1.058.926-1.851 1.983-2.247 2.908-2.512 6.346-3.305 10.576-1.587 11.634 1.322.793 3.57-.661 6.875-2.38.264-.132.528-.264.925-.528 3.305-1.851 8.461-5.685 12.162-10.18 4.231-5.156 7.139-8.593 10.18-11.237 0 0 .529-.661.529-1.454.132-.661-.529-1.19-.265-1.454h.265c.661 0 1.454.793 2.908.132.132 0 .132-.132.264-.132 4.627-3.173 6.61-5.553 9.254-7.271.529-.264.926-.661 1.455-.926.661-.396 1.322-.793 1.85-1.189 1.851-1.058 3.57-1.851 4.892-1.851 2.115 0 2.247.396 2.776.396h.132c.132-.132.265-.264.397-.661 0-.132.132-.396.132-.528v-.926c-.132-.396-.132-.793-.397-1.057 0-.133-.132-.133-.132-.133-.793-1.189-3.173-.793-5.817.133-.528.132-.925.264-1.454.396-1.983.926-3.173 0-5.023 1.058h-.133c-1.85 1.058-3.04 2.512-4.891 6.345-1.851 3.702-3.702 5.156-3.702 5.156 1.983-2.247 2.116-4.23 2.644-6.478.529-2.247.926-4.23 2.512-5.816 1.719-1.587 2.909-3.041 2.909-3.041-1.455.529-1.851-.264-1.851-.264s1.322 0 2.379-.661c.133 0 .133-.133.265-.133.925-.661 1.454-1.322 1.586-1.586v-.132s.793-.265 1.454-.529c.926-.397 2.116-1.058 2.116-1.058s1.057.794 1.718 1.058c.397.132.793 0 1.058-.132l.396-.397s.661.794 1.455.397c.132 0 .132-.132.264-.132.661-.397.793-.794.793-.794s0-.264-.132-.528c-.132-.529-.264-1.322-.264-1.719-.133-.661-.133-1.851-.133-2.247 0-.265-.264-.529-.661-.794-.264-.132-.661-.396-1.057-.661-1.19-.661-1.851-1.718-2.38-1.454.132-.132 0-.132-.132 0z" fill="#FFA8A7"/><path d="M184.436 209.996s.397.793 1.851.265c0 0-1.19 1.454-2.909 3.04-1.718 1.587-1.983 3.57-2.511 5.817-.529 2.247-.794 4.23-2.644 6.478 0 0 1.983-1.454 3.701-5.156 1.851-3.702 3.041-5.156 4.892-6.346h.132c1.851-1.057 3.04-.132 5.023-1.057-1.322.264-2.379.132-3.04-.529v-.132s0-.132-.132-.132v-.133-.132c-.133-.396-.133-.793-.133-1.19 0-1.189.265-2.379.397-2.776-.132.265-.529.926-1.586 1.587-.133 0-.133.132-.265.132-1.454.264-2.776.264-2.776.264zm4.23-2.512s0 .133 0 0c0 .133 0 0 0 0zM190.12 203.783c-.132.132-.265.132-.265.132.926-.396 1.322-.264 2.248-.264.925 0 1.454 0 1.851.264.396.265 1.189.926 1.718 1.322.529.397.397.661 0 1.322 0 0 .661-.661.661-.925 0-.265-.396-.661-.661-.926-.264-.264-1.19-1.189-1.586-1.189h-2.512c-.529-.265-1.19.132-1.454.264z" fill="#F28F8F"/><path d="M195.54 206.426h.264c-.132.132-.132.132-.264 0zm-4.099-6.742c.397.264 2.909 1.057 4.099 1.454.661.132.661.793.925 1.322.132.661.397 1.454.793 2.115.265.529.397.793-.132 1.454l-.397.397c-.264.132-.661.264-.793.264.397.132.793 0 1.058-.132.529-.264.793-.925.925-1.19.132-.264-.132-.793-.396-1.454-.133-.264-.661-2.115-.794-2.644-.132-.529-1.189-.661-1.983-.793-.661-.132-3.305-.793-3.305-.793zM175.18 226.785c-.264.132.265.793.265 1.454-.132.661-.529 1.455-.529 1.455 1.058-1.058 2.247-1.851 3.569-2.777-1.454.794-2.247-.132-2.908-.132h-.397z" fill="#F28F8F"/><path d="M190.515 253.885l-56.713 32.786c-2.909 1.718-5.288 5.684-5.288 8.989v.132c0 3.305 2.511 4.495 5.42 2.777l56.714-32.786c2.908-1.719 5.288-5.685 5.288-8.99v-.132c-.133-3.305-2.512-4.495-5.421-2.776z" fill="#5B99FB"/><path d="M271.291 207.221l-56.714 32.653c-2.908 1.719-5.288 5.685-5.288 8.99v.132c0 3.305 2.512 4.495 5.42 2.776l56.714-32.653c2.908-1.719 5.288-5.685 5.288-8.99v-.132c-.132-3.305-2.512-4.495-5.42-2.776zM273.009 226.255L132.48 307.426c-1.851 1.058-3.437 3.702-3.437 5.817v.132c0 2.115 1.586 2.909 3.437 1.719l140.529-81.171c1.851-1.058 3.437-3.702 3.437-5.685v-.132c0-2.115-1.586-2.908-3.437-1.851zM273.274 241.857l-140.528 81.171c-1.851 1.057-3.437 3.701-3.437 5.817v.132c0 2.115 1.586 2.908 3.437 1.851l140.528-81.171c1.851-1.058 3.438-3.702 3.438-5.817v-.132c0-2.115-1.587-2.909-3.438-1.851z" fill="#BDD2FC"/><path d="M237.314 355.549c-.793.397-1.322.397-1.586-.397l3.173-1.85c-.397 1.057-.794 1.718-1.587 2.247zm-4.098-.264c-.529.264-.793.264-.793.264v-.264c0-.265.132-.661.661-1.455.132-.132.132-.264.132-.264.529-.925.793-1.454.793-2.115v-1.19c0-2.38 1.322-4.891 3.305-5.949 1.851-1.058 3.305-.132 3.305 2.115v1.19c0 .661.265.925.793 1.19 0 0 .133 0 .133.132.528.264.661.397.661.661v.264c-.133.265-.265.397-.794.794l-8.196 4.627zm3.966-12.163c-2.644 1.454-4.363 4.892-4.363 7.932v1.19c0 .132-.132.397-.396 1.058 0 .132-.132.132-.132.264-.661 1.19-.926 1.719-.926 2.512 0 .264 0 .529.132.793.265.529.926.529 1.851-.132l1.19-.661c.397 1.454 1.454 1.718 2.776.925 1.454-.793 2.38-2.247 2.776-4.098l1.19-.661c.926-.529 1.587-1.19 1.851-1.983.132-.397.132-.661.132-.925 0-.661-.264-1.058-1.057-1.322-.133 0-.133-.133-.133-.133-.396-.132-.528-.396-.528-.528v-1.19c.132-3.305-1.851-4.627-4.363-3.041zM168.968 391.77c-1.983 1.19-3.701.264-3.701-1.983s1.586-5.024 3.701-6.213c1.983-1.19 3.702-.265 3.702 1.983 0 2.247-1.719 5.023-3.702 6.213zm-.132-9.651c-2.776 1.587-5.024 5.421-5.024 8.593 0 3.041 2.38 4.231 5.156 2.644 1.19-.661 2.248-1.718 3.041-2.908l3.702 1.851c.132.132.264 0 .528 0 .133-.132.397-.265.529-.529.265-.397.265-.925 0-1.058l-3.701-1.85c.661-1.322 1.057-2.644 1.057-3.966-.132-3.305-2.512-4.495-5.288-2.777zM134.464 415.171c-.925.529-1.322.661-1.719.661a.728.728 0 01-.661-.397c-.264-.264-.264-.661-.264-1.718v-4.363l10.047-5.816v4.362c0 1.058 0 1.454-.264 1.983-.132.397-.397.793-.661 1.19-.397.396-.793.661-1.719 1.322l-4.759 2.776zm-2.644-6.874c0-.794.132-1.19.264-1.587.133-.396.397-.793.661-1.189.397-.397.661-.662 1.719-1.19l4.759-2.776c.926-.529 1.322-.661 1.719-.661.264 0 .529.132.661.396s.264.529.264 1.322l-10.047 5.685zm7.271-8.064l-4.759 2.776c-1.058.661-1.587 1.057-2.248 1.718-.528.529-.925 1.322-1.189 1.983-.265.793-.397 1.454-.397 2.644v5.288c0 1.19.132 1.719.397 2.248.264.396.661.661 1.189.661.529 0 1.058-.133 2.248-.794l4.759-2.776c1.058-.661 1.586-1.057 2.247-1.718.529-.529.926-1.322 1.19-1.983.265-.794.397-1.455.397-2.644v-5.288c0-1.19-.132-1.719-.397-2.248-.264-.396-.661-.661-1.19-.661-.528-.132-1.057.133-2.247.794zM198.713 377.626c.528-1.454.793-2.512.793-3.173 0-.132 0-.264-.132-.397-.529-.528-.926-1.322-.926-2.379 0-2.776 2.248-6.478 5.156-8.064 2.908-1.719 5.288-.661 5.288 2.115 0 2.776-2.247 6.478-5.156 8.064a6.218 6.218 0 01-1.983.793s-.132 0-.132.132c-.132.133-.264.265-.397.529-.528.793-1.322 1.587-2.511 2.38zm5.023-15.203c-3.569 1.983-6.345 6.478-6.345 10.047 0 1.19.396 2.247 1.057 2.776a71.582 71.582 0 01-.793 2.776c-.264.661 0 1.19.397 1.19.132 0 .264 0 .396-.132 1.454-.925 2.644-1.983 3.305-3.173.661-.132 1.322-.396 2.115-.793 3.57-1.983 6.346-6.478 6.346-10.047-.132-3.57-3.041-4.759-6.478-2.644zM273.009 334.528l-8.99 5.156c-.396.264-.793.793-.793 1.322 0 .396.397.661.793.396l8.99-5.156c.396-.264.793-.793.793-1.322 0-.396-.397-.661-.793-.396zm4.495-8.064l-13.485 7.799c-.396.265-.793.794-.793 1.19 0 .397.397.661.793.397l13.485-7.8c.396-.264.793-.793.793-1.19-.132-.529-.397-.661-.793-.396zm-.133-5.553l-13.484 7.8c-.397.264-.793.793-.793 1.19 0 .396.396.661.793.396l13.484-7.799c.397-.265.794-.794.794-1.19 0-.397-.397-.661-.794-.397z" fill="#5B99FB"/><path d="M221.186 163.859c.132 0 .132-.132.265-.132.396 2.644.925 5.42 1.322 8.064-.133-.132-.529-.397-.794-.793-1.586-1.851-1.454-3.966-1.322-5.421 0-.793.133-1.454.529-1.718z" fill="#455A64"/><path d="M446.587 415.7c-4.76 2.512-12.956 2.38-18.641-.661l-6.081-52.483 25.118-1.454-.396 54.598z" fill="#FFA8A7"/><path d="M449.627 411.602c1.19 2.776 1.454 5.288 1.19 7.535s-1.719 5.156-1.19 10.312c.397 5.155 1.587 6.742 1.983 10.443.397 3.702.132 8.461-2.115 11.898-2.247 3.305-6.213 6.61-15.467 6.082-10.444-.661-12.163-6.346-12.163-10.709l27.762-35.561z" fill="#263238"/><path d="M447.38 404.464c.397.132.793.396 1.058.793.793 1.057.528 2.512.661 3.701.132.397.132.926.264 1.322.529 3.438-.264 7.007-.397 10.444-.132 4.098.926 8.197 1.719 12.295 1.454 7.271 1.322 11.898-5.156 16.657-3.437 2.512-7.271 3.569-11.501 3.569-3.173 0-8.064-1.586-9.651-3.305-2.115-2.247-2.908-4.759-2.908-5.42 0-7.667 3.305-16.26 4.23-24.06.397-3.834.529-8.064.793-11.898 0-.265 0-.661.265-.793.132-.133.396-.265.661-.397 5.023-1.719 11.501-.793 16.789.264.397.133.926.265 1.19.661.132.133.132.397.132.529 0 1.058.132 2.115.265 3.041 0 .264.132.529.396.529.265 0 .661-2.116.661-2.38v-5.817c-.132.265.265.132.529.265z" fill="#37474F"/><path d="M421.469 444.519c0-1.851.132-3.041.793-4.363 3.569-7.006 23.796-5.816 29.216 1.587-.132 4.495-.661 7.006-4.495 10.047-3.172 2.512-9.518 3.305-13.616 2.908-3.834-.396-7.139-1.983-8.858-3.701-1.983-1.983-2.908-3.57-3.04-6.478z" fill="#455A64"/><path d="M395.028 407.108c-3.966 8.593-13.881 6.477-21.945 1.057l-2.776-57.11 27.629 6.213-2.908 49.84z" fill="#FFA8A7"/><path d="M338.447 429.052c-.528 1.057-.396 3.172.265 4.494.661 1.322 7.403 5.156 16.657 4.495 9.254-.661 15.6-4.362 19.037-6.61 3.569-2.379 9.915-3.305 14.41-3.569 4.627-.265 10.576-2.512 11.501-4.627 1.058-2.115-.132-5.817-.132-5.817l-61.738 11.634z" fill="#263238"/><path d="M370.439 404.463c-1.983 3.966-6.61 5.949-10.312 7.932-1.586.925-3.437 1.719-5.156 2.512-2.247 1.057-4.627 1.454-6.874 2.379-2.512.926-5.156 2.116-7.271 3.57-3.569 2.379-4.098 8.593 0 10.972 3.569 2.116 12.956 4.363 22.738 1.587 5.288-1.454 14.014-7.668 21.02-8.329 4.495-.396 12.956-1.586 15.732-5.023.925-4.892-.397-6.214-1.454-10.312-.529-1.983-.529-3.966-1.058-5.949-.132-.661-.264-1.19-.793-1.586-.793-.529-1.586-.661-1.586-.661l-.133 2.379s-.264 1.058-2.776 2.512c-1.586.925-3.04 2.247-3.966 3.966-.264.529-.529.925-.925 1.322-.397.397-1.058.397-1.454.132-.397-.396-.397-1.057-.265-1.586.132-1.19.265-2.512.265-3.834 0-.264 0-.397-.133-.661l-.396-.397c-2.909-2.115-9.122-2.247-12.691-2.644-.397 0-.926-.132-1.322.133-.397.264-.661.793-.794 1.189-.264.133-.264.265-.396.397z" fill="#37474F"/><path d="M398.2 406.844c.133 1.057.397 1.983.661 3.04 1.19 4.099 2.38 5.421 1.455 10.312-2.248 2.644-7.668 3.966-12.163 4.627-1.454-8.461 3.834-14.674 10.047-17.979zM340.694 420.592c1.851-1.322 4.363-1.983 6.478-2.908 11.369 1.189 15.203 11.369 14.542 16.128-8.989 2.512-17.582.132-21.02-1.851-4.098-2.247-3.701-8.857 0-11.369zM441.564 188.052c1.057 33.315 3.04 56.582 2.908 117.79 0 0 2.776 16.129 3.173 33.447.396 15.335-.265 55.392-.265 55.392s-12.03 4.23-22.738 0c0 0-10.312-58.829-13.617-80.246-2.908-18.772-6.742-50.764-6.742-50.764l-3.437 43.758s3.041 14.806 1.851 31.463c-.661 10.048-5.685 53.806-5.685 53.806s-12.955 4.23-25.118-2.248c0 0-4.759-75.089-5.023-84.211-.265-10.444 3.04-127.177 3.04-127.177l71.653 8.99z" fill="#455A64"/><path d="M404.152 263.804l-3.966-35.562s-13.088-1.586-20.624-9.254c0 0 0 7.668 15.864 13.617l5.553 28.687-.265 46.27 3.438-43.758z" fill="#37474F"/><path d="M390.005 102.386c-7.535-.132-16.128 1.586-20.226 7.535-5.421 8.065-15.336 39.66-18.112 55.26-.793 4.23 19.434 12.559 19.434 12.559l10.444-28.423 8.46-46.931z" fill="#E0E0E0"/><path d="M374.142 127.771c1.454-10.708 2.908-24.986 19.433-25.647l21.549-1.058c5.288 1.322 33.05 10.841 33.05 10.841l-7.139 41.246s.132 36.487-.264 54.334c-15.335 9.651-53.012 7.139-69.141-2.644-.661-14.542 1.058-66.496 2.512-77.072z" fill="#FAFAFA"/><path d="M381.017 211.978v5.156s-5.685 0-11.898-5.156l-.133-6.345 12.031 6.345z" fill="#37474F"/><path d="M370.44 140.857c.529-13.485 2.776-25.25 7.8-31.596 5.023-6.346 8.064-8.196 20.094-7.932v1.322c-1.454.132-3.834 1.983-4.891 3.702-2.115 3.305-4.098 8.857-6.61 18.508-3.437 13.087-5.42 42.568-5.685 58.432-.132 15.864 0 28.555 0 28.555s-9.518-2.38-12.03-6.346c-2.247-5.949.132-7.271.132-11.104-.264-17.715.793-43.626 1.19-53.541z" fill="#BA68C8"/><path d="M370.44 140.857c.529-13.485 2.776-25.25 7.8-31.596 5.023-6.346 8.064-8.196 20.094-7.932v1.322c-1.454.132-3.834 1.983-4.891 3.702-2.115 3.305-4.098 8.857-6.61 18.508-3.437 13.087-5.42 42.568-5.685 58.432-.132 15.864 0 28.555 0 28.555s-9.518-2.38-12.03-6.346c-2.247-5.949.132-7.271.132-11.104-.264-17.715.793-43.626 1.19-53.541z" fill="#5B99FB"/><path d="M442.621 208.543s.661 4.627.397 6.213c-.265 1.455-1.719 2.38-7.668 4.363-6.61 2.115-19.566 3.173-24.986 1.19l-.661-6.214 32.918-5.552z" fill="#37474F"/><path d="M413.273 124.464c1.719-7.271 6.478-15.071 6.61-22.077l28.159 9.386c5.552 2.512 7.139 5.42 6.61 11.501l-10.312 42.04s-2.247 26.308-2.247 30.538c-.132 4.231 3.437 6.742 1.058 12.03-9.122 9.783-33.579 6.214-33.579 6.214s-.397-15.071.396-51.558c.529-20.623 1.19-28.952 3.305-38.074z" fill="#BA68C8"/><path d="M413.273 124.464c1.719-7.271 6.478-15.071 6.61-22.077l28.159 9.386c5.552 2.512 7.139 5.42 6.61 11.501l-10.312 42.04s-2.247 26.308-2.247 30.538c-.132 4.231 3.437 6.742 1.058 12.03-9.122 9.783-33.579 6.214-33.579 6.214s-.397-15.071.396-51.558c.529-20.623 1.19-28.952 3.305-38.074z" fill="#5B99FB"/><path d="M339.768 151.962l1.587-1.454c.396-.265.925-.397 1.718-.265l17.847 4.363c1.587.396 3.437 1.983 4.098 3.569l13.617 36.487c.264.794.264 1.455-.132 1.851l-1.587 1.454c-.396.265-.925.397-1.718.265l-17.847-4.363c-1.587-.396-3.437-1.983-4.098-3.569-2.644-7.139-10.841-29.349-13.617-36.487-.397-.794-.264-1.587.132-1.851z" fill="#455A64"/><path d="M361.186 157.119c.925.661 1.718 1.718 2.115 2.644l13.616 36.487c.265.793.265 1.454-.132 1.851l1.587-1.454c.396-.397.528-1.058.264-1.851l-13.749-36.487c-.264-.926-1.057-1.851-1.983-2.512l-1.718 1.322z" fill="#263238"/><path d="M376.918 196.249l-13.617-36.487c-.529-1.587-2.38-3.173-4.098-3.57l-17.847-4.362c-1.587-.397-2.512.529-1.851 2.115 2.644 7.139 10.84 29.348 13.616 36.487.529 1.587 2.38 3.173 4.099 3.57l17.847 4.362c1.586.397 2.379-.529 1.851-2.115z" fill="#37474F"/><path d="M344 165.71c-3.173-.661-4.759 2.776-4.098 8.461.661 5.684 4.759 16.128 13.484 12.823 3.305-1.322 5.42-7.139 1.587-9.518-6.61-3.966-8.858-6.082-8.858-6.082L344 165.71z" fill="#F28F8F"/><path d="M447.909 192.414c2.644-9.783 9.386-27.101 12.295-46.138 3.701-24.06-4.098-29.481-16.129-35.694-11.765 12.03-11.765 37.941-11.765 37.941s-5.817 29.349-6.875 34.901c-10.047-.529-38.47-5.684-41.907-7.139-1.719-.793-3.834-3.305-5.024-4.759-1.586-1.851-2.908-2.908-4.759-3.701-2.38-1.058-4.23-1.587-5.949-2.38l2.776 7.668c-.132.528-1.19.661-1.586.793-3.305 1.322-7.007 2.115-10.576 2.115-7.668 0-15.071-5.024-13.088 1.586.793 2.644 2.247 7.536 6.478 10.709 4.23 3.04 19.037 3.569 23.399 5.155 0 0 37.016 12.956 51.558 14.278 16.393 1.322 16.79.132 21.152-15.335z" fill="#FFA8A7"/><path d="M442.225 109.789c7.536 2.247 13.485 4.363 17.318 11.369 3.966 7.139 3.305 14.278 1.19 27.366-2.115 13.087-10.444 40.056-13.616 49.442-2.38 6.875-3.834 12.163-17.847 10.444-14.014-1.586-37.942-8.989-37.942-8.989l2.909-20.624 30.141 3.702s5.156-29.084 6.478-36.355c1.322-7.139 0-20.491 11.369-36.355z" fill="#EBEBEB"/><path d="M424.377 182.633c7.668 3.437 8.593 10.576 8.593 10.576s2.38-8.858-8.064-14.014l-.529 3.438z" fill="#E0E0E0"/><path d="M423.584 47.655c2.644-1.454 6.346-2.115 9.254-1.058 1.587.661 3.041 1.851 3.437 3.57.265 1.322-.132 2.644 0 3.966.133 1.718 1.058 3.172 1.851 4.627.793 1.454 1.322 3.305.661 4.891-.529 1.19-1.586 1.586-1.718 2.908-.133 1.587.528 3.173.661 4.627.396 3.041-1.058 6.214-3.702 7.932-1.058.794-2.38 1.19-3.437 1.851-1.587.926-1.983 2.115-2.644 3.702-1.322 3.305-4.627 5.684-8.064 6.478l.264-10.312.397-7.139s-4.495-6.345-5.024-11.501c-.661-6.61.793-9.386.793-9.386 2.38-1.322 4.627-3.702 7.271-5.156z" fill="#37474F"/><path d="M397.673 78.326c10.587 0 19.169-8.582 19.169-19.169 0-10.586-8.582-19.169-19.169-19.169s-19.169 8.583-19.169 19.17c0 10.586 8.582 19.168 19.169 19.168z" fill="#37474F"/><path d="M429.005 84.012c-4.231 1.586-6.478-1.19-6.478-1.19l-.793 21.945s-2.512 5.156-7.668 7.404c-5.288 2.247-12.03 3.305-16.393 1.718-4.362-1.718-6.742-5.156-.396-10.576l.264-6.478s-4.627.397-7.403-.132c-4.759-.793-7.668-4.495-8.99-9.65-2.247-8.197-1.586-20.491 1.719-36.488 5.288-4.098 22.606-4.627 33.711 2.512-.661 9.386.793 12.691 1.19 14.013.264 1.455 2.115 5.156 3.305 5.288 2.247.397 2.644-2.115 4.098-3.569 1.454-1.454 7.006-2.38 9.254 2.644 2.115 5.288-2.115 11.37-5.42 12.559z" fill="#FFA8A7"/><path d="M397.54 96.835c7.536-.661 16.922-4.098 19.302-7.536 2.379-3.437 3.305-6.213 3.305-6.213s-.265 5.949-2.116 8.99c-1.85 3.04-8.857 8.064-20.623 8.725l.132-3.966z" fill="#F28F8F"/><path d="M410.895 139.669c1.983-7.668 4.494-20.756 7.271-19.566 3.966 1.719 5.552 3.437 7.006 1.058 1.058-1.719 1.983-4.231 3.834-9.254 1.454-3.966 1.983-6.214 1.983-6.214s-2.644-3.569-4.759-5.552c-2.115-1.983-2.512-2.38-4.231-2.512l-.132 3.173s-1.19 2.512-6.081 5.817c-4.891 3.172-3.966 13.484-4.891 33.05zM384.983 133.454c-.133-11.37 1.85-19.302-.794-18.508-2.644.793-3.569.925-3.701-.529-.132-1.454 3.569-8.064 6.081-10.708 4.891-5.42 9.122-5.288 10.84-5.553l-.132 5.288s-2.115 2.115-3.437 5.42c-.925 2.248-6.213 14.146-8.857 24.59z" fill="#3680EA"/><path d="M379.826 37.873c3.173-4.098 7.139-6.874 9.519-8.064 15.864-7.535 48.517 15.732 46.402 20.756-.529 1.322-3.834 1.983-15.071-.265-.264 1.85-1.719 3.57-3.437 3.966-1.851.529-3.834-.132-5.024-1.718-.925 1.85-2.776 2.908-4.759 3.172-2.38.265-4.891-.925-6.213-2.908.132 1.983-1.719 3.437-3.57 4.098-1.19.397-2.512.661-3.701.529-1.19-.132-2.248-.793-3.438-1.058-1.057-.264-2.247 0-3.305 0-1.85.133-3.966-.264-5.155-1.85-.794-1.19-1.058-2.777-2.248-3.57-.529-.396-1.322-.529-1.851-.793 0 0-1.189-.793-1.85-2.512-1.19-3.437 3.172-9.122 3.701-9.783z" fill="#37474F"/><path d="M400.316 69.865c0 1.19.926 2.248 2.116 2.248a2.088 2.088 0 002.115-2.116c0-1.19-.926-2.247-2.115-2.247-1.19 0-2.116.925-2.116 2.115zM402.432 60.214l4.759 2.115c.529-1.322-.132-2.908-1.322-3.437-1.454-.66-2.909 0-3.437 1.322zM383.66 61.934l5.023-1.322c-.264-1.455-1.718-2.248-3.04-1.983-1.454.396-2.248 1.85-1.983 3.305zM383.395 69.338c0 1.19.925 2.247 2.115 2.247 1.19 0 2.115-.925 2.115-2.115 0-1.19-.925-2.247-2.115-2.247-1.19 0-2.115.925-2.115 2.115z" fill="#263238"/><path d="M412.611 62.066l16.261 5.817s-2.512-.396-4.627 2.115l-11.501-4.362-.133-3.57z" fill="#455A64"/><path d="M374.009 63.255c.132.926.661 1.851 1.058 2.248l.396.793c.397 1.586.661 4.495 1.455 6.213.793 1.719 2.247 4.363 6.61 4.363.793 0 1.586 0 2.247-.132h.132c.661-.132 1.322-.397 1.851-.661 0 0 .132 0 .132-.132 0 0 .132 0 .132-.133 0 0 .133 0 .133-.132l.132-.132c.132 0 .132-.132.264-.132l.132-.133.397-.396c.661-.661 1.058-1.587 1.454-2.38.926-2.115.661-5.156 2.248-5.552h.396c2.115 0 1.851 3.305 3.173 5.684 1.19 2.38 3.173 4.627 7.8 4.76h1.19c.396 0 .793-.132 1.057-.132.132 0 .265 0 .397-.133.132 0 .264 0 .396-.132.133 0 .133 0 .265-.132.529-.132.925-.397 1.322-.529.132-.132.264-.132.396-.264.265-.132.529-.397.794-.661.661-.794 1.057-1.587 1.454-2.248.661-1.586.925-4.627 1.322-6.08a6.45 6.45 0 01.396-.926c.265-.397 1.058-1.19 1.058-2.248 0-.925-.661-1.85-1.322-1.983-.397 0-.793-.132-1.19-.132-3.701-.397-8.461-.66-11.369.132-3.569.926-4.891 2.116-6.874 2.116-1.851 0-3.041-1.19-6.478-2.38-2.776-.925-7.271-.793-10.576-.529-.397 0-.661.132-1.058.132-.793 0-1.454.926-1.322 1.983zm23.664 2.248c.132-.265.529-.53 1.058-.793l.132-.133h.132c.132-.132.264-.132.529-.264.132 0 .264-.132.529-.132.528-.132 1.057-.397 1.586-.53.264 0 .397-.131.661-.131.529-.133 1.058-.133 1.586-.265h.397c3.437-.264 5.685.53 6.478 1.19.793.793.396 3.966.132 5.553v.264c0 .132-.132.397-.132.66 0 .133-.132.265-.132.398 0 .264-.133.396-.265.66 0 .133 0 .133-.132.265v.132s0 .132-.132.132c0 0 0 .132-.132.132 0 .133-.133.133-.133.265s-.132.132-.132.264-.132.132-.132.265c-.925 1.19-2.38 2.247-4.891 2.247-2.512 0-4.099-.925-5.156-1.983-1.058-1.058-1.454-2.38-1.719-3.305-.529-1.85-.793-3.966-.132-4.891zm-20.359-1.719c.132-.132.529-.396.793-.529h.133c.132 0 .264-.132.396-.132s.132 0 .265-.132h.396c.265 0 .529-.132.793-.132h1.851c.529 0 1.058.132 1.587.132 2.511.397 5.023 1.454 5.684 2.512.661 1.057.529 3.172.265 4.891 0 .397-.133.793-.265 1.19v.529c0 .132-.132.264-.132.264 0 .132-.132.132-.132.264v.133s0 .132-.132.132c0 0 0 .132-.133.132-.925 1.322-2.379 2.512-5.155 2.38-1.058 0-1.851-.265-2.644-.661-2.512-1.19-3.041-3.966-3.438-5.288-.396-1.719-.925-5.024-.132-5.685z" fill="#455A64"/><path d="M385.51 77.269l7.667 1.983 1.19-11.898c-.264-.265-.529-.397-1.057-.397h-.265c-.132 0-.264.132-.396.132-.133.132-.265.132-.265.265a27.482 27.482 0 00-2.776 2.776c-1.058 1.322-2.115 2.776-2.908 4.495-.397.66-.661 1.322-.926 2.115-.132.132-.132.264-.264.529z" fill="#F28F8F"/><path d="M401.375 82.16l-8.857 1.851c.528 2.512 2.776 4.098 5.288 3.57 2.511-.397 4.098-2.909 3.569-5.42z" fill="#9A4A4D"/><path d="M400.317 83.613h1.058c-.265 1.983-1.587 3.57-3.57 4.099a2.715 2.715 0 01-1.454 0c-.132-1.984 1.586-3.834 3.966-4.099z" fill="#F28F8F"/><path d="M130.686 261.55c2.247-1.851 3.569-4.892 3.569-7.139 0-3.834-2.908-3.041-2.908-3.041.793-.925 2.38-3.437 2.38-6.213 0-1.19-.397-2.644-1.455-3.173l-7.403-4.098c-.661-.529-1.718-.529-3.04.264l-6.478 3.702c-.265-1.719-.661-3.305-1.454-5.024-.397-.793-.794-1.322-1.455-1.586l-7.271-4.098c-2.511-1.587-6.742 1.454-6.742 2.644 0 .793.265 3.569.265 6.213v1.719c0 1.322-.133 2.644-.265 3.305 0 .264-.132.529-.264.925 0 .132-.132.397-.265.529a6.448 6.448 0 00-.396.925c-.265.794-.661 1.587-1.058 2.512-.132.265-.132.529-.264.661a157.682 157.682 0 01-3.437 7.932c-.133.397-.397.793-.53 1.19a52.557 52.557 0 01-1.057 2.247v31.332h.132l7.536 4.362s20.755-12.03 23.928-13.881c3.173-1.85 5.288-5.684 5.288-8.328 0-2.115-.661-3.437-.661-3.437 1.983-1.19 4.098-5.421 4.098-7.271.132-2.38-.793-3.173-.793-3.173z" fill="#0061FB"/><path d="M98.77 297.228l.27-30.836-7.572-4.087c-.27.354 0 1.368 0 1.723l.27 28.873c0 .827 6.22 3.972 7.032 4.327z" fill="#252020" fill-opacity=".2"/><g opacity=".4" fill="#fff"><path opacity=".4" d="M112.574 235.375c-2.512-1.19-6.478 1.586-6.478 2.776l-7.535-4.23c0-1.19 4.23-4.231 6.742-2.644l7.271 4.098zM132.139 242.117c-.661-.397-1.586-.265-2.776.396l-14.41 8.329c.661-3.305.926-6.214.529-8.858l6.478-3.701c1.322-.793 2.379-.661 3.04-.265l7.139 4.099z"/></g><path d="M106.096 249.389c-.661 2.115-7.139 17.186-7.139 17.186l-7.535-4.23s6.61-14.939 7.139-17.186c.66-2.115 0-9.783 0-11.237l7.535 4.23c0 1.454.661 9.122 0 11.237z" fill="#fff" opacity=".05"/><path d="M95.52 269.219c0-.397-.131-.926-.396-1.322-.264-.397-.66-.793-.925-1.058l-4.76-2.776c-.793-.397-1.982-.397-2.776 0l-7.667 4.495c-.397.264-.793.661-.926 1.057a2.553 2.553 0 00-.396 1.322v33.183c0 .925.66 1.983 1.322 2.379l4.759 2.776c.397.265.925.265 1.322.265.529 0 .925-.132 1.322-.265l7.668-4.494c.793-.397 1.322-1.455 1.322-2.38l.132-33.182z" fill="#0061FB"/><path d="M85.077 273.712v35.958c-.529 0-1.058-.132-1.322-.264l-4.76-2.776c-.792-.397-1.321-1.454-1.321-2.38v-33.182c0-.397.132-.925.396-1.322l7.007 3.966z" fill="#000" opacity=".1"/><g opacity=".3"><path opacity=".5" d="M95.124 267.897l-10.048 5.817-7.138-4.099c.264-.396.66-.793.925-1.057l7.668-4.495c.793-.397 1.982-.397 2.776 0l4.759 2.776c.397.265.793.661 1.058 1.058z" fill="#fff"/></g><path d="M78.598 369.753c1.461-1.203 2.32-3.18 2.32-4.641 0-2.492-1.89-1.976-1.89-1.976.516-.602 1.547-2.235 1.547-4.04 0-.773-.258-1.718-.945-2.062l-4.813-2.664c-.43-.344-1.117-.344-1.977.172l-4.21 2.406c-.172-1.117-.43-2.149-.946-3.266-.258-.515-.516-.859-.945-1.031l-4.727-2.664c-1.633-1.031-4.383.945-4.383 1.719 0 .515.172 2.32.172 4.039v1.117c0 .859-.086 1.719-.172 2.149 0 .171-.086.343-.172.601 0 .086-.086.258-.172.344a4.215 4.215 0 00-.257.601c-.172.516-.43 1.032-.688 1.633-.086.172-.086.344-.172.43a102.607 102.607 0 01-2.234 5.156c-.086.258-.258.516-.344.774a34.813 34.813 0 01-.688 1.461v20.368h.086l4.899 2.836s13.492-7.821 15.555-9.024c2.063-1.203 3.438-3.695 3.438-5.414 0-1.375-.43-2.235-.43-2.235 1.289-.773 2.664-3.523 2.664-4.726.086-1.547-.516-2.063-.516-2.063z" fill="#0061FB"/><path d="M57.85 392.945l.176-20.046-4.923-2.657c-.175.231 0 .89 0 1.12l.176 18.77c0 .538 4.044 2.582 4.572 2.813z" fill="#252020" fill-opacity=".2"/><g opacity=".4" fill="#fff"><path opacity=".4" d="M66.825 352.737c-1.633-.774-4.212 1.031-4.212 1.805l-4.898-2.75c0-.774 2.75-2.751 4.383-1.719l4.727 2.664zM79.543 357.119c-.43-.258-1.031-.172-1.804.258l-9.368 5.414c.43-2.148.602-4.039.344-5.758l4.21-2.406c.86-.516 1.548-.43 1.978-.172l4.64 2.664z"/></g><path d="M62.614 361.848c-.43 1.375-4.641 11.172-4.641 11.172l-4.899-2.75s4.297-9.711 4.641-11.172c.43-1.375 0-6.36 0-7.305l4.899 2.75c0 .945.43 5.93 0 7.305z" fill="#fff" opacity=".05"/><path d="M55.739 374.736a1.66 1.66 0 00-.258-.859c-.172-.258-.43-.516-.602-.687l-3.094-1.805c-.515-.258-1.289-.258-1.804 0l-4.985 2.922c-.258.172-.516.429-.602.687a1.66 1.66 0 00-.257.86v21.571c0 .601.43 1.289.86 1.547l3.093 1.804c.258.172.601.172.86.172.343 0 .6-.086.859-.172l4.984-2.922c.516-.258.86-.945.86-1.547l.086-21.571z" fill="#0061FB"/><path d="M48.95 377.66v23.376c-.344 0-.688-.086-.86-.172l-3.094-1.805c-.516-.258-.86-.945-.86-1.547v-21.571c0-.257.087-.601.258-.859l4.555 2.578z" fill="#000" opacity=".1"/><g opacity=".3"><path opacity=".5" d="M55.48 373.877l-6.53 3.781-4.641-2.664c.172-.258.43-.515.601-.687l4.985-2.922c.515-.258 1.289-.258 1.804 0l3.094 1.805c.258.171.516.429.688.687z" fill="#fff"/></g><path d="M41.135 324.455c1.708-1.406 2.712-3.716 2.712-5.424 0-2.912-2.21-2.309-2.21-2.309.603-.703 1.808-2.611 1.808-4.72 0-.904-.301-2.009-1.105-2.411l-5.624-3.113c-.502-.402-1.305-.402-2.31.201l-4.92 2.812c-.201-1.306-.503-2.511-1.105-3.816-.301-.603-.603-1.005-1.105-1.205l-5.523-3.114c-1.908-1.205-5.122 1.105-5.122 2.009 0 .602.2 2.711.2 4.72v1.305c0 1.005-.1 2.009-.2 2.511 0 .201-.1.402-.2.703 0 .101-.101.301-.202.402-.1.201-.2.402-.301.703-.2.602-.502 1.205-.804 1.908-.1.201-.1.402-.2.502a120.035 120.035 0 01-2.611 6.026c-.1.301-.302.602-.402.904-.402.903-.703 1.506-.804 1.707V348.557h.1l5.725 3.314s15.767-9.139 18.178-10.545c2.41-1.406 4.017-4.318 4.017-6.327 0-1.606-.503-2.611-.503-2.611 1.507-.904 3.114-4.117 3.114-5.523.1-1.808-.603-2.41-.603-2.41z" fill="#0061FB"/><path d="M16.889 351.557l.205-23.425-5.753-3.105c-.205.27 0 1.04 0 1.309l.206 21.934c0 .628 4.725 3.018 5.342 3.287z" fill="#252020" fill-opacity=".2"/><g opacity=".4" fill="#fff"><path opacity=".4" d="M27.376 304.571c-1.908-.904-4.921 1.205-4.921 2.109l-5.724-3.214c0-.903 3.213-3.213 5.121-2.008l5.524 3.113zM42.24 309.693c-.503-.302-1.206-.201-2.11.301l-10.946 6.327c.502-2.511.703-4.72.401-6.729l4.921-2.812c1.005-.602 1.808-.502 2.31-.201l5.423 3.114z"/></g><path d="M22.456 315.215c-.502 1.607-5.423 13.055-5.423 13.055l-5.724-3.213s5.021-11.349 5.423-13.056c.502-1.607 0-7.431 0-8.536l5.724 3.214c0 1.104.502 6.929 0 8.536z" fill="#fff" opacity=".05"/><path d="M14.421 330.279c0-.301-.1-.703-.301-1.004-.201-.301-.502-.602-.703-.803L9.8 326.363c-.602-.302-1.506-.302-2.109 0l-5.824 3.414c-.302.201-.603.502-.703.804-.201.301-.302.703-.302 1.004v25.207c0 .703.502 1.507 1.005 1.808l3.615 2.109c.301.201.703.201 1.004.201.402 0 .703-.101 1.004-.201l5.825-3.415c.603-.301 1.005-1.104 1.005-1.807l.1-25.208z" fill="#0061FB"/><path d="M6.487 333.693v27.316c-.401 0-.803-.101-1.004-.201l-3.615-2.109c-.603-.301-1.005-1.105-1.005-1.808v-25.207c0-.301.1-.703.302-1.004l5.322 3.013z" fill="#000" opacity=".1"/><g opacity=".3"><path opacity=".5" d="M14.12 329.275l-7.632 4.419-5.424-3.113c.201-.302.503-.603.703-.804l5.825-3.414c.603-.302 1.507-.302 2.11 0l3.615 2.109c.3.201.602.502.803.803z" fill="#fff"/></g><path d="M484.792 262.611c0-.396.264-.793.793-1.189 1.058-.661 2.909-.661 3.966 0 .529.264.793.661.793 1.189l-20.887 86.856c0 .264-.132.529-.529.793-.793.397-1.983.397-2.776 0-.397-.264-.529-.529-.529-.793l19.169-86.856zM532.914 262.611c0-.396-.265-.793-.793-1.189-1.058-.661-2.909-.661-3.966 0-.529.264-.794.661-.794 1.189l20.888 86.856c0 .264.132.529.529.793.793.397 1.983.397 2.776 0 .397-.264.529-.529.529-.793l-19.169-86.856zM511.892 265.521c0-.396-.264-.793-.793-1.189-1.058-.661-2.908-.661-3.966 0-.529.264-.793.661-.793 1.189l.793 97.828c0 .265.132.529.529.794.793.396 1.983.396 2.776 0 .397-.265.529-.529.529-.794l.925-97.828z" fill="#455A64"/><path d="M559.088 241.857c0-7.403-4.892-14.674-14.542-20.359-19.434-11.237-51.03-11.237-70.463 0-9.783 5.685-14.542 12.956-14.542 20.359v3.966c.132 7.271 5.024 14.542 14.542 20.094 19.433 11.237 51.029 11.237 70.463 0 9.65-5.552 14.542-12.823 14.542-20.094v-3.966z" fill="#5B99FB"/><path d="M473.952 221.498c-19.433 11.237-19.433 29.481 0 40.718 19.433 11.237 51.029 11.237 70.463 0 19.433-11.237 19.433-29.481 0-40.718-19.434-11.237-51.03-11.237-70.463 0z" fill="#BA68C8"/><path d="M473.952 221.498c-19.433 11.237-19.433 29.481 0 40.718 19.433 11.237 51.029 11.237 70.463 0 19.433-11.237 19.433-29.481 0-40.718-19.434-11.237-51.03-11.237-70.463 0z" fill="#BDD2FC"/><path opacity=".05" d="M520.091 232.341c6.214 3.57 6.214 9.386 0 12.956-6.213 3.569-16.261 3.569-22.474 0-6.213-3.57-6.213-9.386 0-12.956 6.213-3.569 16.261-3.569 22.474 0z" fill="#000"/><path d="M498.938 239.613c-5.42-5.552-8.593-19.301-3.305-23.664h26.837c5.288 4.363 2.115 18.112-3.305 23.664l-.132.132-.133.132a1.805 1.805 0 01-.528.397l-.133.132c-.132.132-.264.265-.396.265-.265.132-.529.264-.661.396-4.495 2.512-11.634 2.512-16.129 0-.264-.132-.528-.264-.661-.396-.132-.133-.264-.133-.396-.265l-.132-.132c-.133-.132-.265-.264-.529-.397-.132 0-.132-.132-.397-.264.132 0 0 0 0 0z" fill="#EBEBEB"/><path d="M520.222 214.097c6.081 3.57 6.081 9.254 0 12.824-6.082 3.569-15.997 3.569-22.21 0-6.081-3.57-6.081-9.254 0-12.824 6.081-3.437 15.996-3.437 22.21 0z" fill="#FAFAFA"/><path d="M515.86 216.61c3.702 2.115 3.702 5.684 0 7.8-3.701 2.115-9.783 2.115-13.484 0-3.702-2.116-3.702-5.685 0-7.8 3.701-2.115 9.65-2.115 13.484 0z" fill="#EBEBEB"/><path d="M502.376 220.309c3.702-2.115 9.783-2.115 13.485 0 1.057.661 1.718 1.322 2.247 1.983-.397.793-1.19 1.454-2.247 1.983-3.702 2.115-9.783 2.115-13.485 0-1.057-.661-1.718-1.322-2.247-1.983.397-.661 1.19-1.322 2.247-1.983z" fill="#E0E0E0"/><path d="M514.935 222.425s2.644-2.512 4.892-6.478c2.247-3.966 2.644-9.386 1.454-10.047-1.19-.661-5.949 4.627-5.949 4.627s.661-3.305.529-6.742c-.265-3.569-1.058-6.742-2.116-7.403-1.057-.661-3.305 3.834-4.23 7.139a245.89 245.89 0 00-1.586 5.949s-.661-4.363-1.719-7.536c-1.19-3.305-2.247-4.098-3.041-3.834-.793.397-1.322 1.851-1.586 6.346-.132 3.173.264 6.478.264 6.478s-1.718-1.851-3.569-3.57c-1.983-1.983-2.908-2.247-3.437-1.85-.529.396-.793 3.437 2.379 9.121 2.777 5.024 5.949 7.8 5.949 7.8s4.363 2.776 11.766 0z" fill="#BA68C8"/><path d="M514.935 222.425s2.644-2.512 4.892-6.478c2.247-3.966 2.644-9.386 1.454-10.047-1.19-.661-5.949 4.627-5.949 4.627s.661-3.305.529-6.742c-.265-3.569-1.058-6.742-2.116-7.403-1.057-.661-3.305 3.834-4.23 7.139a245.89 245.89 0 00-1.586 5.949s-.661-4.363-1.719-7.536c-1.19-3.305-2.247-4.098-3.041-3.834-.793.397-1.322 1.851-1.586 6.346-.132 3.173.264 6.478.264 6.478s-1.718-1.851-3.569-3.57c-1.983-1.983-2.908-2.247-3.437-1.85-.529.396-.793 3.437 2.379 9.121 2.777 5.024 5.949 7.8 5.949 7.8s4.363 2.776 11.766 0zM576.275 199.683l4.892-13.881-3.966-11.37v-7.006l12.03 7.006v7.007l-5.156 13.749c-.132.132-.264.264-.396.264l-7.404 4.231z" fill="#5B99FB"/><path d="M576.275 199.683l4.892-13.881-3.966-11.37v-7.006l12.03 7.006v7.007l-5.156 13.749c-.132.132-.264.264-.396.264l-7.404 4.231z" fill="#266AD6"/><path d="M547.588 112.168c0-2.247 1.586-5.156 3.569-6.213l2.909-1.719c1.983-1.19 5.288-1.19 7.271 0l45.08 26.043c1.983 1.19 3.569 3.966 3.569 6.214v49.575c0 2.247-1.586 5.156-3.569 6.213L603.509 194c-1.983 1.19-5.288 1.19-7.271 0l-14.542-8.329-5.156 13.617c-.265.529-1.19.529-1.454-.132l-5.421-20.491-18.508-10.708c-1.983-1.19-3.569-3.966-3.569-6.214v-49.575z" fill="#3F89FF"/><path d="M609.986 186.199c0 2.247-1.586 5.156-3.569 6.213l-2.909 1.719c-1.85 1.058-4.627 1.19-6.61.264 1.719.661 3.041-.264 3.041-2.379v-49.575c0-1.19-.397-2.38-1.058-3.57l10.18-5.816c.661 1.189 1.058 2.379 1.058 3.569v49.575h-.133z" fill="#266AD6"/><path d="M547.719 111.239c.396-1.586 1.851-1.983 3.437-1.057l45.08 26.043c1.058.529 1.851 1.587 2.512 2.644l10.179-5.817c-.661-1.189-1.586-2.115-2.511-2.644l-45.081-26.043c-1.983-1.19-5.288-1.19-7.271 0l-2.908 1.719c-1.719.793-3.173 3.04-3.437 5.155z" fill="#337AE9"/><path d="M496.162 97.233l4.892-13.88-3.966-11.37v-7.006l12.03 7.006v7.007l-5.156 13.749c-.132.132-.264.264-.397.264l-7.403 4.23z" fill="#5B99FB"/><path d="M496.162 97.233l4.892-13.88-3.966-11.37v-7.006l12.03 7.006v7.007l-5.156 13.749c-.132.132-.264.264-.397.264l-7.403 4.23z" fill="#266AD6"/><path d="M467.342 9.715c0-2.247 1.586-5.156 3.569-6.213l2.909-1.719c1.983-1.19 5.288-1.19 7.271 0l45.08 26.043c1.983 1.19 3.569 3.966 3.569 6.214v49.575c0 2.247-1.586 5.156-3.569 6.213l-2.909 1.719c-1.983 1.19-5.288 1.19-7.271 0l-14.542-8.329-5.155 13.617c-.265.529-1.19.529-1.455-.132l-5.42-20.491-18.508-10.709c-1.983-1.19-3.569-3.966-3.569-6.213V9.715z" fill="#3F89FF"/><path d="M529.873 83.746c0 2.247-1.586 5.156-3.569 6.213l-2.909 1.719c-1.851 1.058-4.627 1.19-6.61.264 1.719.661 3.041-.264 3.041-2.38V39.989c0-1.19-.397-2.38-1.058-3.57l10.18-5.816c.661 1.19 1.057 2.38 1.057 3.569v49.575h-.132z" fill="#266AD6"/><path d="M467.473 8.79c.396-1.587 1.85-1.983 3.437-1.058l45.08 26.043c1.058.53 1.851 1.587 2.512 2.644l10.179-5.816c-.661-1.19-1.586-2.116-2.512-2.644L481.221 1.783c-1.983-1.19-5.288-1.19-7.271 0l-2.908 1.719c-1.719.925-3.173 3.172-3.569 5.288z" fill="#337AE9"/><path d="M492.724 64.974c-2.776-1.454-5.288-4.23-7.138-7.535-.397-.794-.661-1.719-.661-2.644.132-3.834 2.511-5.817 5.288-4.363l5.816 3.04c2.777 1.455 5.024 5.817 4.892 9.651 0 .926-.265 1.587-.793 1.851-2.116 1.322-4.76 1.454-7.404 0zm.397-16.393c-2.776-1.454-4.891-5.684-4.759-9.518.132-3.834 2.512-5.817 5.156-4.363 2.776 1.454 4.891 5.685 4.759 9.519 0 3.834-2.38 5.816-5.156 4.362zm.661-20.226c-8.329-4.363-15.467 1.454-15.732 13.088-.396 11.633 6.214 24.589 14.542 28.951 8.329 4.363 15.468-1.454 15.732-13.088.264-11.5-6.213-24.589-14.542-28.951zM575.482 167.826c-2.776-1.455-5.288-4.099-7.139-7.536-.396-.793-.661-1.718-.661-2.644.133-3.966 2.512-5.817 5.288-4.362l5.817 3.04c2.776 1.454 5.024 5.817 4.892 9.651 0 .925-.265 1.586-.794 1.851-1.983 1.322-4.627 1.322-7.403 0zm.529-16.393c-2.776-1.454-4.891-5.685-4.759-9.651.132-3.834 2.379-5.817 5.156-4.362 2.776 1.454 4.891 5.684 4.759 9.518-.132 3.966-2.38 5.949-5.156 4.495zm.529-20.227c-8.329-4.362-15.468 1.454-15.732 13.088-.397 11.634 6.213 24.589 14.542 28.952 8.329 4.362 15.467-1.454 15.732-13.088.396-11.634-6.081-24.589-14.542-28.952z" fill="#fff"/><path d="M317.296 123.937v1.322c0 .661.529 1.322 1.322 1.322h17.847c.661 0 1.322-.529 1.322-1.322v-1.322c0-4.495-6.874-5.817-10.179-5.817-3.438.132-10.312 1.322-10.312 5.817zm-.264-12.03a1.277 1.277 0 011.85 0 1.277 1.277 0 010 1.85l-6.345 6.346a1.278 1.278 0 01-1.851 0l-3.305-3.305a1.278 1.278 0 010-1.851 1.278 1.278 0 011.851 0l2.379 2.38 5.421-5.42zm10.576-5.817c2.776 0 5.155 2.247 5.155 5.156 0 2.908-2.247 5.155-5.155 5.155-2.777 0-5.156-2.247-5.156-5.155 0-2.909 2.247-5.156 5.156-5.156zM337.786 72.776v1.322c0 .661.529 1.322 1.322 1.322h17.847c.661 0 1.322-.529 1.322-1.322v-1.322c0-4.495-6.874-5.817-10.179-5.817-3.305 0-10.312 1.322-10.312 5.817zm-.264-12.162a1.278 1.278 0 011.851 0 1.28 1.28 0 010 1.85l-6.346 6.346a1.278 1.278 0 01-1.851 0l-3.305-3.305a1.278 1.278 0 010-1.85 1.278 1.278 0 011.851 0l2.38 2.379 5.42-5.42zm10.444-5.817c2.776 0 5.155 2.247 5.155 5.156 0 2.908-2.247 5.156-5.155 5.156-2.777 0-5.156-2.248-5.156-5.156 0-2.909 2.379-5.156 5.156-5.156z" fill="#FAFAFA"/></svg>