<svg width="18" height="18" viewBox="0 0 18 18" fill="none" xmlns="http://www.w3.org/2000/svg">
<path d="M11.9375 0C13.7236 0 14.5825 0.165856 15.4749 0.643106C16.2841 1.0759 16.9241 1.71589 17.3569 2.52514C17.8341 3.41752 18 4.2764 18 6.06249V11.9375C18 13.7236 17.8341 14.5825 17.3569 15.4749C16.9241 16.2841 16.2841 16.9241 15.4749 17.3569C14.5825 17.8341 13.7236 18 11.9375 18H6.06249C4.2764 18 3.41752 17.8341 2.52514 17.3569C1.71589 16.9241 1.0759 16.2841 0.643106 15.4749C0.165856 14.5825 0 13.7236 0 11.9375V6.06249C0 4.2764 0.165856 3.41752 0.643106 2.52514C1.0759 1.71589 1.71589 1.0759 2.52514 0.643106C3.41752 0.165856 4.2764 0 6.06249 0H11.9375ZM11.9375 1.63636H6.06249C4.52343 1.63636 3.91976 1.75294 3.29685 2.08607C2.77277 2.36636 2.36636 2.77277 2.08607 3.29685C1.75294 3.91976 1.63636 4.52343 1.63636 6.06249V11.9375C1.63636 13.4766 1.75294 14.0802 2.08607 14.7031C2.36636 15.2272 2.77277 15.6336 3.29685 15.9139C3.91976 16.2471 4.52343 16.3636 6.06249 16.3636H11.9375C13.4766 16.3636 14.0802 16.2471 14.7031 15.9139C15.2272 15.6336 15.6336 15.2272 15.9139 14.7031C16.2471 14.0802 16.3636 13.4766 16.3636 11.9375V6.06249C16.3636 4.52343 16.2471 3.91976 15.9139 3.29685C15.6336 2.77277 15.2272 2.36636 14.7031 2.08607C14.0802 1.75294 13.4766 1.63636 11.9375 1.63636ZM8.18182 11.8636C8.63369 11.8636 9 12.2299 9 12.6818C9 13.1337 8.63369 13.5 8.18182 13.5H4.90909C4.45722 13.5 4.09091 13.1337 4.09091 12.6818C4.09091 12.2299 4.45722 11.8636 4.90909 11.8636H8.18182ZM13.0909 8.18182C13.5428 8.18182 13.9091 8.54813 13.9091 9C13.9091 9.45187 13.5428 9.81818 13.0909 9.81818H4.90909C4.45722 9.81818 4.09091 9.45187 4.09091 9C4.09091 8.54813 4.45722 8.18182 4.90909 8.18182H13.0909ZM13.0909 4.5C13.5428 4.5 13.9091 4.86631 13.9091 5.31818C13.9091 5.77005 13.5428 6.13636 13.0909 6.13636H4.90909C4.45722 6.13636 4.09091 5.77005 4.09091 5.31818C4.09091 4.86631 4.45722 4.5 4.90909 4.5H13.0909Z" fill="#2691F4"/>
</svg>
