<svg width="768" height="1140" viewBox="0 0 768 1140" fill="none" xmlns="http://www.w3.org/2000/svg"><defs/><path d="M1234.68-224.631l34.36 890.645c-202.87-57.202-398.031-107.165-519.384-124.532-346.292-50.273-684.28 151.431-1110.642 89.734-290.767-42.089-548.88-200.98-683.204-297.666-8.79-181.907-17.58-364.092-26.37-545.998 768.525-4.252 1536.708-8.21 2305.24-12.183z" fill="url(#paint0_linear)"/><path d="M2424.3-164h-4096.1c0 254.1-.1 508.2-.2 762.3 170.3-79.5 317.8-115.9 420-134 123.1-21.8 212.3-22.9 234.7-23 48-.2 149.1-.3 274.6 28.4 205.9 47.1 283.9 134.7 611.9 120.1 447.3-19.9 502-93.7 772.5-69 9 .8 40.7 4.2 79.5 11.2 128.3 23 326.2 84.8 378.9 100 51.3 14.7 214.3 56.8 397 33.3 202.5-26 254.2-110.2 522-161.1 160.6-30.5 288.6-21.1 405.2 2.3V-164z" fill="url(#paint1_linear)"/><path opacity=".1" d="M250.843 177.414C195.271 134.12 135.245 101.928 65.97 93.59c-25.908-3.081-51.985-4.847-78.313-2.859-2.233 11.199-236.994 161.088-239.33 172.265-19.172 92.755 24.758 86.547 5.383 179.259-19.672 254.018 69.739 419.933 71.777 422.938 19.766 29.917 42.489 56.401 68.702 78.947 24.774 21.263 51.704 37.82 82.326 46.921 16.665 4.956 33.81 6.084 51.08 6.623 39.842 1.204 78.835-5.259 117.008-22.086 29.252-12.92 56.892-29.86 83.678-48.33 31.909-22.065 65.422-38.024 101.798-43.193 28.123-3.946 56.532-7.218 84.756-8.074 61.47-1.766 121.345-15.285 179.807-39.906 54.599-22.971 102.963-57.438 141.453-108.95 31.852-42.706 54.869-90.083 62.652-145.188 7.128-50.943-1.598-97.464-23.809-140.172-19.26-36.933-46.99-64.463-77.6-88.42-32.071-25.121-67.062-41.889-107.403-44.794-25.847-1.84-51.776-4.312-77.381-7.821-37.245-4.96-74.101-12.294-109.748-24.901-27.31-9.637-53.872-21.327-77.524-39.286-25.114-19.125-49.5-39.693-74.439-59.149z" fill="#fff"/><defs><linearGradient id="paint0_linear" x1="1174.32" y1="-38.358" x2="-842.525" y2="-607.622" gradientUnits="userSpaceOnUse"><stop stop-color="#fff"/><stop offset="1" stop-color="#A2C3FF"/></linearGradient><linearGradient id="paint1_linear" x1="-38" y1="213.001" x2="793.5" y2="213.001" gradientUnits="userSpaceOnUse"><stop stop-color="#3171FF"/><stop offset="1" stop-color="#ADCEFF"/></linearGradient></defs></svg>