<svg width="375" height="688" viewBox="0 0 375 688" fill="none" xmlns="http://www.w3.org/2000/svg"><defs/><path fill="url(#paint0_linear)" d="M-23 0h421v688H-23z"/><path opacity=".1" d="M-4.988 62.248c-35.658-23.595-73.491-40.262-115.804-42.061-15.823-.65-31.685-.497-47.524 1.94-.827 6.881-135.868 108.588-136.757 115.461-7.255 57.029 19.038 51.214 11.658 108.226 0 154.64 61.882 250.853 63.256 252.576 13.364 17.178 28.356 32.139 45.275 44.555 15.988 11.706 33.061 20.463 52.018 24.536 10.318 2.218 20.746 2.097 31.222 1.614 24.167-1.139 47.46-6.878 69.772-18.849 17.096-9.189 33.028-20.736 48.372-33.169 18.276-14.848 37.808-26.076 59.579-30.908 16.834-3.706 33.872-7.018 50.911-8.858 37.116-3.95 72.715-14.937 106.94-32.576 31.964-16.46 59.616-39.584 80.494-72.56 17.273-27.336 28.981-57.085 31.109-90.796 1.926-31.162-5.534-58.905-20.977-83.709-13.386-21.447-31.457-36.807-51.103-49.87-20.585-13.699-42.546-22.206-67.094-22.074-15.728.098-31.534-.183-47.194-1.106-22.771-1.256-45.417-3.967-67.58-9.926-16.978-4.551-33.6-10.381-48.754-20.14-16.095-10.397-31.816-21.7-47.819-32.306z" fill="#fff"/><defs><linearGradient id="paint0_linear" x1="-121" y1="575.963" x2="473" y2="186.728" gradientUnits="userSpaceOnUse"><stop stop-color="#3171FF"/><stop offset="1" stop-color="#ADCEFF"/></linearGradient></defs></svg>