<svg width="4096" height="923" viewBox="0 0 4096 923" fill="none" xmlns="http://www.w3.org/2000/svg"><defs/><path d="M2897.68-56.92l34.36 890.645c-202.87-57.202-398.03-107.165-519.38-124.532-346.3-50.273-684.28 151.431-1110.65 89.734-290.76-42.089-548.876-200.98-683.198-297.666L592.44-44.737c768.53-4.252 1536.71-8.21 2305.24-12.183z" fill="url(#paint0_linear)"/><path d="M4095.3 0H-.799c0 254.1-.1 508.2-.2 762.3 170.3-79.5 317.8-115.9 420-134 123.1-21.8 212.3-22.9 234.7-23 48-.2 149.1-.3 274.6 28.4C1134.2 680.8 1212.2 768.4 1540.2 753.8c447.3-19.9 502-93.7 772.5-69 9 .8 40.7 4.2 79.5 11.2 128.3 23 326.2 84.8 378.9 100 51.3 14.7 214.3 56.8 397 33.3 202.5-26 254.2-110.2 522-161.1 160.6-30.5 288.6-21.1 405.2 2.3V0z" fill="url(#paint1_linear)"/><path opacity=".1" d="M1714.1-563.249c-81.05-53.633-167.05-91.518-263.22-95.608-35.97-1.478-72.03-1.129-108.03 4.41C1340.97-638.805 1034.02-407.623 1032-392c-16.49 129.628 43.28 116.409 26.5 246 0 351.5 140.66 570.194 143.78 574.109 30.38 39.047 64.46 73.054 102.91 101.275 36.35 26.609 75.15 46.514 118.24 55.771 23.45 5.042 47.16 4.766 70.97 3.668 54.93-2.587 107.88-15.632 158.59-42.844 38.86-20.887 75.08-47.133 109.95-75.392 41.55-33.75 85.94-59.272 135.43-70.256 38.26-8.424 76.99-15.951 115.72-20.134 84.37-8.978 165.28-33.952 243.08-74.045 72.65-37.414 135.5-89.976 182.96-164.93 39.26-62.137 65.88-129.757 70.71-206.382 4.38-70.833-12.58-133.893-47.68-190.272-30.43-48.752-71.5-83.665-116.16-113.357-46.79-31.138-96.7-50.475-152.5-50.174-35.75.222-71.68-.416-107.27-2.515-51.76-2.855-103.24-9.016-153.62-22.56-38.59-10.347-76.37-23.598-110.82-45.781-36.58-23.63-72.31-49.325-108.69-73.43z" fill="#fff"/><defs><linearGradient id="paint0_linear" x1="2837.32" y1="129.353" x2="820.475" y2="-439.911" gradientUnits="userSpaceOnUse"><stop stop-color="#fff"/><stop offset="1" stop-color="#A1C3FF"/></linearGradient><linearGradient id="paint1_linear" x1="1246.5" y1="358.5" x2="3117.5" y2="377.001" gradientUnits="userSpaceOnUse"><stop stop-color="#3171FF"/><stop offset="1" stop-color="#ADCEFF"/></linearGradient></defs></svg>