<svg viewBox="0 920 4097 2500" xmlns="http://www.w3.org/2000/svg"><defs/><defs><linearGradient x1="26.983%" y1="48.826%" x2="76.851%" y2="48.059%" id="a"><stop stop-color="#3171FF" offset="0%"/><stop stop-color="#ADCEFF" offset="100%"/></linearGradient></defs><g fill-rule="nonzero" fill="none"><path fill="url(#a)" d="M0 920h4097v2500H0z"/><path d="M2416.16 345.438c-34.5-104.651-84.3-199.189-166.55-271.719-30.79-27.079-62.93-52.637-98.62-73.655-12.52 12.218-444.44-7.437-457.06 4.663-104.51 100.6-42.47 132.001-147.21 232.364-243.83 304.858-271.09 595.419-271.055 601.059-.205 55.65 6.355 109.59 20.795 161.65 13.69 49.14 34.22 94.24 65.92 133.17 17.25 21.2 38.41 37.96 60.23 54.08 50.4 37.16 106.29 63.82 170.03 76.6 48.87 9.75 99.11 12.96 149.57 13.47 60.16.53 117.14 10.23 168.54 36.2 39.7 20.14 79.18 41.39 116.35 65.54 80.86 52.72 169.77 89.1 266.4 110.13 90.23 19.66 182.3 19.15 276.28-11.82 77.84-25.73 148.29-65.29 205.72-128.27 53.01-58.3 81.75-125.15 89.81-199.23 6.9-64.1-5.22-123.85-24.13-181.63-19.8-60.57-50.54-113.14-100.11-152.9-31.78-25.45-63.13-51.77-93.16-79.121-43.81-39.6-85.08-81.866-120.25-129.744-26.96-36.654-51.19-75.245-66.28-119.192-15.97-46.733-29.76-94.648-45.22-141.645z" fill="#FFF" opacity=".1"/></g></svg>