<svg width="25" height="25" viewBox="0 0 25 25" fill="currentColor" xmlns="http://www.w3.org/2000/svg"><path d="M24.936 7.35c-.059-1.328-.273-2.241-.58-3.033A6.1 6.1 0 0022.912 2.1 6.14 6.14 0 0020.703.66C19.91.351 19.002.136 17.675.077 16.34.015 15.915 0 12.526 0 9.137 0 8.713.015 7.382.073 6.055.132 5.144.347 4.354.654A6.092 6.092 0 002.14 2.1 6.156 6.156 0 00.7 4.312C.394 5.11.18 6.017.121 7.345.058 8.683.043 9.108.043 12.502c0 3.395.015 3.82.073 5.153.059 1.328.273 2.241.58 3.033.317.84.81 1.592 1.444 2.217a6.145 6.145 0 002.209 1.44c.795.308 1.701.523 3.028.582 1.33.058 1.755.073 5.144.073 3.389 0 3.813-.015 5.145-.073 1.326-.059 2.238-.274 3.027-.581a6.389 6.389 0 003.653-3.658c.307-.796.522-1.705.58-3.033.059-1.333.073-1.758.073-5.153 0-3.394-.005-3.819-.063-5.152zm-2.248 10.207c-.054 1.221-.259 1.88-.43 2.32a4.144 4.144 0 01-2.369 2.373c-.439.171-1.102.376-2.316.43-1.317.059-1.712.073-5.042.073s-3.73-.014-5.042-.073c-1.22-.054-1.878-.259-2.316-.43a3.84 3.84 0 01-1.434-.932 3.889 3.889 0 01-.931-1.436c-.17-.44-.376-1.104-.43-2.32-.058-1.319-.072-1.714-.072-5.05s.014-3.736.073-5.05c.053-1.22.258-1.88.429-2.32a3.8 3.8 0 01.936-1.435 3.876 3.876 0 011.434-.933c.438-.17 1.102-.376 2.316-.43 1.316-.058 1.711-.073 5.042-.073 3.335 0 3.73.015 5.042.073 1.219.054 1.877.26 2.316.43.541.2 1.034.518 1.433.933.415.405.732.894.932 1.436.17.44.375 1.103.429 2.32.058 1.318.073 1.713.073 5.05 0 3.335-.015 3.725-.073 5.044z"/><path d="M12.525 6.08c-3.54 0-6.412 2.876-6.412 6.422s2.872 6.422 6.412 6.422 6.412-2.876 6.412-6.422-2.871-6.422-6.412-6.422zm0 10.588a4.163 4.163 0 01-4.159-4.166c0-2.3 1.863-4.166 4.16-4.166a4.163 4.163 0 014.159 4.166c0 2.3-1.863 4.166-4.16 4.166zM20.69 5.826a1.498 1.498 0 11-1.498-1.499c.827 0 1.497.671 1.497 1.5z"/></svg>
