<svg xmlns="http://www.w3.org/2000/svg" xmlns:xlink="http://www.w3.org/1999/xlink" version="1.1" viewBox="-10 0 1034 1024">
   <path d="M446 972q81 0 153 -31t125.5 -84.5t84.5 -125.5t31 -153q0 -64 -20 -124.5t-59 -112.5q-2 -2 -4 -3.5t-5 -1.5t-5.5 0.5t-4.5 2.5q-3 1 -4 3.5t-2 5.5q0 3 0.5 5.5t2.5 4.5q36 48 54.5 104.5t18.5 115.5q0 76 -29 142q-29 67 -78.5 116.5t-116.5 78.5q-66 29 -142 29
t-142 -29q-67 -29 -116.5 -78.5t-78.5 -116.5q-29 -66 -29 -142t29 -142q29 -67 78.5 -116.5t116.5 -78.5q66 -29 142 -29q59 0 115.5 18.5t104.5 54.5q2 2 4.5 2.5t5.5 0.5t5.5 -1.5t3.5 -3.5q2 -3 2.5 -5.5t0.5 -5.5t-1.5 -5t-3.5 -4q-52 -39 -112.5 -59t-124.5 -20
q-81 0 -153 31t-125.5 84.5t-84.5 125.5t-31 153t31 153t84.5 125.5t125.5 84.5t153 31v0zM610 376q1 -1 1.5 -2.5t0.5 -2.5q1 -1 1 -2.5v-3.5q-1 -1 -1.5 -2t-0.5 -3l-2 -2l-2 -2q-35 -25 -76.5 -38.5t-84.5 -13.5q-57 0 -107 22q-49 21 -86.5 58.5t-58.5 86.5
q-22 50 -22 107t22 107q21 49 58.5 86.5t86.5 58.5q50 22 107 22t107 -22q49 -21 86.5 -58.5t58.5 -86.5q22 -50 22 -107q0 -43 -13.5 -84.5t-38.5 -76.5l-2 -2t-2 -1q-1 -1 -2.5 -1.5t-2.5 -0.5q-2 -1 -3 -0.5t-3 0.5q-1 0 -2.5 0.5t-2.5 1.5l-2 2t-1 2q-1 1 -1.5 2.5
t-0.5 2.5v3v3q0 1 0.5 2.5t1.5 2.5q27 37 39 82t6 91q-5 46 -27 87t-57 71q-36 30 -79.5 45.5t-90.5 13.5q-46 -2 -88.5 -20.5t-75.5 -51.5t-51.5 -75.5t-20.5 -88.5q-2 -47 13.5 -91t45.5 -79t71 -57t87 -27q46 -6 91 6t83 39q1 1 2 1.5t3 0.5q1 1 2.5 1t2.5 -1
q1 0 2.5 -0.5t2.5 -0.5l2 -2l2 -2v0zM446 532q3 0 5.5 -1t4.5 -3t3 -4.5t1 -5.5t-1 -5.5t-3 -4.5t-4.5 -3t-5.5 -1q-11 0 -21.5 3t-19.5 9q-9 7 -16 15.5t-11 18.5q-5 10 -6 21t1 21q3 11 8 21t13 17q7 8 17 13t21 8q10 2 21 1t21 -6q10 -4 18.5 -11t15.5 -16q6 -9 9 -19.5
t3 -21.5q0 -3 -1 -5.5t-3 -4.5t-4.5 -3t-5.5 -1t-5.5 1t-4.5 3t-3 4.5t-1 5.5q0 7 -2 13.5t-6 12.5q-4 5 -9 9.5t-11 6.5q-7 3 -13.5 3.5t-13.5 -0.5t-13 -4.5t-11 -7.5q-4 -5 -7.5 -11t-4.5 -13t-0.5 -13.5t3.5 -13.5q2 -6 6.5 -11t9.5 -9q6 -4 12.5 -6t13.5 -2v0zM959 193
l-117 -11l-11 -117q-1 -2 -1.5 -4t-1.5 -4q-2 -1 -3.5 -2.5t-3.5 -1.5q-2 -1 -4 -1h-3l-4 2t-3 2l-156 156q-1 1 -2 2.5t-1 3.5q-1 2 -1 3.5v3.5l27 105l-238 238q-1 1 -1.5 2l-1.5 3q0 1 -0.5 2.5t-0.5 2.5t0.5 2.5t0.5 2.5l1.5 3t1.5 2t2 1.5l3 1.5q1 0 2.5 0.5t2.5 0.5
t2.5 -0.5t2.5 -0.5l3 -1.5t2 -1.5l238 -238l105 27h3.5t3.5 -1q2 0 3.5 -1t2.5 -2l156 -156q1 -1 2 -3l2 -4v-3t-1 -4q0 -2 -1.5 -3.5t-2.5 -3.5q-2 -1 -4 -1.5t-4 -1.5v0zM677 226l129 -129l9 92l-118 118l-20 -81v0zM798 347l-81 -20l118 -118l92 9l-129 129v0z" />
</svg>
