<svg xmlns="http://www.w3.org/2000/svg" xmlns:xlink="http://www.w3.org/1999/xlink" version="1.1" viewBox="-10 0 1034 1024">
   <path d="M512 44h-414q-9 0 -17.5 3.5t-14.5 9.5q-7 7 -10.5 15.5t-3.5 17.5v253q0 9 3.5 17.5t10.5 15.5q6 6 14.5 9.5t17.5 3.5h206q6 34 23 47t22 16q2 1 4 1h4q1 0 3 -1t3 -2q1 -2 2 -3.5t2 -3.5q1 -3 1 -7t-1 -9v-17.5t5 -14.5q2 -3 6.5 -4.5t10.5 -1.5h124q9 0 17.5 -3.5
t14.5 -9.5q7 -7 10.5 -15.5t3.5 -17.5v-253q0 -9 -3.5 -17.5t-10.5 -15.5q-6 -6 -14.5 -9.5t-18.5 -3.5v0zM535 343q0 5 -2 9t-5 7t-7 4.5t-9 1.5h-123q-11 0 -20 3.5t-15 9.5q-8 9 -10 19.5t-1 20.5q-5 -5 -9 -13t-6 -20q-1 -4 -3 -7.5t-5 -6.5q-4 -3 -8 -4.5t-8 -1.5h-206
q-4 0 -8 -1.5t-7 -4.5q-4 -3 -5.5 -7t-1.5 -9v-253q0 -4 1.5 -8t5.5 -8q3 -3 7 -4.5t8 -1.5h414q5 0 9 1.5t7 4.5q3 4 5 8t2 8v253v0zM335 203l-60 -42q-2 -1 -3.5 -1.5t-2.5 -0.5q-2 0 -3.5 0.5t-3.5 0.5q-1 1 -2.5 2t-1.5 3q-1 1 -1.5 2.5t-0.5 3.5v83q0 2 0.5 3.5
t1.5 2.5q0 2 1.5 3t2.5 2q2 0 3.5 0.5t3.5 0.5q1 0 2.5 -0.5t3.5 -1.5l60 -42l2 -2l2 -2q0 -1 0.5 -2.5t0.5 -3.5q0 -1 -0.5 -2.5t-0.5 -2.5q-1 -1 -2 -2.5t-2 -1.5v0v0zM280 231v-37l27 18zM285 100q-16 0 -32 5t-30 14q-14 10 -24.5 22.5t-16.5 28.5q-6 15 -8 31.5t2 32.5
q3 17 10.5 31.5t19.5 26.5q12 11 26.5 19t31.5 11q16 4 32.5 2t31.5 -8q16 -6 28.5 -17t22.5 -24q9 -14 13.5 -30t4.5 -33q0 -22 -8.5 -42.5t-23.5 -36.5q-16 -15 -36.5 -24t-43.5 -9v0zM285 300q-13 0 -25.5 -3.5t-23.5 -10.5q-10 -8 -18.5 -18t-13.5 -22t-6 -25t1 -26
q3 -13 9 -24.5t15 -20.5t20.5 -15t24.5 -9q13 -2 26 -1t25 6t22 13.5t18 19.5q7 10 10.5 22.5t3.5 25.5q0 18 -6.5 34t-18.5 29q-13 12 -29 18.5t-34 6.5v0zM512 408q-22 0 -43 8.5t-37 24.5t-24.5 36.5t-8.5 43.5v50q0 23 9 43.5t24 36.5q16 16 37 24.5t43 8.5
q23 0 43.5 -8.5t36.5 -24.5t24.5 -36.5t8.5 -43.5v-50q0 -23 -8.5 -43.5t-24.5 -36.5t-36.5 -24.5t-43.5 -8.5v0zM601 571q0 18 -6.5 34t-19.5 29q-12 12 -28.5 19t-34.5 7q-17 0 -33.5 -7t-29.5 -19q-12 -13 -19 -29t-7 -34v-50q0 -18 7 -34.5t19 -28.5q13 -12 29.5 -19
t33.5 -7q18 0 34.5 7t28.5 19q13 12 19.5 28.5t6.5 34.5v50zM707 573v44q0 20 8 38.5t22 32.5t32.5 21.5t38.5 7.5t38.5 -7.5t32.5 -21.5t21.5 -32.5t7.5 -38.5v-44q0 -20 -7.5 -38.5t-21.5 -32.5t-32.5 -22t-38.5 -8t-38.5 8t-32.5 22t-22 32.5t-8 38.5v0zM884 573v44
q0 15 -5.5 29t-16.5 25t-25 16.5t-29 5.5t-29.5 -5.5t-24.5 -16.5q-11 -11 -17 -25t-6 -29v-44q0 -16 6 -30t17 -24q10 -11 24.5 -17t29.5 -6t29 6t25 17q11 10 16.5 24t5.5 30v0zM879 727q-4 -1 -7 1.5t-5 5.5q-6 7 -12.5 12t-14.5 9q-7 3 -15.5 4.5t-16.5 1.5q-9 0 -17 -2
t-15 -6q-8 -4 -14.5 -9.5t-11.5 -12.5l-2 -2t-2 -1q-1 -1 -2.5 -1h-3.5q-15 0 -29.5 4.5t-27.5 12.5q-8 -10 -18 -18t-22 -14q-11 -6 -23.5 -9.5t-25.5 -4.5q-5 0 -8 2.5t-5 5.5q-7 8 -14.5 14t-16.5 10t-18.5 6t-19.5 2t-19.5 -2.5t-17.5 -7.5q-9 -4 -16.5 -10.5
t-13.5 -14.5l-2 -2l-2 -2q-2 0 -3 -0.5t-3 -0.5q-24 1 -46.5 10.5t-40.5 27.5q-2 2 -3.5 4t-3.5 4q-12 -8 -25.5 -12t-27.5 -5q-5 -1 -8 1.5t-5 5.5q-5 7 -12 12t-14 9q-8 3 -16 4.5t-17 1.5q-8 0 -16.5 -2t-15.5 -6q-8 -4 -14 -9.5t-11 -12.5l-2 -2t-3 -1q-1 -1 -2.5 -1
h-2.5q-22 0 -42 9t-35 24q-16 16 -24 36t-8 42v100q0 2 1 4t3 4q1 2 3.5 3t4.5 1h261v18q0 2 0.5 4.5t2.5 4.5l4 2t5 1h375q2 0 4.5 -1t3.5 -2q2 -2 3 -4.5t1 -4.5v-18h260q2 0 4.5 -1t3.5 -3q2 -2 3 -4t1 -4v-100q0 -21 -8 -41t-22 -35q-15 -16 -34 -25t-41 -10v0zM64 926
v-88q0 -16 6 -31.5t17 -27.5t25.5 -19.5t30.5 -8.5q7 8 15.5 14.5t18.5 10.5q9 5 19.5 7t21.5 2q10 0 20.5 -2t20.5 -7q9 -4 17.5 -10.5t15.5 -14.5q10 1 19 4.5t17 8.5q-8 14 -11.5 29t-3.5 31v102h-249v0zM688 956h-351v-132q0 -19 7 -37t19 -32q13 -14 30.5 -22.5
t36.5 -9.5q8 9 17.5 16t20.5 13q10 5 22 7.5t24 2.5t23.5 -2.5t22.5 -7.5t20.5 -12.5t17.5 -16.5q19 2 35.5 10.5t28.5 22.5q13 14 19.5 31.5t6.5 36.5v132v0zM960 926h-248v-102q0 -16 -4 -31t-11 -29q8 -6 18 -9t20 -4q7 8 15.5 14.5t17.5 10.5q10 5 20.5 7t20.5 2
q11 0 21.5 -2t19.5 -7q10 -4 18.5 -10.5t15.5 -14.5q15 2 29.5 9.5t24.5 19.5q11 12 16.5 27t5.5 31v88v0zM216 472q-20 0 -38.5 8t-32.5 22t-21.5 32.5t-7.5 38.5v44q0 20 7.5 38.5t21.5 32.5t32.5 21.5t38.5 7.5t38.5 -7.5t32.5 -21.5t22 -32.5t8 -38.5v-44
q0 -20 -8 -38.5t-22 -32.5t-32.5 -22t-38.5 -8v0zM293 617q0 15 -6 29t-17 25q-10 11 -24.5 16.5t-29.5 5.5t-29 -5.5t-25 -16.5t-16.5 -25t-5.5 -29v-44q0 -16 5.5 -30t16.5 -24q11 -11 25 -17t29 -6t29.5 6t24.5 17q11 10 17 24t6 30v44v0z" />
</svg>
