<svg xmlns="http://www.w3.org/2000/svg" xmlns:xlink="http://www.w3.org/1999/xlink" version="1.1" viewBox="-10 0 1034 1024">
   <path d="M744 205q28 0 47.5 -20t19.5 -48v-70q0 -28 -19.5 -47.5t-47.5 -19.5t-47.5 19.5t-19.5 47.5v70q0 28 19.5 48t47.5 20zM983 116h-136v34q0 43 -30 73t-72 30t-72 -30t-30 -73v-34h-273v34q0 43 -30 73t-73 30q-42 0 -72 -30t-30 -73v-34l-137 -1v854h956l-1 -853v0z
M915 901h-818v-546h819v546h-1zM266 205q28 0 48 -20t20 -48v-70q0 -28 -20 -47.5t-48 -19.5t-47.5 19.5t-19.5 47.5v70q0 28 19.5 48t47.5 20zM477 428h-107v95h107v-95zM651 428h-107v95h107v-95zM812 428h-107v95h107v-95zM477 586h-107v95h107v-95zM651 586h-107v95h107
v-95zM812 586h-107v95h107v-95zM477 747h-107v95h107v-95zM307 586h-108v95h108v-95zM307 747h-108v95h108v-95zM651 747h-107v95h107v-95zM812 747h-107v95h107v-95z" />
</svg>