<svg xmlns="http://www.w3.org/2000/svg" xmlns:xlink="http://www.w3.org/1999/xlink" version="1.1" viewBox="-10 0 1044 1024">
   <path d="M999 127q-13 -12 -28 -18.5t-32 -6.5h-854q-17 0 -32 6.5t-28 18.5q-12 13 -18.5 28t-6.5 33v648q0 18 6.5 33t18.5 28q13 12 28 18.5t32 6.5h854q17 0 32 -6.5t28 -18.5q12 -13 18.5 -28t6.5 -33v-648q0 -18 -6.5 -33t-18.5 -28zM956 836q0 4 -1.5 7t-3.5 5q-3 3 -6 4
t-6 1h-854q-3 0 -6 -1t-6 -4q-2 -2 -3.5 -5t-1.5 -7v-324h888v324v0zM956 307h-888v-119q0 -4 1.5 -7t3.5 -5q3 -3 6 -4t6 -1h854q3 0 6 1t6 4q2 2 3.5 5t1.5 7v119v0zM273 717h-136v68h136v-68zM546 717h-205v68h205v-68z" />
</svg>