<svg xmlns="http://www.w3.org/2000/svg" xmlns:xlink="http://www.w3.org/1999/xlink" version="1.1" viewBox="-10 0 1034 1024">
   <path d="M538 636v0q-13 0 -25.5 -3t-24.5 -9l-11 -5q-23 -11 -49 -15.5t-52 -1.5q-26 2 -50.5 11.5t-45.5 24.5h-0.5h-0.5l-26 23q-8 7 -17 11.5t-18 7.5l-15 -48q-1 -2 -2 -3.5t-3 -2.5q-1 -1 -3 -1.5t-4 -0.5h-129h-2.5t-2.5 1q-1 0 -2 1l-2 2t-1.5 2t-0.5 2q-1 1 -1 2.5v2.5
l43 341l2 4t2 3q2 2 4 2.5t4 0.5h194q1 0 2.5 -0.5t2.5 -0.5q1 -1 2 -1.5t2 -2.5q1 -1 1.5 -2t0.5 -3q1 -1 0.5 -2.5t-0.5 -2.5l-25 -81l79 -48q8 -4 17 -5t17 1h1v0l161 29q33 5 66 0.5t63 -18.5l0.5 -0.5l0.5 -0.5l279 -185q1 -1 2.5 -3t2.5 -4q0 -2 -0.5 -4t-1.5 -4
q-8 -13 -19.5 -21.5t-25.5 -12.5q-15 -3 -29.5 -1.5t-27.5 8.5l-5 2q-14 -17 -36 -22.5t-41 3.5v0l-12 6q-10 -8 -22 -13t-25 -6t-26 1.5t-24 9.5l-60 32h-81v0zM116 965l-40 -318h106l100 318h-166v0zM945 653l-268 178q-26 12 -55 16t-58 -1l-160 -29q-13 -3 -26.5 -1.5
t-25.5 8.5h-0.5h-0.5l-74 45l-52 -167q12 -3 23 -9t21 -14l26 -23q18 -13 39.5 -21t43.5 -10q23 -2 45.5 1.5t43.5 13.5l11 5q14 7 29.5 10.5t30.5 3.5h107q12 0 23 4t20 11q10 7 16 17t8 21l-78 -3q-21 -1 -42 0t-42 3q-3 1 -5 2t-3 3q-2 2 -2.5 4t0.5 4q0 3 1 5t3 3t4.5 2
t4.5 0q20 -2 40 -3t40 0l91 4h1v0q2 0 4.5 -1t3.5 -3q2 -1 3 -3.5t1 -4.5v-2.5v-2.5l12 -7l133 -69q7 -4 15.5 -5.5t17.5 0.5q8 1 16 5t14 10v0zM799 627q11 -5 23.5 -2t21.5 12l-112 58q-3 -7 -6.5 -13.5t-8.5 -12.5l82 -42v0zM691 624v0q7 -4 15 -6t16 -2t16 2t15 7
l-54 28q-7 -6 -16 -9.5t-18 -5.5l26 -14v0zM154 917q0 5 1.5 10.5t4.5 9.5q3 5 7.5 8.5t9.5 5.5t11 2.5t11 -0.5q6 -1 10.5 -3.5t8.5 -6.5t7 -9t4 -10t0.5 -10.5t-2.5 -10.5q-3 -5 -6.5 -9.5t-7.5 -7.5q-5 -3 -10.5 -4.5t-10.5 -1.5q-8 0 -15 3t-12 8t-8 12t-3 14v0z
M192 904q2 0 4 0.5t3 1.5q2 1 3.5 2.5t1.5 3.5q1 2 1.5 4t-0.5 3q0 2 -1 4t-3 3q-1 2 -3 3t-4 1h-4t-4 -1q-1 -1 -3 -2t-3 -3q-1 -1 -1.5 -3t-0.5 -4q0 -3 1 -5.5t3 -4.5q2 -1 4.5 -2t5.5 -1v0zM773 90q-8 0 -16 2t-16 6q-7 5 -12.5 11t-9.5 13t-5.5 15t-1.5 16q1 8 4 16
t7 14l-88 66l-84 -108q7 -6 12 -13.5t8 -16.5q3 -8 2.5 -17.5t-3.5 -17.5q-3 -9 -8.5 -16.5t-13.5 -12.5t-17 -8t-18 -3q-10 0 -19 2.5t-17 7.5q-7 5 -13 12.5t-9 15.5q-4 9 -4.5 18t2.5 18q2 9 7 16.5t12 13.5l-90 109l-82 -65q6 -8 9 -17.5t3 -19.5t-4 -19t-10 -17
q-7 -8 -16 -13t-19 -7t-20.5 -0.5t-19.5 5.5q-9 5 -16.5 12t-11.5 16t-5 19t1 20t8 18t14 15q8 6 17.5 9t20.5 3v0h1l29 214v62q0 2 1 4l2 4q2 2 4.5 2.5t4.5 0.5h438q2 0 4.5 -0.5t4.5 -2.5l2 -4t1 -4v-62l29 -214h1v0q12 0 23.5 -4.5t19.5 -12.5q9 -8 13.5 -19t4.5 -23
t-4.5 -22.5t-13.5 -19.5q-8 -8 -19.5 -12.5t-23.5 -4.5v0zM512 59q6 0 12 2t11 6q5 3 8.5 8.5t4.5 11.5q2 5 1.5 11t-3.5 12q-3 5 -7 9.5t-10 7.5l-1 0.5l-1 0.5q-4 2 -7.5 2.5t-7.5 0.5q-3 0 -7 -0.5t-7 -1.5v-0.5v-0.5q-1 0 -2.5 -1t-2.5 -1q-5 -3 -9 -7.5t-7 -9.5
q-2 -6 -2.5 -12t1.5 -11q2 -6 5.5 -11t7.5 -9q5 -3 11 -5t12 -2v0zM213 149q0 -4 1.5 -8.5t3.5 -8.5t5 -7t7 -6q4 -2 8 -3.5t9 -2.5q4 0 9 0.5t9 2.5q4 1 8 4t6 6q3 3 5 7t3 9q1 4 1 8.5t-2 8.5q-1 5 -3.5 8.5t-5.5 6.5q-1 1 -2.5 2t-2.5 2v0.5v0.5q-3 2 -6 3l-6 2h-1h-1
q-4 1 -8 1t-8 -1t-8 -2.5t-7 -4.5t-5.5 -6t-4.5 -7q-2 -3 -3 -7t-1 -8v0v0zM305 472v-39h414v39h-414v0zM721 409h-418l-28 -206q2 0 3.5 -1t3.5 -2l94 75q2 1 4 1.5t4 0.5h0.5h0.5q1 0 2.5 -0.5t2.5 -0.5l1.5 -1.5l1.5 -1.5l101 -121q8 2 17 2.5t18 -2.5l94 121l1.5 1.5
l1.5 1.5q1 0 2.5 0.5t2.5 0.5h0.5h0.5q2 0 4 -0.5t4 -1.5l101 -75l4 2t4 1l-28 206v0zM773 185h-3.5t-3.5 -1h-1h-1q-7 -2 -12.5 -6t-9.5 -10t-5 -12.5t0 -13.5t5 -12.5t10 -9.5t12.5 -5.5t13.5 -0.5q7 0 13.5 3.5t10.5 8.5q5 6 7 12.5t2 13.5q-1 6 -4 12.5t-8 11.5
q-5 4 -12 6.5t-14 2.5v0v0zM484 272q-1 -4 -5.5 -6t-10.5 -2t-10.5 2t-5.5 6l-28 88v1v1q0 5 5.5 7.5t10.5 2.5q4 0 6 -1.5t2 -3.5l5 -17h30l5 17q0 2 2 3.5t6 1.5q5 0 10.5 -2.5t5.5 -7.5v-1.5v-0.5l-28 -88v0zM478 331h-20l10 -34l10 34v0zM557 265h-27q-5 0 -8 2t-3 5v92
q0 4 3 6t8 2h27q18 0 27.5 -9t9.5 -26v-37q0 -17 -9.5 -26t-27.5 -9v0zM557 351h-13v-65h13q6 0 9 3.5t3 10.5v37q0 7 -3 10.5t-9 3.5v0z" />
</svg>
