<svg xmlns="http://www.w3.org/2000/svg" viewBox="0 0 25 25" fill="currentColor">
  <path d="m23.77 20.92c0.6351-0.8926 1.234-4.972 1.234-8.417 0-3.211-0.5659-7.468-1.231-8.413-0.1234-0.1747-0.2907-0.3-0.475-0.3698-4.467-1.691-20.49-1.306-21.97 0.253-0.07573 0.0797-0.1538 0.1938-0.2042 0.3165-0.824 1.999-1.121 5.925-1.121 8.213 0 2.3 0.3084 6.287 1.125 8.221 0.04986 0.1183 0.1248 0.2284 0.2007 0.3084 1.486 1.563 17.51 1.943 21.97 0.253 0.1874-0.071 0.3514-0.1965 0.472-0.3657zm-7.579-8.417 6.205-5.894c0.7365 3.472 0.7474 8.265 0 11.79zm4.659-7.259-8.346 7.928-8.346-7.928c4.428-0.7756 12.24-0.7797 16.69 0zm-18.24 13.15c-0.7366-3.472-0.7475-8.265-1e-4 -11.79l6.205 5.894zm1.546 1.364 6.15-5.842 1.489 1.414c0.3963 0.3765 1.018 0.3764 1.414 0l1.489-1.414 6.15 5.842c-4.428 0.7756-12.24 0.7795-16.69 0z" />
</svg>
