<svg xmlns="http://www.w3.org/2000/svg" viewBox="0 0 26 26" fill="currentColor">
  <path d="m23.53 7.15e-4c-1.904-0.004893-5.964 0.003906-14.73 0.003906-1.261 0-2.287 1.028-2.287 2.289v2.033c0 0.5896 0.4788 1.066 1.068 1.066 0.5896 0 1.066-0.4768 1.066-1.066v-2.033c0-0.08408 0.06826-0.1523 0.1523-0.1523h12.41l-5.52 3.449c-0.3121 0.195-0.502 0.5362-0.502 0.9043v11.95h-6.389c-0.08408 0-0.1523-0.06824-0.1523-0.1523v-5.287c0-0.5895-0.4768-1.068-1.066-1.068-0.5896 0-1.068 0.4789-1.068 1.068v5.287c0 1.261 1.026 2.287 2.287 2.287h6.389v4.354c0 0.842 0.9286 1.346 1.633 0.9062l8.676-5.422c0.3121-0.1951 0.502-0.5382 0.502-0.9062 0-19.82 0.0036-18.45-0.0039-18.53-0.03541-0.3956-0.2888-0.7412-0.6621-0.8926-0.1452-0.05887 0.1054-0.07909-1.799-0.08398zm0.3301 2.998v15.92l-6.541 4.088v-15.92zm-13.96 2.439c-0.2704-0.03865-0.5551 0.02624-0.791 0.2031-0.4716 0.3538-0.5666 1.023-0.2129 1.494l1.146 1.529-1.146 1.527c-0.3538 0.4717-0.2587 1.142 0.2129 1.496 0.4698 0.3522 1.139 0.2588 1.494-0.2148l1.627-2.168c0.2847-0.3796 0.2847-0.9017 0-1.281l-1.627-2.17c-0.1769-0.2358-0.4327-0.3774-0.7031-0.416zm-8.826 2.158c-0.5896 0-1.066 0.4788-1.066 1.068 0 0.5896 0.4768 1.066 1.066 1.066h5.965c0.5896 0 1.068-0.4768 1.068-1.066 0-0.5896-0.4788-1.068-1.068-1.068zm18.44 3.795c-0.5896 0-1.066 0.4788-1.066 1.068v1.084c0 0.5895 0.4768 1.068 1.066 1.068s1.068-0.4788 1.068-1.068v-1.084c0-0.5896-0.4788-1.068-1.068-1.068zm-18.44 2.713c-0.5896 0-1.066 0.4768-1.066 1.066s0.4768 1.068 1.066 1.068h2.711c0.5896 0 1.068-0.4788 1.068-1.068s-0.4788-1.066-1.068-1.066z" />
</svg>
