<svg xmlns="http://www.w3.org/2000/svg" xmlns:xlink="http://www.w3.org/1999/xlink" version="1.1" viewBox="-10 0 1034 1024">
   <path d="M602 201q0 -19 -3.5 -38t-11.5 -37q-7 -17 -17.5 -33.5t-24.5 -29.5q-14 -14 -30 -24.5t-34 -18.5q-17 -7 -36 -11t-38 -4q-20 0 -39 4t-36 11q-18 8 -34 18.5t-30 24.5q-13 13 -24 29.5t-18 33.5q-7 18 -11 37t-4 38v82q-5 2 -10 5t-9 8q-4 4 -7 9.5t-4 10.5
q-3 11 -1.5 22t7.5 21q5 10 13.5 17t19.5 11l7 24q3 19 10.5 37t18.5 33q11 16 25 29t31 23v55l-124 40q-13 4 -24.5 11.5t-20.5 16.5q-10 10 -16.5 21.5t-10.5 24.5q0 2 -0.5 3t-0.5 2q-1 5 -2 11t0 12v91q0 3 1 5.5t3 4.5t4.5 3t5.5 1h502v-28h-488v-77q-1 -4 -0.5 -8.5
t1.5 -8.5q0 -1 0.5 -1.5t0.5 -1.5q3 -10 8 -18.5t12 -15.5t15.5 -12.5t18.5 -8.5l127 -41q20 9 40.5 14t41.5 5q22 0 42.5 -5t40.5 -14l103 33l9 -26l-100 -33v-55q17 -10 31 -23t25 -29q11 -15 18.5 -33t10.5 -37l7 -24q11 -4 19.5 -11t13.5 -17q6 -10 7.5 -21t-1.5 -22
q-1 -5 -4 -10.5t-7 -9.5q-4 -5 -9 -8t-10 -5v-82v0zM422 207q12 13 49.5 38t102.5 32v3q-26 -1 -88.5 -11.5t-120.5 -50.5q14 -2 28.5 -5t28.5 -6v0zM239 201q0 -16 3 -32.5t10 -31.5q6 -15 15 -29t21 -25q12 -12 25.5 -21t28.5 -16q16 -6 32 -9.5t33 -3.5q16 0 32 3.5
t32 9.5q15 7 28.5 16t25.5 21q12 11 21 25t15 29q7 15 10 31.5t3 32.5v48q-34 -5 -59 -15t-41 -20q-5 -4 -10.5 -8t-10.5 -8q24 -8 44.5 -18.5t37.5 -23.5q2 -2 3.5 -4.5t1.5 -5.5q0 -2 -0.5 -5t-2.5 -5q-1 -2 -3.5 -3.5t-5.5 -1.5q-3 -1 -5.5 0t-4.5 2q-34 26 -77 39
q-44 13 -82.5 18t-65.5 5h-27h-3.5t-2.5 1q-1 0 -2.5 1t-2.5 2t-1.5 2t-1.5 2q0 1 -0.5 2.5t-0.5 2.5l-3 66q0 2 -0.5 3t-1.5 2q0 1 -1 2t-3 2l-1 0.5t-2 0.5v-83v0zM473 590q-15 7 -32 11t-34 4q-18 0 -35 -4t-32 -11v-43q32 13 66.5 13t66.5 -13v43zM606 331q0 5 -2 10.5
t-6 9.5q-3 4 -8 7t-10 4q-3 0 -4.5 1t-3.5 3q-1 1 -2 3l-2 4l-9 31v0.5v0.5q-5 27 -19 50.5t-35 40.5q-20 17 -45.5 26.5t-52.5 9.5q-28 0 -53.5 -9.5t-45.5 -26.5q-21 -17 -35 -40.5t-19 -50.5v-0.5v-0.5l-9 -31l-2 -4t-2 -3q-2 -2 -3.5 -3t-4.5 -1l-6 -2t-5 -3
q-3 -2 -5.5 -4t-4.5 -5q-1 -3 -2.5 -6t-1.5 -6q-1 -3 -1 -6.5t1 -6.5q1 -2 2 -4.5t3 -4.5t4 -3.5t5 -1.5q4 2 8.5 2.5t9.5 0.5t9.5 -1.5t8.5 -4.5q4 -2 7 -5.5t6 -7.5q2 -4 3.5 -8.5t1.5 -9.5l2 -52h20t26 -1q40 34 86 52q45 18 84 25.5t65 7.5q27 1 29 1h1v0q3 0 5.5 1.5
t4.5 3.5t3.5 4.5t2.5 5.5q0 2 0.5 4t0.5 4v0zM641 694l46 33l-17 52q-1 2 -1 4.5t1 4.5q0 2 1.5 3.5l3.5 3.5q1 1 3.5 2t4.5 1t4 -1l4 -2l46 -33l47 33l4 2t4 1q2 -1 4.5 -1.5t3.5 -1.5l3.5 -3.5t1.5 -3.5q1 -2 1 -4.5t-1 -4.5l-17 -52l46 -33q2 -1 3 -3l2 -4t1 -4.5
t-1 -4.5t-2 -3.5t-3 -3.5q-2 -1 -4 -1.5t-4 -0.5h-58l-17 -53q-1 -2 -2.5 -4t-2.5 -3q-2 -2 -4 -2.5t-5 -0.5q-2 0 -4 0.5t-4 2.5q-1 1 -2.5 3t-2.5 4l-17 53h-58q-2 0 -4 0.5t-4 1.5q-2 2 -3 3.5t-2 3.5t-1 4.5t1 4.5l2 4t3 3v0zM717 697q2 0 4 -1l4 -2t3 -3l2 -4l7 -23
l8 23l2 4t3 3l4 2t4 1h24l-19 13q-2 1 -3 3l-2 4t-1 4t1 5l7 21l-19 -13q-2 -2 -4 -2.5t-5 -0.5q-2 0 -4 0.5t-4 2.5l-19 13l7 -21q1 -3 1 -5t-1 -4l-2 -4t-3 -3l-19 -13h24v0zM624 1017q2 1 4 1h4q2 -1 3.5 -1.5t3.5 -2.5l98 -94l99 94q2 2 3.5 2.5t3.5 1.5h4t4 -1
t3.5 -2.5l2.5 -2.5q2 -2 2.5 -4t0.5 -4v-176q12 -12 21.5 -26t16.5 -29q7 -16 10 -32.5t3 -33.5q0 -70 -51 -119.5t-123 -49.5q-71 0 -122.5 49.5t-51.5 119.5q1 17 4 33.5t10 32.5q7 15 16.5 29t21.5 26v176q0 2 0.5 4t2.5 4l2.5 2.5t3.5 2.5v0zM832 971l-85 -81
q-2 -2 -4.5 -3t-5.5 -1q-2 0 -4.5 1t-4.5 3l-85 81v-121q21 13 45 20t49 7q26 0 50 -7t45 -20v121v0zM591 707q0 -58 43 -99.5t103 -41.5q61 0 103.5 41.5t42.5 99.5q0 59 -42.5 100.5t-103.5 41.5q-60 0 -103 -41.5t-43 -100.5v0v0z" />
</svg>
