<svg xmlns="http://www.w3.org/2000/svg" xmlns:xlink="http://www.w3.org/1999/xlink" version="1.1" viewBox="-10 0 1044 1024">
   <path d="M512 946q-3 0 -6.5 -1t-5.5 -4l-496 -590q-4 -4 -4 -9.5t3 -9.5l186 -248q2 -3 5.5 -4.5t7.5 -1.5h620q4 0 7.5 1.5t5.5 4.5l186 248q3 4 3 9.5t-4 9.5l-496 590q-2 3 -5.5 4t-6.5 1v0zM35 341l477 566l477 -566l-174 -232h-606l-174 232v0zM1008 357h-992
q-7 0 -11.5 -4.5t-4.5 -11.5q0 -6 4.5 -10.5t11.5 -4.5h992q7 0 11.5 4.5t4.5 10.5q0 7 -4.5 11.5t-11.5 4.5zM512 946h-2.5h-2.5q-6 -2 -9 -8t-1 -12l186 -589q2 -6 8 -9t12 -1q6 1 9 7t1 12l-186 590q-2 5 -6 7.5t-9 2.5zM512 946q-5 0 -9 -2.5t-6 -7.5l-186 -590
q-2 -6 1 -12t9 -7q6 -2 12 1t8 9l186 589q2 6 -1 12t-9 8h-2.5h-2.5v0zM326 357q-4 0 -8 -2.5t-6 -6.5l-124 -248q-3 -6 -1 -12t8 -9t12 -1t9 8l124 248q3 6 0.5 12t-7.5 9q-2 1 -3.5 1.5t-3.5 0.5v0zM326 357q-3 0 -5 -1l-4 -2q-6 -4 -6.5 -10.5t2.5 -11.5l187 -248
q3 -5 9.5 -6t11.5 3t6 10t-3 11l-186 249q-2 3 -5.5 4.5t-6.5 1.5v0zM698 357q-3 0 -6.5 -1.5t-5.5 -4.5l-186 -249q-4 -5 -3 -11t6 -10t11.5 -3t9.5 6l187 248q3 5 2.5 11.5t-6.5 10.5l-4 2t-5 1v0zM698 357q-2 0 -3.5 -0.5t-3.5 -1.5q-5 -3 -7.5 -9t0.5 -12l124 -248
q3 -6 9 -8t12 1t8 9t-1 12l-124 248q-2 4 -6 6.5t-8 2.5v0z" />
</svg>