<svg xmlns="http://www.w3.org/2000/svg" xmlns:xlink="http://www.w3.org/1999/xlink" version="1.1" viewBox="-10 0 750 1024">
   <path d="M595 407q0 -57 -37 -92.5t-98 -35.5h-182v255h182q60 0 97.5 -35t37.5 -92zM730 407q0 110 -72 179.5t-186 69.5h-194v67h288q8 0 13 5t5 13v73q0 8 -5 13.5t-13 5.5h-288v109q0 8 -5.5 13t-12.5 5h-96q-8 0 -13 -5t-5 -13v-109h-128q-8 0 -13 -5.5t-5 -13.5v-73
q0 -8 5 -13t13 -5h128v-67h-128q-8 0 -13 -5t-5 -13v-85q0 -7 5 -13t13 -6h128v-358q0 -8 5 -13t13 -5h308q114 0 186 69.5t72 179.5z" />
</svg>