<svg fill="currentColor" viewBox="0 0 66 84" xmlns="http://www.w3.org/2000/svg">
  <path d="m33.87 50.51h-7.852v8.848h22.15v11.07h-22.15v13.57h-17.87v-13.57h-8.145v-11.07h8.145v-8.848h-8.145v-11.07h8.145v-39.43h24.38c5.078 0 9.668 0.5078 13.77 1.523 4.102 0.9766 7.598 2.5 10.49 4.57 2.93 2.07 5.176 4.727 6.738 7.969 1.602 3.242 2.402 7.09 2.402 11.54 0 3.242-0.4493 6.113-1.348 8.613-0.8984 2.461-2.129 4.629-3.691 6.504-1.562 1.836-3.379 3.379-5.449 4.629s-4.297 2.266-6.68 3.047c-2.383 0.7422-4.844 1.289-7.383 1.641-2.539 0.3125-5.039 0.4688-7.5 0.4688zm-7.852-39.37v28.3h6.914c5.039 0 8.809-1.289 11.31-3.867 2.539-2.578 3.809-6.074 3.809-10.49 0-4.297-1.27-7.695-3.809-10.2-2.5-2.5-6.27-3.75-11.31-3.75z"/>
</svg>
