<svg fill="#fff" xmlns="http://www.w3.org/2000/svg" xmlns:xlink="http://www.w3.org/1999/xlink" version="1.1" viewBox="-10 0 1034 1024">
   <path d="M749 522q0 15 -11 26l-310 310q-11 11 -26 11q-14 0 -25 -11t-11 -26v-164h-255q-15 0 -26 -11t-11 -26v-218q0 -15 11 -26t26 -11h255v-164q0 -15 11 -26t26 -11q14 0 25 11l310 310q11 11 11 26zM584 858v-16q0 -28 19 -28h183q37 0 64 -27t27 -64v-402q0 -37 -27 -64
t-64 -27h-178q-24 0 -24 -29v-16q0 -28 19 -28h183q67 0 115 48q49 49 49 116v402q0 67 -48 115q-49 49 -116 49h-183q-19 0 -19 -29z" />
</svg>
