<svg
  viewBox="0 0 33 33"
  fill="none"
  xmlns="http://www.w3.org/2000/svg"
>
  <circle cx="16.5" cy="16.5" r="15.2" stroke="#2691F4" stroke-width="1.4" />
  <path
    d="M16.5 31C24.5081 31 31 24.5081 31 16.5C31 8.49187 24.5081 2 16.5 2C8.49187 2 2 8.49187 2 16.5C2 24.5081 8.49187 31 16.5 31Z"
    fill="#F4F8FF"
  />
  <path
    d="M16.5687 22.7109C16.5458 22.7109 16.523 22.7338 16.5001 22.7338C16.4773 22.7338 16.4545 22.7109 16.4316 22.7109H16.5687Z"
    fill="#84DBFF"
  />
  <path
    d="M27.7576 25.6339C25.1088 28.8992 21.0443 31 16.5002 31C11.9561 31 7.8915 28.8992 5.24268 25.6339C7.13795 23.0992 10.038 21.8433 12.4128 21.2268C12.2301 22.7339 13.0065 24.7433 13.0293 24.6977C13.8285 22.8709 16.5002 22.7111 16.5002 22.7111C16.5002 22.7111 19.1718 22.8709 19.9482 24.6977C19.971 24.7433 20.7702 22.7339 20.5647 21.2268C22.9624 21.8433 25.8852 23.0992 27.7576 25.6339Z"
    fill="#2691F4"
  />
  <path
    d="M19.7656 19.811C19.7656 19.811 19.7656 19.811 19.7656 19.8338C19.7656 20.0621 19.6514 21.5236 16.5687 22.6881H16.4317C13.349 21.5236 13.2349 20.0621 13.2349 19.8338C13.2349 19.811 13.2349 19.811 13.2349 19.811C13.2349 19.5141 13.3034 19.2173 13.3719 18.9204C14.2624 20.0393 15.3356 20.7929 16.5002 20.7929C17.6648 20.7929 18.738 20.0393 19.6286 18.9204C19.6971 19.2173 19.7656 19.5141 19.7656 19.811Z"
    fill="white"
  />
  <path
    d="M19.7654 19.811C19.7654 19.811 19.9252 21.4551 16.5 22.7339C16.5 22.7339 19.1717 22.8937 19.948 24.7205C19.9937 24.7662 21.5236 20.7929 19.7654 19.811Z"
    fill="#1786EC"
  />
  <path
    d="M13.2348 19.811C11.4765 20.7929 13.0064 24.7662 13.0521 24.6977C13.8513 22.8709 16.5001 22.711 16.5001 22.711C13.0749 21.4551 13.2348 19.811 13.2348 19.811Z"
    fill="#1786EC"
  />
  <path
    d="M21.2949 14.0338C21.0894 15.4496 20.4728 16.774 19.4453 17.7787C19.2398 17.9842 19.0571 18.1441 18.8287 18.3039L18.4634 17.1393H14.5358L14.1705 18.3039C13.4398 17.7559 11.9099 16.226 11.887 14.7874C11.2476 6.58975 17.5272 8.32518 17.5272 8.32518C21.7516 8.02833 21.6146 11.7504 21.2949 14.0338Z"
    fill="white"
  />
  <path
    d="M22.1402 15.5181C21.8205 16.0433 21.3866 16.4086 20.9756 16.5456C21.1354 16.1803 21.2724 15.7921 21.3866 15.4039C21.3866 15.4039 21.3866 15.4039 21.3866 15.381C21.4779 15.0385 21.5693 14.696 21.6606 14.3535H21.6378C21.7291 14.011 21.8205 13.6684 21.889 13.3259C21.9803 13.3259 22.0717 13.3716 22.163 13.4173C22.6654 13.737 22.6425 14.6732 22.1402 15.5181Z"
    fill="white"
  />
  <path
    d="M12.0243 16.5457C11.6132 16.4087 11.1794 16.0434 10.8597 15.5182C10.3345 14.6733 10.3345 13.7371 10.8369 13.4402C10.8825 13.4174 10.9054 13.3945 10.951 13.3945C11.225 14.4678 11.5447 15.267 11.6132 15.4268C11.7274 15.7922 11.8644 16.1804 12.0243 16.5457Z"
    fill="white"
  />
  <path
    d="M18.9888 6.04178C19.1715 3.94099 15.8377 4.078 15.8377 4.078C10.7912 4.8087 10.2432 9.51264 10.2432 9.51264L10.9282 8.69059C9.85498 11.0426 11.4762 15.0843 11.6132 15.404C12.4581 18.2126 14.3306 20.793 16.4999 20.793C18.6691 20.793 20.5416 18.2126 21.3865 15.404C21.3865 15.404 21.3865 15.404 21.3865 15.3811C21.4778 15.0386 21.5691 14.6961 21.6377 14.3536H21.6148C22.0715 12.5268 22.5739 10.6772 22.5739 10.6772C23.8754 4.12366 18.9888 6.04178 18.9888 6.04178ZM21.2951 14.0339C21.0896 15.4497 20.4731 16.7741 19.4455 17.7788C19.24 17.9843 19.0345 18.1441 18.829 18.304L18.4636 17.1622H14.5361L14.1707 18.3268C13.44 17.7788 12.8235 17.0252 12.3211 16.1575C12.0928 15.7008 11.9558 15.2213 11.8873 14.8103C11.2479 6.61264 17.5274 8.34807 17.5274 8.34807C21.7518 8.02839 21.6148 11.7504 21.2951 14.0339Z"
    fill="#324A5E"
  />
  <path
    d="M18.9888 6.04178C19.1715 3.94099 15.8377 4.078 15.8377 4.078C10.7912 4.8087 10.2432 9.51264 10.2432 9.51264L10.9282 8.69059C9.85498 11.0426 11.4762 15.0843 11.6132 15.404C12.4581 18.2126 14.3306 20.793 16.4999 20.793C18.6691 20.793 20.5416 18.2126 21.3865 15.404C21.3865 15.404 21.3865 15.404 21.3865 15.3811C21.4778 15.0386 21.5691 14.6961 21.6377 14.3536H21.6148C22.0715 12.5268 22.5739 10.6772 22.5739 10.6772C23.8754 4.12366 18.9888 6.04178 18.9888 6.04178ZM21.2951 14.0339C21.0896 15.4497 20.4731 16.7741 19.4455 17.7788C19.24 17.9843 19.0345 18.1441 18.829 18.304L18.4636 17.1622H14.5361L14.1707 18.3268C13.44 17.7788 12.8235 17.0252 12.3211 16.1575C12.0928 15.7008 11.9558 15.2213 11.8873 14.8103C11.2479 6.61264 17.5274 8.34807 17.5274 8.34807C21.7518 8.02839 21.6148 11.7504 21.2951 14.0339Z"
    fill="#324A5E"
  />
  <path
    d="M18.9888 6.04178C19.1715 3.94099 15.8377 4.078 15.8377 4.078C10.7912 4.8087 10.2432 9.51264 10.2432 9.51264L10.9282 8.69059C9.85498 11.0426 11.4762 15.0843 11.6132 15.404C12.4581 18.2126 14.3306 20.793 16.4999 20.793C18.6691 20.793 20.5416 18.2126 21.3865 15.404C21.3865 15.404 21.3865 15.404 21.3865 15.3811C21.4778 15.0386 21.5691 14.6961 21.6377 14.3536H21.6148C22.0715 12.5268 22.5739 10.6772 22.5739 10.6772C23.8754 4.12366 18.9888 6.04178 18.9888 6.04178ZM21.2951 14.0339C21.0896 15.4497 20.4731 16.7741 19.4455 17.7788C19.24 17.9843 19.0345 18.1441 18.829 18.304L18.4636 17.1622H14.5361L14.1707 18.3268C13.44 17.7788 11.9101 16.2489 11.8873 14.8103C11.2479 6.61264 17.5274 8.34807 17.5274 8.34807C21.7518 8.02839 21.6148 11.7504 21.2951 14.0339Z"
    fill="#19233C"
  />
  <path
    d="M14.9014 17.9385C15.2896 18.3723 15.8604 18.6692 16.4998 18.6692C17.1392 18.6692 17.71 18.3952 18.0982 17.9385H14.9014Z"
    fill="white"
  />
</svg>
