<svg xmlns="http://www.w3.org/2000/svg" xmlns:xlink="http://www.w3.org/1999/xlink" version="1.1" viewBox="-10 0 1044 1024">
   <path d="M238 222h1.5h1.5l361 -94q18 -5 25 -21.5t-1 -32.5q-11 -20 -33.5 -27t-43.5 3l-316 149q-9 4 -7 13.5t12 9.5v0zM774 119q-4 0 -7.5 0.5t-7.5 1.5l-96 25q-33 9 -28.5 42.5t38.5 33.5h109q25 0 39.5 -19.5t8.5 -43.5q-5 -18 -21 -29t-35 -11v0zM908 260h-850
q-14 0 -25.5 6t-19.5 15q-4 4 -6.5 9t-4.5 11q-1 3 -1.5 7t-0.5 7v610q0 23 17 39t40 16h850q24 0 41 -16t17 -39q0 -63 -45 -107.5t-108 -44.5h-188q-41 0 -69.5 -27.5t-28.5 -66.5v-121q0 -19 7.5 -36t20.5 -29q11 -11 26 -18.5t32 -9.5h6h6h329q5 0 8.5 -3.5t3.5 -8.5
v-138q0 -22 -17 -38.5t-40 -16.5v0zM1005 517q-4 -4 -9 -6.5t-11 -4.5q-4 -2 -9 -2.5t-9 -0.5h-343q-24 0 -41 16t-17 38v122q0 23 17 39t41 16h343q4 0 9 -0.5t9 -2.5q6 -2 11 -4.5t9 -6.5q9 -8 14 -18.5t5 -22.5v-122q0 -12 -5 -22t-14 -18v0zM744 629q0 12 -8.5 20
t-20.5 8h-19q-12 0 -20.5 -8t-8.5 -20v-18q0 -6 3 -12t8 -9q4 -3 8.5 -4.5t9.5 -1.5h19q12 0 20.5 8t8.5 19v18z" />
</svg>