<svg viewBox="0 0 15 12" xmlns="http://www.w3.org/2000/svg"><path d="M14.242 4.788v.39a.583.583 0 0 1-.583.583h-.194l-.635 4.442a1.167 1.167 0 0 1-1.155 1.002H2.81c-.58 0-1.073-.427-1.155-1.002L1.02 5.761H.826a.583.583 0 0 1-.584-.584v-.389c0-.322.262-.583.584-.583h1.637L5.058.637a.778.778 0 0 1 1.258.914l-1.93 2.654h5.713l-1.93-2.654A.778.778 0 0 1 9.427.637l2.595 3.568h1.637c.322 0 .583.261.583.583zM7.826 9.066V6.344a.583.583 0 1 0-1.167 0v2.722a.583.583 0 1 0 1.167 0zm2.722 0V6.344a.583.583 0 1 0-1.167 0v2.722a.583.583 0 1 0 1.167 0zm-5.444 0V6.344a.583.583 0 1 0-1.167 0v2.722a.583.583 0 1 0 1.167 0z" fill="currentColor"/></svg>