<svg width="16" height="16" viewBox="0 0 16 16" fill="none" xmlns="http://www.w3.org/2000/svg"><defs/><path d="M9.679 0c1.883 0 2.777.173 3.704.669.838.448 1.5 1.11 1.948 1.948.497.928.669 1.821.669 3.704V9.68c0 1.883-.172 2.777-.669 3.704a4.693 4.693 0 01-1.948 1.948c-.927.497-1.821.669-3.704.669H6.32c-1.883 0-2.776-.172-3.704-.669a4.692 4.692 0 01-1.948-1.948C.173 12.456 0 11.562 0 9.68V6.32c0-1.883.173-2.776.669-3.704A4.692 4.692 0 012.617.669C3.545.173 4.438 0 6.32 0H9.68zm1.215 9.049L7.838 12.82a.727.727 0 01-1.03.101L5.135 11.53l-2.254 2.254c.132.098.272.186.42.266.689.368 1.356.497 3.02.497h3.357c1.663 0 2.33-.13 3.018-.497a3.239 3.239 0 001.352-1.352c.106-.2.193-.397.262-.618l-3.417-3.03zM9.679 1.455H6.32c-1.663 0-2.33.128-3.018.496A3.238 3.238 0 001.95 3.303c-.368.688-.496 1.355-.496 3.018V9.68c0 1.641.125 2.312.482 2.99l2.64-2.638a.727.727 0 01.98-.044l1.615 1.346 3.07-3.79a.727.727 0 011.048-.087l3.247 2.879c.006-.2.008-.418.008-.656V6.32c0-1.663-.128-2.33-.496-3.018a3.238 3.238 0 00-1.352-1.352c-.688-.368-1.355-.496-3.018-.496zM5.455 4.364a1.09 1.09 0 110 2.181 1.09 1.09 0 010-2.181z" fill="currentColor"/></svg>