<svg width="16" height="16" viewBox="0 0 16 16" fill="none" xmlns="http://www.w3.org/2000/svg"><defs/><path d="M9.077 11.4a1.19 1.19 0 01.785-.296h3.244c.854 0 1.362-.51 1.362-1.366V2.904c0-.857-.508-1.366-1.362-1.366H2.894c-.854 0-1.362.51-1.362 1.366v6.834c0 .856.508 1.366 1.362 1.366H5.02c.596.173.596.173.767.77v2.416l3.29-2.89zm-4.196 4.345c-.402-.303-.626-.836-.626-1.31v-1.793H2.894C1.194 12.642 0 11.443 0 9.738V2.904C0 1.198 1.194 0 2.894 0h10.212C14.806 0 16 1.198 16 2.904v6.834c0 1.705-1.194 2.904-2.894 2.904H9.99l-3.17 2.784c-.624.614-1.353.76-1.94.319z" fill="currentColor"/></svg>