<svg width="16" height="14" viewBox="0 0 16 14" fill="none" xmlns="http://www.w3.org/2000/svg"><defs/><path d="M7.965 11.405c.21 1.202-.583 2.349-1.77 2.561-1.186.212-2.318-.59-2.527-1.793l-.333-1.915C1.442 9.94 0 8.272 0 6.263 0 4.024 1.79 2.21 4 2.21h5.758L12.646.346a2.165 2.165 0 013.013.678c.223.355.341.767.341 1.187v8.104c0 1.22-.977 2.21-2.182 2.21-.415 0-.821-.12-1.172-.345l-2.888-1.864H7.776l.19 1.089zm-2.864.512c.07.4.446.668.842.598a.736.736 0 00.59-.854l-.234-1.346H4.822l.279 1.602zM13.428 1.59l-3.246 2.094v5.158l3.246 2.095a.72.72 0 00.39.115c.402 0 .728-.33.728-.737V2.21c0-.14-.04-.277-.114-.396a.722.722 0 00-1.004-.225zm-4.7 2.093H4c-1.406 0-2.545 1.155-2.545 2.58S2.595 8.843 4 8.843h4.727v-5.16z" fill="currentColor"/></svg>