<svg width="18" height="14" viewBox="0 0 18 14" fill="none" xmlns="http://www.w3.org/2000/svg"><defs/><path d="M11.833 8.195C15.134 8.195 18 9.4 18 12.05 18 13.426 17.48 14 16.363 14h-9.06c-1.116 0-1.636-.574-1.636-1.951 0-2.65 2.866-3.854 6.166-3.854zm0 1.366c-2.63 0-4.833.925-4.833 2.488 0 .608-.048.59.248.586h9.115c.357 0 .304.058.304-.586 0-1.563-2.203-2.488-4.834-2.488zm-8.5-6.83c.369 0 .667.306.667.684v2.048h2c.368 0 .667.306.667.683A.675.675 0 016 6.83H4v2.05a.675.675 0 01-.667.682.675.675 0 01-.666-.683V6.83h-2A.675.675 0 010 6.146c0-.377.298-.683.667-.683h2V3.415c0-.378.298-.683.666-.683zM11.667 0c2.025 0 3.666 1.681 3.666 3.756 0 2.075-1.64 3.756-3.666 3.756S8 5.832 8 3.756C8 1.681 9.641 0 11.667 0zm0 1.366c-1.29 0-2.334 1.07-2.334 2.39s1.044 2.39 2.334 2.39c1.289 0 2.333-1.07 2.333-2.39s-1.044-2.39-2.333-2.39z" fill="currentColor"/></svg>