<svg width="16" height="16" viewBox="0 0 16 16" fill="none" xmlns="http://www.w3.org/2000/svg"><defs/><path d="M10.438 0H5.533C1.041 0 0 1.072 0 5.548v4.904C0 14.928 1.07 16 5.561 16h4.906C14.959 16 16 14.899 16 10.424V5.519C16 1.044 14.93 0 10.438 0zm2.496 11.41h-1.155c-.456 0-.57-.372-1.355-1.158-.699-.672-.984-.758-1.155-.758-.228 0-.314.057-.314.4v1.044c0 .286-.085.458-.84.458-1.242 0-2.596-.758-3.552-2.145-1.44-2.03-1.84-3.546-1.84-3.86 0-.172.058-.344.4-.344h1.155c.314 0 .428.143.542.444.57 1.658 1.526 3.102 1.925 3.102.143 0 .228-.057.228-.457V6.477c-.057-.786-.456-.843-.456-1.13 0-.142.114-.285.314-.285h1.84c.256 0 .341.143.341.429v2.316c0 .257.115.343.172.343.142 0 .285-.086.541-.372.842-.929 1.44-2.387 1.44-2.387.03-.143.172-.315.457-.315h1.155c.371 0 .428.172.371.429-.143.672-1.583 2.674-1.583 2.674-.114.2-.171.314 0 .5.114.172.542.5.784.844.514.557.87 1.044.984 1.358.072.358-.071.53-.399.53z" fill="currentColor"/></svg>