<svg width="14" height="16" viewBox="0 0 14 16" fill="none" xmlns="http://www.w3.org/2000/svg"><defs/><path d="M9.333 3.765c0-1.3-1.044-2.353-2.333-2.353a2.342 2.342 0 00-2.333 2.353c0 1.3 1.044 2.353 2.333 2.353a2.342 2.342 0 002.333-2.353zm1.4 0c0 2.08-1.67 3.764-3.733 3.764S3.267 5.845 3.267 3.765 4.937 0 7 0s3.733 1.685 3.733 3.765zM1.4 13.647c0 .673.334.941.933.941h9.334c.6 0 .933-.268.933-.94 0-2.197-2.396-3.295-5.6-3.295-3.204 0-5.6 1.098-5.6 3.294zm-1.4 0c0-3.28 3.111-4.706 7-4.706s7 1.426 7 4.706C14 15.18 12.978 16 11.667 16H2.333C1.022 16 0 15.18 0 13.647z" fill="currentColor"/></svg>