<svg width="16" height="16" viewBox="0 0 16 16" fill="none" xmlns="http://www.w3.org/2000/svg"><defs/><path d="M10.438 0H5.533C1.041 0 0 1.072 0 5.548v4.904C0 14.928 1.07 16 5.561 16h4.906C14.959 16 16 14.899 16 10.424V5.519C16 1.044 14.93 0 10.438 0zm2.853 7.092a4.788 4.788 0 01-1.897-.386 4.478 4.478 0 01-1.07-.63l.015 4.29c0 .973-.385 1.873-1.07 2.56a3.627 3.627 0 01-2.04 1.03 3.72 3.72 0 01-2.81-.715c-.112-.1-.24-.2-.34-.3a3.656 3.656 0 01-1.07-2.803c.043-.801.37-1.573.913-2.174a3.656 3.656 0 013.308-1.2v1.944a1.72 1.72 0 00-.542-.086c-.97 0-1.754.786-1.74 1.759.015.614.343 1.158.842 1.458.228.143.499.229.798.243a1.59 1.59 0 00.642-.086 1.726 1.726 0 001.184-1.644V2.245h1.91c0 .186.015.372.058.558.142.729.556 1.358 1.126 1.787.5.372 1.112.6 1.783.6v1.902z" fill="currentColor"/></svg>