<svg width="18" height="18" viewBox="0 0 18 18" fill="none" xmlns="http://www.w3.org/2000/svg"><defs/><path d="M14.4 5.44c-.4-.806-1.067-1.41-1.867-1.88-.866-.47-1.733-.605-3.466-.605H5.933c-1.733 0-2.6.134-3.466.605-.8.403-1.4 1.074-1.867 1.88-.467.873-.6 1.746-.6 3.493v3.09c0 1.745.133 2.619.6 3.492.4.806 1.067 1.41 1.867 1.88.866.47 1.733.605 3.466.605H9c1.733 0 2.6-.134 3.467-.605.8-.403 1.4-1.074 1.866-1.88.467-.873.6-1.747.6-3.493v-3.09C15 7.187 14.867 6.314 14.4 5.44zm-9.533 8.53l1.4 1.209c.2.134.4.201.6.201.2 0 .4-.134.6-.335l2.666-3.359 2.934 2.62c-.067.134-.134.269-.2.47-.267.537-.667.94-1.2 1.209-.6.336-1.267.47-2.667.47H5.933c-1.466 0-2.066-.134-2.666-.47-.067-.067-.134-.067-.2-.134l1.8-1.881zM9.4 9.94l-2.733 3.358-1.334-1.141a.825.825 0 00-1.133.067L2 14.507c-.267-.537-.333-1.209-.333-2.485v-3.09c0-1.477.133-2.081.466-2.686.267-.537.667-.873 1.2-1.209.6-.336 1.267-.47 2.667-.47h3.067c1.466 0 2.066.134 2.666.47.534.269.867.672 1.2 1.21.334.604.467 1.275.467 2.686V12.29l-2.733-2.418a1.07 1.07 0 00-.6-.201.853.853 0 00-.667.268z" fill="currentColor"/><path d="M5.2 9.335c.663 0 1.2-.54 1.2-1.209 0-.667-.537-1.209-1.2-1.209-.663 0-1.2.542-1.2 1.21 0 .667.537 1.208 1.2 1.208zM16.333 8.194V5.642c0-2.15-1.733-3.963-3.933-3.963H6.467c-.934 0-1.6.067-2.134.202l-.6.067.4-.403A5.535 5.535 0 018 0h4.4C15.467 0 18 2.552 18 5.642v4.433c0 1.41-.533 2.753-1.467 3.828l-.4.403.067-.537c.067-.47.133-1.075.133-1.948V8.73v-.537z" fill="currentColor"/></svg>