<svg width="20" height="14" viewBox="0 0 20 14" fill="none" xmlns="http://www.w3.org/2000/svg"><defs/><path d="M19.864 7.481a.919.919 0 00-.02-.992C16.818 2.185 13.552 0 10.133 0 4.33 0 .299 6.253.135 6.519a.919.919 0 00.02.992C3.178 11.82 6.444 14 9.863 14c5.803 0 9.829-6.253 10.002-6.519zM9.862 12.382c-2.847 0-5.624-1.813-8.262-5.385 1.03-1.411 4.317-5.373 8.533-5.373 2.847 0 5.623 1.813 8.262 5.385-1.031 1.411-4.317 5.373-8.533 5.373z" fill="currentColor"/><path d="M10 3C7.796 3 6 4.796 6 7c0 2.204 1.796 4 4 4 2.204 0 4-1.796 4-4 0-2.204-1.796-4-4-4zm0 6.422A2.426 2.426 0 017.578 7 2.426 2.426 0 0110 4.578 2.426 2.426 0 0112.422 7 2.419 2.419 0 0110 9.422z" fill="currentColor"/></svg>