<svg width="16" height="16" viewBox="0 0 16 16" fill="none" xmlns="http://www.w3.org/2000/svg"><defs/><path d="M8.877 0c1.393.003 1.7.014 2.421.047.852.04 1.433.175 1.942.372.526.205.973.478 1.417.923.445.445.719.891.923 1.417.198.509.333 1.09.372 1.942.036.788.047 1.08.048 2.83v.938c-.001 1.749-.012 2.042-.048 2.83-.039.85-.174 1.432-.372 1.941a3.922 3.922 0 01-.923 1.417 3.922 3.922 0 01-1.417.923c-.509.198-1.09.333-1.942.372-.787.036-1.08.047-2.83.048h-.937c-1.75-.001-2.042-.012-2.83-.048-.851-.039-1.433-.174-1.942-.372a3.922 3.922 0 01-1.417-.923A3.923 3.923 0 01.42 13.24c-.198-.509-.333-1.09-.372-1.942C.014 10.576.003 10.27 0 8.877V7.123c.003-1.394.014-1.7.047-2.422.04-.851.174-1.433.372-1.942.205-.526.478-.972.923-1.417C1.787.897 2.233.624 2.76.42 3.268.222 3.85.086 4.701.047 5.423.014 5.73.003 7.123 0h1.754zm-.011 1.595h-1.74c-1.309.002-1.594.013-2.286.044-.76.035-1.174.162-1.45.27a2.42 2.42 0 00-.898.583 2.42 2.42 0 00-.584.898c-.107.276-.234.69-.269 1.45-.031.692-.042.977-.044 2.287v1.739c.002 1.31.013 1.594.044 2.286.035.761.162 1.175.27 1.45.14.364.31.625.583.898.274.273.534.443.898.584.276.107.69.234 1.45.27.758.034 1.028.043 2.69.044h.933c1.662 0 1.931-.01 2.689-.045.761-.035 1.175-.162 1.45-.269a2.42 2.42 0 00.898-.584 2.42 2.42 0 00.584-.898c.107-.275.234-.689.27-1.45.037-.824.045-1.07.045-3.156v-.241c-.001-1.865-.01-2.124-.046-2.915-.035-.76-.162-1.174-.269-1.45a2.42 2.42 0 00-.584-.898 2.42 2.42 0 00-.898-.584c-.275-.107-.689-.234-1.45-.269a40.714 40.714 0 00-2.286-.044zM8 3.73a4.268 4.268 0 110 8.537 4.268 4.268 0 010-8.537zm0 1.602a2.667 2.667 0 100 5.334 2.667 2.667 0 000-5.334zm4.27-2.564a.96.96 0 110 1.92.96.96 0 010-1.92z" fill="currentColor"/></svg>