<svg width="16" height="13" viewBox="0 0 16 13" fill="none" xmlns="http://www.w3.org/2000/svg"><defs/><path d="M11.383 0C13.933 0 16 2.041 16 4.56c0 2.5-1.01 3.748-5.166 6.94l-1.255.965a2.597 2.597 0 01-3.158 0l-1.255-.964C1.01 8.308 0 7.06 0 4.56 0 2.04 2.067 0 4.617 0 5.887 0 7.02.544 8 1.585 8.979.545 10.113 0 11.383 0zM4.617 1.693c-1.603 0-2.903 1.284-2.903 2.867 0 1.795.747 2.718 4.504 5.604l1.256.965a.866.866 0 001.052 0l1.256-.965c3.757-2.886 4.504-3.81 4.504-5.604 0-1.583-1.3-2.867-2.902-2.867-.97 0-1.85.545-2.679 1.728l-.235.335a.576.576 0 01-.94 0l-.235-.335c-.828-1.183-1.709-1.728-2.678-1.728z" fill="currentColor"/></svg>