<svg fill="currentColor" viewBox="0 0 66 84" xmlns="http://www.w3.org/2000/svg"><path d="M33.87 50.51h-7.852v8.848h22.15v11.07h-22.15v13.57H8.148v-13.57H.003v-11.07h8.145V50.51H.003V39.44h8.145V.01h24.38c5.078 0 9.668.508 13.77 1.523 4.102.977 7.598 2.5 10.49 4.57 2.93 2.07 5.176 4.727 6.738 7.969 1.602 3.242 2.402 7.09 2.402 11.54 0 3.242-.45 6.113-1.348 8.613-.898 2.461-2.129 4.629-3.691 6.504-1.562 1.836-3.379 3.379-5.449 4.629s-4.297 2.266-6.68 3.047a46.048 46.048 0 0 1-7.383 1.641 61.36 61.36 0 0 1-7.5.469zm-7.852-39.37v28.3h6.914c5.039 0 8.809-1.289 11.31-3.867 2.539-2.578 3.809-6.074 3.809-10.49 0-4.297-1.27-7.695-3.809-10.2-2.5-2.5-6.27-3.75-11.31-3.75z"/></svg>