<svg width="19" height="21" fill="none" xmlns="http://www.w3.org/2000/svg"><path d="M18.111 5.164a5.197 5.197 0 0 1-3.14-1.049A5.208 5.208 0 0 1 12.896 0H9.528v9.202l-.004 5.04a3.048 3.048 0 0 1-3.226 3.043 3.038 3.038 0 0 1-1.394-.428 3.047 3.047 0 0 1-1.49-2.568A3.05 3.05 0 0 1 7.43 11.35V7.93a6.643 6.643 0 0 0-.971-.07 6.458 6.458 0 0 0-4.853 2.17 6.318 6.318 0 0 0-1.594 3.81 6.31 6.31 0 0 0 1.88 4.916 6.46 6.46 0 0 0 4.567 1.87c.328 0 .652-.024.97-.072a6.437 6.437 0 0 0 3.596-1.798 6.304 6.304 0 0 0 1.892-4.487L12.9 6.742a8.511 8.511 0 0 0 5.222 1.774V5.164h-.01z" fill="currentColor"/></svg>