<svg width="21" height="12" fill="none" xmlns="http://www.w3.org/2000/svg"><path d="M10.275 11.95h1.255s.38-.043.572-.252c.179-.192.172-.552.172-.552s-.025-1.686.758-1.935c.77-.244 1.76 1.63 2.809 2.352.793.545 1.395.426 1.395.426l2.805-.04s1.468-.09.772-1.246c-.057-.094-.406-.854-2.086-2.416-1.759-1.635-1.523-1.37.596-4.197 1.29-1.722 1.806-2.774 1.645-3.224-.154-.428-1.103-.315-1.103-.315L16.71.569s-.234-.031-.409.073c-.169.102-.278.339-.278.339s-.5 1.333-1.167 2.466c-1.405 2.391-1.969 2.517-2.198 2.369-.535-.346-.4-1.391-.4-2.132 0-2.318.35-3.284-.684-3.534-.344-.083-.597-.138-1.475-.147C8.973-.01 8.02.007 7.48.27c-.36.176-.636.57-.467.591.209.028.681.128.932.47.324.44.313 1.431.313 1.431s.186 2.728-.435 3.067c-.427.233-1.01-.242-2.264-2.412-.642-1.11-1.128-2.34-1.128-2.34S4.337.85 4.17.728A1.307 1.307 0 0 0 3.685.53l-3 .019S.233.563.068.759c-.147.174-.012.535-.012.535s2.35 5.504 5.009 8.279c2.44 2.543 5.21 2.376 5.21 2.376z" fill="currentColor"/></svg>