<svg width="768" height="755" viewBox="0 0 768 755" fill="none" xmlns="http://www.w3.org/2000/svg"><defs/><path d="M1234.68-224.632l34.36 890.645c-202.87-57.202-398.031-107.165-519.384-124.532-346.292-50.273-684.28 151.431-1110.642 89.734-290.767-42.089-548.88-200.98-683.204-297.666-8.79-181.907-17.58-364.092-26.37-545.998 768.525-4.252 1536.708-8.21 2305.24-12.183z" fill="url(#paint0_linear)"/><path d="M2424.3-164h-4096.1c0 254.1-.1 508.2-.2 762.3 170.3-79.5 317.8-115.9 420-134 123.1-21.8 212.3-22.9 234.7-23 48-.2 149.1-.3 274.6 28.4 205.9 47.1 283.9 134.7 611.9 120.1 447.3-19.9 502-93.7 772.5-69 9 .8 40.7 4.2 79.5 11.2 128.3 23 326.2 84.8 378.9 100 51.3 14.7 214.3 56.8 397 33.3 202.5-26 254.2-110.2 522-161.1 160.6-30.5 288.6-21.1 405.2 2.3V-164z" fill="url(#paint1_linear)"/><defs><linearGradient id="paint0_linear" x1="1174.32" y1="-38.359" x2="-842.525" y2="-607.623" gradientUnits="userSpaceOnUse"><stop stop-color="#fff"/><stop offset="1" stop-color="#A2C3FF"/></linearGradient><linearGradient id="paint1_linear" x1="-707" y1="222" x2="921.5" y2="213.001" gradientUnits="userSpaceOnUse"><stop stop-color="#06F"/><stop offset="1" stop-color="#89A3FF"/></linearGradient></defs></svg>