<svg data-name="Слой 1" xmlns="http://www.w3.org/2000/svg" viewBox="0 0 4096 839.6"><defs/><defs><linearGradient id="a" x1="1261.75" y1="-591.93" x2="2956.36" y2="-553.09" gradientTransform="matrix(1 0 0 -1 0 -156.81)" gradientUnits="userSpaceOnUse"><stop offset="0" stop-color="#3171ff"/><stop offset="1" stop-color="#adceff"/></linearGradient></defs><path fill="url(#a)" d="M0-5.4h4097v845H0z"/><path d="M1558.6-825c-116.36-62.16-238.78-106.3-373.6-111.7-50.43-2-100.88-1.83-151 4.26-1.79 18-419 281.12-421 299-16.09 148.72 66.86 134 50.37 282.66C682.36 52.85 891.06 305 895.64 309.52c44.63 45.05 94.17 84.35 149.52 117 52.31 30.82 107.71 54 168.53 64.91 33.1 6 66.26 5.82 99.54 4.74 76.75-2.57 150.16-17.15 219.69-48 53.27-23.7 102.54-53.57 149.84-85.76 56.33-38.44 117.1-67.42 185.78-79.66 53.11-9.39 106.91-17.75 160.9-22.27a1078 1078 0 00336.27-83.22c99.69-42.42 184.84-102.31 247.22-188 51.61-71.06 85.21-148.5 87.85-236.45 2.3-81.29-24.84-153.82-77-218.82-45.22-56.2-104.6-96.59-168.71-131-67.18-36.1-138.1-58.67-216.19-58.74-50 0-100.36-1-150.3-3.68-72.61-3.66-145-11.12-216.25-27-54.58-12.17-108.18-27.66-157.6-53.39-52.5-27.45-103.91-57.18-156.13-85.18z" style="isolation:isolate" fill="#fff" opacity=".1"/></svg>