<svg xmlns="http://www.w3.org/2000/svg" viewBox="0 0 375 665"><defs/><linearGradient id="a" gradientUnits="userSpaceOnUse" x1="-107.176" y1="-31.06" x2="475.191" y2="269.455" gradientTransform="matrix(1 0 0 -1 0 452)"><stop offset="0" stop-color="#06f"/><stop offset="0" stop-color="#06f"/><stop offset="1" stop-color="#89a3ff"/></linearGradient><path fill="url(#a)" d="M-23-3h421v668H-23z"/><path d="M-28-171.8c-35.7-23.6-73.5-40.3-115.8-42.1-15.8-.7-31.7-.5-47.5 1.9-.8 6.9-135.9 108.6-136.8 115.5-7.3 57 19 51.2 11.7 108.2 0 154.6 61.9 250.9 63.3 252.6 13.4 17.2 28.4 32.1 45.3 44.6 16 11.7 33.1 20.5 52 24.5 10.3 2.2 20.7 2.1 31.2 1.6 24.2-1.1 47.5-6.9 69.8-18.8 17.1-9.2 33-20.7 48.4-33.2 18.3-14.8 37.8-26.1 59.6-30.9 16.8-3.7 33.9-7 50.9-8.9 37.1-4 72.7-14.9 106.9-32.6 32-16.5 59.6-39.6 80.5-72.6 17.3-27.3 29-57.1 31.1-90.8 1.9-31.2-5.5-58.9-21-83.7-13.4-21.4-31.5-36.8-51.1-49.9-20.6-13.7-42.5-22.2-67.1-22.1-15.7.1-31.5-.2-47.2-1.1-22.8-1.3-45.4-4-67.6-9.9-17-4.6-33.6-10.4-48.8-20.1C3.7-149.8-12-161.1-28-171.8z" opacity=".1" fill="#fff"/></svg>