<svg width="421" height="605" viewBox="0 123 421 605" xmlns="http://www.w3.org/2000/svg"><defs/><defs><linearGradient x1="18.255%" y1="84.05%" x2="100.419%" y2="41.805%" id="a"><stop stop-color="#06F" offset="0%"/><stop stop-color="#89A3FF" offset="100%"/></linearGradient></defs><g fill-rule="nonzero" fill="none"><path fill="url(#a)" d="M0 123h421v605H0z"/><path d="M321.15 567.1c8.38 53.48 25.09 103.07 59.53 144.17 12.9 15.34 26.58 30 42.38 42.77 7.14-5.1 217.5 34.32 224.68 29.28 59.51-41.9 31.63-61.51 91.26-103.32 144.56-132 181.68-272 182.12-274.75 4.65-27.16 5.84-53.94 3-80.36-2.71-24.94-9.1-48.37-21.47-69.57-6.73-11.54-15.75-21.19-25.15-30.57-21.69-21.62-46.94-38.5-77.18-49.13-23.18-8.14-47.58-13.18-72.3-16.91-29.48-4.41-56.65-13.09-79.75-29.31-17.84-12.58-35.48-25.68-51.74-40-35.38-31.32-76-55.22-121.74-72.16C432.11 1.41 386.89-4.7 338.24 3.93c-40.3 7.18-78.11 21.63-111.44 48.42-30.8 24.8-50.36 55.46-60.37 91.07-8.62 30.82-7.55 60.83-3 90.35 4.77 30.94 15.56 58.73 36.64 81.56C213.59 330 226.82 345 239.32 360.4c18.27 22.36 35.07 45.84 48.42 71.65 10.24 19.76 19 40.27 22.79 62.77 4.02 23.92 6.87 48.27 10.62 72.28z" fill="#FFF" opacity=".1"/></g></svg>