<svg version="1.0" xmlns="http://www.w3.org/2000/svg" width="1333.333" height="1333.333" viewBox="0 0 1000 1000"><path d="M481 46c-1.4.4-6.5 1.7-11.3 2.9-9.7 2.3-25.2 8.5-33.7 13.6-3 1.8-7.5 4.4-10 5.7-2.5 1.4-10.6 6.1-18 10.3-7.4 4.3-19.6 11.3-27 15.5-14.4 8.2-36.2 20.7-52.5 30-9.4 5.4-23.2 13.3-49 28-6 3.4-15 8.6-20 11.5-4.9 2.8-13.3 7.6-18.5 10.5-5.2 3-13.1 7.5-17.5 10-4.4 2.6-12.3 7.1-17.5 10-5.2 3-13.1 7.5-17.5 10-4.4 2.6-12.3 7.1-17.5 10-14 7.8-26.9 15.9-32 19.9-20.1 15.8-35.4 37.4-43.4 61.1-7.5 22.4-7 8-7.4 206l-.3 177.5 2.2 9.5c2.4 11 7.8 25.9 12.1 33.9 8.4 15.6 21.9 31.4 36.2 42.5 7.8 6 18.4 12.6 20.2 12.6.5 0 1.7-1.9 2.8-4.1 2.3-5.1 12.1-19.7 18-27l4.5-5.6-8.2-5.1c-20.4-12.4-31.9-26.8-39.4-49.2l-2.8-8.5.3-173c.1-111.2.6-175.5 1.3-180 2.6-17.8 9.8-33.1 21.6-45.6 9.1-9.7 12.9-12.3 39.3-27.1 2.5-1.4 13.7-7.9 25-14.3 11.3-6.5 23.4-13.5 27-15.5 3.6-2 12.4-7 19.5-11.1 7.2-4.1 17.3-9.9 22.5-12.9 5.2-2.9 13.6-7.7 18.5-10.5 5-2.9 17.1-9.9 27-15.5 9.9-5.6 22.1-12.6 27-15.5 5-2.8 13.3-7.6 18.5-10.5 5.2-3 13.1-7.5 17.5-10 4.4-2.6 11.6-6.7 16-9.2 4.4-2.5 15.9-9.1 25.5-14.6 33.6-19.3 40.1-21.6 61.5-21.6 20.1 0 29.5 3 52 16.4 4.4 2.6 12.5 7.3 18 10.5s12.8 7.6 16.2 9.7c3.4 2.1 6.5 3.8 6.7 3.8.3 0 3.8 1.9 7.8 4.3 7.3 4.3 18.4 10.8 35.3 20.7 13.5 7.8 30.5 17.8 54.5 31.8 5.2 3.1 12.8 7.5 16.8 9.9l7.2 4.3 24.3-4.5c13.3-2.4 28.4-5 33.5-5.7 6.3-.8 9.2-1.7 9.2-2.6 0-.7-.8-1.6-1.7-1.9-1-.4-3.6-1.8-5.8-3.2-2.2-1.4-6.9-4.1-10.5-6.2-5.4-3-22.7-13-46.5-26.9-8.6-5-38.5-22.5-47.5-27.7-5.2-3.1-13.1-7.7-17.5-10.3-4.4-2.6-11.8-6.9-16.5-9.5-4.7-2.7-11.6-6.7-15.5-9-3.8-2.3-15.8-9.3-26.5-15.5-10.7-6.2-22.6-13.2-26.5-15.5-10.5-6.2-25.3-12.3-35.2-14.6-4.8-1.1-10.2-2.4-11.9-2.9-3.6-1.2-36.8-1.1-40.4 0z"/><path d="M799 210.5c-16.3 3.3-88.2 16.2-103.5 18.5-3.8.6-16.9 2.8-29 5-12.1 2.2-33 6-46.5 8.4-13.5 2.4-27.9 4.9-32 5.6-4.1.6-15.8 2.7-26 4.5-10.2 1.9-26.7 4.8-36.8 6.5-10.1 1.7-21.5 3.7-25.4 4.5-3.8.8-14.7 2.8-24.1 4.4-53.1 9.1-115.7 20.3-130.1 23.2-34.3 7.1-63.3 23.4-91.1 51.3-22 22.1-37.6 47.2-46.5 74.9-3.5 11-3.8 14.3-1.1 15.2 1.9.6 11.6-.9 33.6-5.1 7.1-1.4 20-3.6 28.5-5 16.3-2.6 45.9-7.8 82-14.4 11.8-2.2 29.7-5.3 39.8-7 10-1.6 20.2-3.4 22.7-4 2.5-.6 12.7-2.4 22.8-4 18.8-3.2 56.3-9.8 84.2-15 8.8-1.6 21.2-3.8 27.5-4.9 6.3-1.1 24.1-4.3 39.5-7 15.4-2.7 41.1-7.3 57-10.1 58.9-10.4 76.4-14.4 89.3-20.5 21-10 45.6-31.6 58.8-51.7 13.2-20 21.8-43.2 23.1-62.4.6-9.6-.4-13.5-3.5-13.3-.9 0-6.9 1.1-13.2 2.4zm52.3 32.3c-2.9 5.9-7.7 14.5-10.7 19.1-3.1 4.7-5.6 8.7-5.6 9.1 0 .3 3 3.5 6.6 7 12 11.7 20.5 27.3 23.8 43.2 1.4 6.8 1.6 19.8 1.5 104.5-.1 53.2-.5 131.9-.8 174.8-.7 76.3-.8 78.2-3 85.3-7 23.5-20 40.3-39.8 51.6-3.2 1.8-10.3 5.9-15.8 9.1-5.5 3.2-13.4 7.7-17.5 10s-13.3 7.5-20.5 11.7c-7.1 4.1-15 8.6-17.5 10-6.4 3.5-31.9 18.1-42.5 24.3-12.6 7.3-22.2 12.8-27.5 15.7-4.2 2.3-29.9 17-45 25.8-3.6 2-11.4 6.5-17.5 10-6 3.4-13.9 7.9-17.5 10-3.6 2.1-11.9 6.8-18.5 10.5s-14.5 8.2-17.5 10c-39.9 23.4-43.9 24.9-67.5 24.9-13 .1-16-.2-22.4-2.3-8.4-2.6-19.5-8-35.1-17.3-5.8-3.4-18.4-10.7-28-16.3-9.6-5.6-22-12.8-27.5-16-5.5-3.2-13.6-7.9-18-10.5-4.4-2.6-12.5-7.3-18-10.5-22.7-13.2-27.2-15.9-31.8-18.4l-4.8-2.7-10.7 1.8c-5.9 1-20.6 3.6-32.7 5.8-12.1 2.2-22.3 4-22.7 4-.5 0-.8.4-.8.9 0 .7 7.6 5.3 23 13.9 2.5 1.4 6.9 4 9.8 5.9 2.9 1.8 5.4 3.3 5.7 3.3.2 0 3.7 2 7.7 4.3 4 2.4 16.1 9.5 26.8 15.7 10.7 6.2 22.7 13.2 26.5 15.5 3.9 2.3 11.7 6.9 17.5 10.2 18.5 10.7 42 24.4 59 34.4 19.6 11.5 34.5 18.1 47.2 21.1 7.5 1.8 13.1 2.3 29.2 2.5 12.9.3 20.3 0 21-.7.5-.5 2-1 3.3-1 4.1 0 16.8-3.8 26.1-7.8 8.2-3.6 18.8-9.4 42.7-23.2 5-2.9 12.4-7.1 16.5-9.5 4.1-2.3 14-7.9 22-12.5 8-4.5 22.4-12.8 32-18.3 9.6-5.5 21.6-12.3 26.5-15.2 5-2.8 13.3-7.6 18.5-10.5 5.2-3 13.1-7.5 17.5-10 4.4-2.6 12.3-7.1 17.5-10 5.2-3 13.1-7.5 17.5-10 4.4-2.6 11.8-6.8 16.5-9.5 4.7-2.6 11.4-6.5 15-8.5 3.6-2.1 11.5-6.6 17.5-10 50-28.5 53-30.5 67.3-45.4 16.9-17.7 28.7-40.7 33.9-66.3 1.6-8.2 1.8-21.3 2-187 .3-173.6.3-178.4-1.6-187.1-5.3-24.3-16.5-45.2-34.1-63.6-5.5-5.8-18-16.6-19.1-16.6-.2 0-2.7 4.9-5.6 10.8z"/><path d="M667.5 418.6c-5.5.7-18.3 2.8-28.5 4.8-10.2 1.9-21.6 4-25.5 4.6-8.7 1.4-57.3 10-80 14.1-9.3 1.7-26 4.6-37 6.4-11 1.9-23.4 4.1-27.5 4.9-4.1.8-14.5 2.7-23 4.1-8.5 1.4-22.5 3.9-31 5.5s-23.1 4.3-32.5 5.9c-9.3 1.6-26 4.5-37 6.5s-33 5.9-49 8.7c-15.9 2.8-39.8 7.1-53 9.5-13.2 2.4-26 4.6-28.5 5-7.6 1-10 2.3-10 5.4 0 3.3 6.6 19.8 12.1 29.9 12.1 22.4 31 39.3 56.3 50.5 28.6 12.5 55.1 13.2 106.6 3.1 6.9-1.4 20.4-3.8 30-5.4 9.6-1.6 27.2-4.7 39-6.9 19.7-3.7 37.1-6.8 94-16.7 60.8-10.7 73.7-13 97.5-17.2 30.6-5.5 35.7-5.7 43.8-1.9 18.4 8.8 19.6 34.8 2.5 52.3-8.5 8.7-15 11-44.8 15.9-14 2.4-30.2 5.2-36 6.3-5.8 1.1-17 3.2-25 4.5-8 1.4-23.3 4.1-34 6.1s-22.2 4-25.5 4.5c-3.3.5-17.5 2.9-31.5 5.4-14 2.5-37.2 6.7-51.5 9.2-14.3 2.5-36.1 6.3-48.5 8.5-12.4 2.2-31.7 5.6-42.8 7.5-38 6.4-51.3 9.9-66.4 17.5-14.4 7.3-25.6 15.5-38.3 28.3-25.7 25.7-39.1 53.9-43 90.3-.8 7.6-.1 8.2 8.9 6.5 6.6-1.3 47.2-8.5 57.1-10.2 3.3-.6 11.2-2 17.5-3.1 6.3-1.1 19.2-3.3 28.5-4.9 44.8-7.8 76.8-13.5 95.5-17.1 11.3-2.1 25-4.5 30.5-5.4 5.5-.8 14.7-2.5 20.5-3.6 5.8-1.1 20.6-3.8 33-5.9 12.4-2.1 31.3-5.4 42-7.3 42.4-7.7 50.3-9 72-12.7 12.4-2.1 29.7-5.3 38.5-7 8.8-1.7 18.4-3.5 21.2-4 13.9-2.4 35.5-9.6 48.6-16.1 18.2-9.2 32.7-20 48.9-36.5 20.4-20.8 33.6-41.1 43.3-66.4 12.5-32.8 14.1-73.2 4.1-102.6-9.9-29.1-33.2-56.2-60.2-69.7-8.9-4.5-25.4-9.7-35.6-11.2-11.7-1.8-32.4-1.7-46.3.1z"/></svg>
