<svg width="26" height="18" fill="#B2C8DD" viewBox="0 0 26 18" xmlns="http://www.w3.org/2000/svg">
<path d="M18.3182 10.125C20.192 10.125 21.7749 11.3111 22.2833 12.9377L24.8182 12.9375C25.4709 12.9375 26 13.4412 26 14.0625C26 14.6838 25.4709 15.1875 24.8182 15.1875L22.283 15.1884C21.7741 16.8144 20.1916 18 18.3182 18C16.4448 18 14.8622 16.8144 14.3534 15.1884L1.18182 15.1875C0.529118 15.1875 0 14.6838 0 14.0625C0 13.4412 0.529118 12.9375 1.18182 12.9375L14.3531 12.9377C14.8615 11.3111 16.4443 10.125 18.3182 10.125ZM18.3182 12.0938C17.176 12.0938 16.25 12.9752 16.25 14.0625C16.25 15.1498 17.176 16.0312 18.3182 16.0312C19.4604 16.0312 20.3864 15.1498 20.3864 14.0625C20.3864 12.9752 19.4604 12.0938 18.3182 12.0938ZM8.86364 0C10.7375 0 12.3203 1.18613 12.8288 2.81268L24.8182 2.8125C25.4709 2.8125 26 3.31618 26 3.9375C26 4.55882 25.4709 5.0625 24.8182 5.0625L12.8284 5.06344C12.3196 6.68942 10.7371 7.875 8.86364 7.875C6.99021 7.875 5.40768 6.68942 4.89886 5.06344L1.18182 5.0625C0.529118 5.0625 0 4.55882 0 3.9375C0 3.31618 0.529118 2.8125 1.18182 2.8125L4.89851 2.81268C5.40695 1.18613 6.98978 0 8.86364 0ZM8.86364 1.96875C7.72141 1.96875 6.79545 2.85019 6.79545 3.9375C6.79545 5.02481 7.72141 5.90625 8.86364 5.90625C10.0059 5.90625 10.9318 5.02481 10.9318 3.9375C10.9318 2.85019 10.0059 1.96875 8.86364 1.96875Z"/>
</svg>
