<svg width="18" height="18" viewBox="0 0 18 18" fill="none" xmlns="http://www.w3.org/2000/svg">
<path d="M4.80541 0C4.98998 0 5.13174 0.036202 5.25091 0.104182C5.37008 0.172162 5.4636 0.271919 5.52733 0.39903C5.59106 0.526141 5.625 0.677359 5.625 0.874233V1.1988H12.375V0.874233C12.375 0.677359 12.4089 0.526141 12.4727 0.39903C12.5364 0.271919 12.6299 0.172162 12.7491 0.104182C12.8683 0.036202 13.01 0 13.1946 0H13.2429C13.4275 0 13.5692 0.036202 13.6884 0.104182C13.8076 0.172162 13.9011 0.271919 13.9648 0.39903C14.0286 0.526141 14.0625 0.677359 14.0625 0.874233L14.064 1.20854C15.0052 1.24293 15.5509 1.38509 16.1154 1.70707C16.7207 2.05241 17.2009 2.56456 17.5246 3.21029C17.8775 3.91411 18 4.59073 18 5.94583V13.2542C18 14.6093 17.8775 15.2859 17.5246 15.9897C17.2009 16.6354 16.7207 17.1476 16.1154 17.4929C15.4555 17.8693 14.8212 18 13.5508 18H4.44921C3.17881 18 2.54448 17.8693 1.88465 17.4929C1.27928 17.1476 0.799132 16.6354 0.475375 15.9897C0.122496 15.2859 0 14.6093 0 13.2542V5.94583C0 4.59073 0.122496 3.91411 0.475375 3.21029C0.799132 2.56456 1.27928 2.05241 1.88465 1.70707C2.44928 1.38497 2.99525 1.24282 3.9371 1.2085L3.9375 0.874233C3.9375 0.677359 3.97144 0.526141 4.03517 0.39903C4.0989 0.271919 4.19242 0.172162 4.31159 0.104182C4.43076 0.036202 4.57252 0 4.75709 0H4.80541ZM16.3125 8.4H1.6875V13.2542C1.6875 14.3375 1.75917 14.7334 1.96344 15.1408C2.12992 15.4729 2.36918 15.7281 2.68047 15.9057C3.06241 16.1235 3.43357 16.2 4.44921 16.2H13.5508C14.5664 16.2 14.9376 16.1235 15.3195 15.9057C15.6308 15.7281 15.8701 15.4729 16.0366 15.1408C16.2408 14.7334 16.3125 14.3375 16.3125 13.2542V8.4ZM12.375 2.9988H5.625V3.32577C5.625 3.52264 5.59106 3.67386 5.52733 3.80097C5.4636 3.92808 5.37008 4.02784 5.25091 4.09582C5.13174 4.1638 4.98998 4.2 4.80541 4.2H4.75709C4.57252 4.2 4.43076 4.1638 4.31159 4.09582C4.19242 4.02784 4.0989 3.92808 4.03517 3.80097C3.97144 3.67386 3.9375 3.52264 3.9375 3.32577L3.93576 3.00872C3.29219 3.03414 2.98987 3.11784 2.68047 3.29433C2.36918 3.47191 2.12992 3.72712 1.96344 4.05917C1.75917 4.46657 1.6875 4.86247 1.6875 5.94583V6.6H16.3125V5.94583C16.3125 4.86247 16.2408 4.46657 16.0366 4.05917C15.8701 3.72712 15.6308 3.47191 15.3195 3.29433C15.0103 3.11794 14.7082 3.03424 14.0654 3.00876L14.0625 3.32577C14.0625 3.52264 14.0286 3.67386 13.9648 3.80097C13.9011 3.92808 13.8076 4.02784 13.6884 4.09582C13.5692 4.1638 13.4275 4.2 13.2429 4.2H13.1946C13.01 4.2 12.8683 4.1638 12.7491 4.09582C12.6299 4.02784 12.5364 3.92808 12.4727 3.80097C12.4089 3.67386 12.375 3.52264 12.375 3.32577V2.9988Z" fill="#2691F4"/>
<rect x="3" y="10" width="9" height="2" rx="1" fill="#2691F4"/>
</svg>
