<svg width="13" height="13" viewBox="0 0 13 13" fill="none" xmlns="http://www.w3.org/2000/svg">
<path d="M7.03173 6.5657C7.03173 6.89205 6.79363 7.15661 6.49991 7.15661C6.2062 7.15661 5.96809 6.89205 5.96809 6.5657L5.96809 4.13641C5.96809 3.81006 6.2062 3.5455 6.49991 3.5455C6.79363 3.5455 7.03173 3.81006 7.03173 4.13641L7.03173 6.5657Z" fill="#B2C8DD"/>
<path d="M6.49991 9.45459C6.82626 9.45459 7.09082 9.16064 7.09082 8.79802C7.09082 8.43541 6.82626 8.14146 6.49991 8.14146C6.17356 8.14146 5.909 8.43541 5.909 8.79802C5.909 9.16064 6.17356 9.45459 6.49991 9.45459Z" fill="#B2C8DD"/>
<circle cx="6.5" cy="6.5" r="6" transform="rotate(-180 6.5 6.5)" stroke="#B2C8DD"/>
</svg>
