<svg width="13" height="13" viewBox="0 0 13 13" fill="none" xmlns="http://www.w3.org/2000/svg">
<path d="M5.83208 1.3196V0C4.52231 0.130653 3.32982 0.653266 2.36541 1.44372L3.29073 2.37789C4.01403 1.81608 4.8807 1.43719 5.83208 1.3196ZM2.37193 3.299L1.4401 2.37136C0.651629 3.33819 0.130326 4.53367 0 5.84673H1.31629C1.43358 4.89296 1.81153 4.02412 2.37193 3.299ZM0 7.15327C0.130326 8.46633 0.651629 9.66181 1.4401 10.6286L2.37193 9.69447C1.81153 8.97588 1.43358 8.10703 1.31629 7.15327H0ZM5.83208 13V11.6804C4.8807 11.5628 4.01403 11.1839 3.29073 10.6221L2.36541 11.5563C3.32982 12.3467 4.52882 12.8693 5.83208 13ZM7.16792 0C10.4456 0.346231 13 3.12915 13 6.5C13 9.87085 10.4456 12.6538 7.16792 13V11.6804C9.72231 11.3407 11.6967 9.14573 11.6967 6.5C11.6967 3.85427 9.72231 1.6593 7.16792 1.3196V0ZM5.37073 4.19375C5.46122 4.19375 5.55011 4.21761 5.62851 4.26292L8.72151 6.0507C8.96844 6.19342 9.0532 6.5098 8.91083 6.75735C8.86548 6.83621 8.80018 6.90168 8.72151 6.94714L5.62851 8.73492C5.38158 8.87765 5.06599 8.79268 4.92363 8.54513C4.87843 8.46654 4.85464 8.37742 4.85464 8.2867V4.71114C4.85464 4.4254 5.0857 4.19375 5.37073 4.19375Z" fill="#B2C8DD"/>
</svg>
