<svg width="19" height="16" viewBox="0 0 19 16" fill="none" xmlns="http://www.w3.org/2000/svg">
<path d="M13.9256 0C15.6901 0 16.3299 0.185651 16.975 0.534266C17.6201 0.88288 18.1263 1.39446 18.4713 2.04631C18.8163 2.69816 19 3.34473 19 5.12777V10.8722C19 12.6553 18.8163 13.3018 18.4713 13.9537C18.1263 14.6055 17.6201 15.1171 16.975 15.4657C16.3299 15.8143 15.6901 16 13.9256 16H5.07436C3.30989 16 2.67005 15.8143 2.02499 15.4657C1.37993 15.1171 0.873683 14.6055 0.5287 13.9537C0.183717 13.3018 0 12.6553 0 10.8722V5.12777C0 3.34473 0.183717 2.69816 0.5287 2.04631C0.873683 1.39446 1.37993 0.88288 2.02499 0.534266C2.67005 0.185651 3.30989 0 5.07436 0H13.9256ZM17.4159 7.2H1.58254L1.58333 11.3233C1.58333 12.3932 1.69356 12.7811 1.90055 13.1722C2.10754 13.5633 2.41129 13.8703 2.79833 14.0794C3.16118 14.2755 3.52127 14.3857 4.43719 14.3987L4.62795 14.4H14.3721C15.4307 14.4 15.8146 14.2886 16.2017 14.0794C16.5887 13.8703 16.8925 13.5633 17.0994 13.1722C17.2935 12.8055 17.4025 12.4417 17.4154 11.5161L17.4167 11.3233L17.4159 7.2ZM5.34011 9.6C5.66703 9.6 5.79932 9.63713 5.92833 9.70685C6.05735 9.77658 6.1586 9.87889 6.22759 10.0093C6.29659 10.1396 6.33333 10.2733 6.33333 10.6037V10.9963C6.33333 11.3267 6.29659 11.4604 6.22759 11.5907C6.1586 11.7211 6.05735 11.8234 5.92833 11.8931C5.79932 11.9629 5.66703 12 5.34011 12H4.95156C4.62464 12 4.49234 11.9629 4.36333 11.8931C4.23432 11.8234 4.13307 11.7211 4.06407 11.5907C3.99508 11.4604 3.95833 11.3267 3.95833 10.9963V10.6037C3.95833 10.2733 3.99508 10.1396 4.06407 10.0093C4.13307 9.87889 4.23432 9.77658 4.36333 9.70685C4.49234 9.63713 4.62464 9.6 4.95156 9.6H5.34011ZM14.3721 1.6H4.62795C3.56927 1.6 3.18537 1.71139 2.79833 1.92056C2.41129 2.12973 2.10754 2.43667 1.90055 2.82779C1.7065 3.19445 1.59749 3.55833 1.58462 4.48389L1.58333 4.67666L1.58254 4.8H17.4159L17.4167 4.67666C17.4167 3.60684 17.3064 3.2189 17.0994 2.82779C16.8925 2.43667 16.5887 2.12973 16.2017 1.92056C15.8388 1.72446 15.4787 1.61431 14.5628 1.6013L14.3721 1.6Z" fill="#2691F4"/>
</svg>
