<svg width="15" height="11" viewBox="0 0 15 11" fill="none" xmlns="http://www.w3.org/2000/svg">
<path d="M12.7471 2.07838C12.5479 1.89459 12.2344 1.86757 12.0029 2.01351C11.127 2.56486 6.72949 5.33784 6.25488 5.77297C5.56934 6.40541 5.56934 7.43514 6.25488 8.06757C6.59766 8.38378 7.04883 8.54054 7.49707 8.54054C7.94531 8.54054 8.39648 8.38378 8.73926 8.06757C9.21094 7.63243 12.2168 3.57568 12.8145 2.76486C12.9756 2.54865 12.9463 2.26216 12.7471 2.07838ZM7.91309 7.3C7.68457 7.51081 7.3125 7.51081 7.08398 7.3C6.85547 7.08919 6.85547 6.74595 7.08398 6.53514C7.26855 6.36757 8.5166 5.54595 10.0518 4.56216C8.98535 5.98108 8.09473 7.13243 7.91309 7.3ZM15 6.91892C15 8.28378 14.5605 9.61351 13.7285 10.7595C13.6172 10.9135 13.4326 11 13.2422 11C13.1572 11 13.0723 10.9838 12.9902 10.9486L11.7598 10.4081C11.4668 10.2811 11.3438 9.95676 11.4814 9.68649C11.6221 9.41622 11.9707 9.3027 12.2637 9.42973L13.0195 9.76216C13.5498 8.88919 13.8281 7.91622 13.8281 6.91892C13.8281 6.08378 13.6406 5.27568 13.2715 4.51892C13.1396 4.24595 13.2686 3.92703 13.5645 3.8027C13.8604 3.68108 14.2061 3.8 14.3408 4.07297C14.7773 4.97027 15 5.92703 15 6.91892ZM3.48633 9.68108C3.62695 9.94865 3.50684 10.273 3.2168 10.4027L2.01562 10.9432C1.93359 10.9811 1.8457 10.9973 1.75781 10.9973C1.56738 10.9973 1.38281 10.9108 1.27148 10.7568C0.439453 9.61351 0 8.28378 0 6.91892C0 5.07027 0.779297 3.33243 2.19727 2.02703C3.6123 0.718919 5.49609 0 7.5 0C8.5752 0 9.6123 0.205405 10.582 0.610811C10.8779 0.732432 11.0068 1.05405 10.875 1.32703C10.7432 1.6 10.3945 1.71892 10.0986 1.5973C9.45703 1.32973 8.7832 1.16757 8.08301 1.10811V1.91892C8.08301 2.21622 7.81934 2.45946 7.49707 2.45946C7.1748 2.45946 6.91113 2.21622 6.91113 1.91892V1.10541C4.875 1.27838 3.11426 2.34595 2.09766 3.87568L2.91504 4.23784C3.20801 4.36757 3.33105 4.68919 3.19043 4.95946C3.09082 5.15405 2.87988 5.26757 2.66309 5.26757C2.57812 5.26757 2.49316 5.25135 2.41113 5.21351L1.58203 4.84595C1.31836 5.49189 1.17188 6.18919 1.17188 6.91892C1.17188 7.91351 1.4502 8.88649 1.97754 9.75946L2.70117 9.43514C2.99414 9.3027 3.34277 9.41351 3.48633 9.68108Z" fill="#BBBBBB"/>
</svg>
