<svg width="15" height="12" viewBox="0 0 15 12" fill="none" xmlns="http://www.w3.org/2000/svg"><defs/><path fill-rule="evenodd" clip-rule="evenodd" d="M11.89 0c.873 0 1.318.086 1.78.334.428.23.768.57.996.999.229.428.32.841.332 1.59l.002.195v5.764l-.002.195c-.012.749-.103 1.162-.332 1.59a2.406 2.406 0 01-.995.999l-.107.054c-.427.207-.868.28-1.674.28H3.11c-.806 0-1.247-.073-1.674-.28l-.107-.054a2.406 2.406 0 01-.995-.998c-.229-.429-.32-.842-.332-1.591L0 8.882V3.118c0-.875.086-1.321.334-1.785.228-.429.568-.77.995-.999.428-.229.84-.32 1.587-.332L3.11 0h8.78zm1.746 4.405v4.477c0 .669-.044.902-.172 1.14a1.04 1.04 0 01-.436.438c-.22.118-.435.165-.991.172H2.963c-.556-.006-.77-.054-.99-.172a1.04 1.04 0 01-.437-.437c-.128-.24-.172-.472-.172-1.14l-.001-4.478h12.273zM3.11 1.367h8.927c.556.008.77.055.99.173.19.102.336.247.437.437.118.22.165.436.172.994l-.001.067H1.364v-.067c.007-.558.054-.773.172-.994a1.04 1.04 0 01.436-.437c.239-.128.471-.173 1.138-.173z" fill="#fff"/><path d="M2.955 8.127c0-.213 0-.32.04-.4a.38.38 0 01.166-.167c.081-.041.187-.041.4-.041h.303c.212 0 .318 0 .399.041a.38.38 0 01.165.166c.042.082.042.188.042.4v.304c0 .213 0 .32-.042.4a.38.38 0 01-.165.167c-.081.041-.187.041-.4.041h-.302c-.213 0-.319 0-.4-.041a.38.38 0 01-.165-.166c-.041-.082-.041-.188-.041-.4v-.304z" fill="#fff"/></svg>