<svg data-name="Слой 1" xmlns="http://www.w3.org/2000/svg" viewBox="0 0 375 663"><defs/><defs><linearGradient id="a" x1="-21.07" y1="-5.05" x2="478.14" y2="239.21" gradientTransform="matrix(1 0 0 -1 0 426)" gradientUnits="userSpaceOnUse"><stop offset="0" stop-color="#407bff"/><stop offset="1" stop-color="#a383ff"/></linearGradient></defs><path fill="url(#a)" d="M-23-5h421v668H-23z"/><path d="M-28-173.75c-35.66-23.6-73.49-40.27-115.8-42.07-15.83-.65-31.69-.49-47.53 1.94-.82 6.89-135.86 108.59-136.75 115.47-7.26 57 19 51.21 11.65 108.22 0 154.64 61.89 250.86 63.26 252.58a229.44 229.44 0 0045.28 44.55c16 11.71 33.06 20.47 52 24.54 10.32 2.22 20.75 2.1 31.23 1.61 24.16-1.14 47.46-6.87 69.77-18.85 17.09-9.19 33-20.73 48.37-33.16 18.3-14.85 37.83-26.08 59.6-30.91 16.83-3.71 33.87-7 50.91-8.86 37.12-3.95 72.72-14.94 106.94-32.58 32-16.46 59.62-39.58 80.49-72.56 17.28-27.33 29-57.08 31.11-90.79 1.93-31.17-5.53-58.91-21-83.71-13.36-21.45-31.43-36.81-51.08-49.87-20.58-13.7-42.54-22.21-67.09-22.08-15.73.1-31.54-.18-47.2-1.1-22.77-1.26-45.41-4-67.58-9.93-17-4.55-33.59-10.38-48.75-20.14C3.74-151.84-12-163.15-28-173.75z" style="isolation:isolate" fill="#fff" opacity=".1"/></svg>