<svg data-name="Слой 1" xmlns="http://www.w3.org/2000/svg" viewBox="0 0 375 603"><defs/><defs><linearGradient id="a" x1="7.65" y1="97.92" x2="603.77" y2="229.11" gradientTransform="matrix(1 0 0 -1 0 438)" gradientUnits="userSpaceOnUse"><stop offset="0" stop-color="#407bff"/><stop offset="1" stop-color="#a383ff"/></linearGradient></defs><path fill="url(#a)" d="M-23-2h421v605H-23z"/><path d="M298.15 442.1c8.38 53.48 25.09 103.07 59.53 144.17 12.9 15.34 26.58 30 42.38 42.77 7.14-5.1 217.5 34.32 224.68 29.28 59.51-41.9 31.63-61.51 91.26-103.32 144.56-132 181.68-272 182.12-274.75 4.65-27.16 5.84-53.94 3-80.36-2.71-24.94-9.1-48.37-21.47-69.57-6.73-11.54-15.75-21.19-25.15-30.57-21.69-21.62-46.94-38.5-77.18-49.13-23.18-8.14-47.58-13.18-72.3-16.91-29.48-4.41-56.65-13.09-79.75-29.32-17.84-12.57-35.48-25.67-51.74-40-35.38-31.32-76-55.22-121.74-72.16-42.68-15.83-87.9-21.94-136.55-13.31-40.3 7.19-78.11 21.63-111.44 48.42-30.8 24.81-50.36 55.47-60.37 91.08-8.62 30.82-7.55 60.83-3 90.35 4.77 30.93 15.56 58.73 36.64 81.56C190.59 205 203.82 220 216.32 235.4c18.27 22.36 35.07 45.84 48.42 71.65 10.24 19.75 19 40.27 22.79 62.77 4.02 23.92 6.87 48.27 10.62 72.28z" style="isolation:isolate" fill="#fff" opacity=".1"/></svg>