<svg width="25" height="25" viewBox="0 0 25 25" fill="none" xmlns="http://www.w3.org/2000/svg"><path d="M16.31.002H8.645C1.627.002 0 1.678 0 8.67v7.664c0 6.992 1.671 8.668 8.69 8.668h7.665c7.018 0 8.645-1.72 8.645-8.713V8.626C25 1.633 23.329.002 16.31.002zm4.457 11.081a7.48 7.48 0 01-2.964-.603 6.998 6.998 0 01-1.671-.983l.022 6.703c0 1.519-.601 2.926-1.67 3.999a5.667 5.667 0 01-3.187 1.608 5.813 5.813 0 01-4.39-1.117c-.178-.156-.378-.313-.534-.47A5.712 5.712 0 014.7 15.843a5.54 5.54 0 011.426-3.396 5.712 5.712 0 015.17-1.877v3.039a2.686 2.686 0 00-.847-.134 2.71 2.71 0 00-2.718 2.748c.022.96.534 1.81 1.314 2.279.357.223.78.357 1.248.38.357.022.69-.023 1.003-.135a2.697 2.697 0 001.85-2.569V3.51h2.985c0 .29.022.58.089.87a4.606 4.606 0 001.76 2.794c.78.58 1.738.938 2.785.938v2.971z" fill="currentColor"/></svg>
