<svg width="30" height="30" fill="none" xmlns="http://www.w3.org/2000/svg"><path d="M17.308 14.525a2.782 2.782 0 1 1-5.563 0 2.782 2.782 0 0 1 5.563 0z" fill="currentColor"/><path d="M21.029 9.608c-.13-.356-.356-.68-.615-.97a2.175 2.175 0 0 0-.97-.615c-.291-.13-.744-.259-1.553-.291-.874-.033-1.132-.065-3.365-.065-2.232 0-2.49 0-3.364.065-.809.032-1.262.161-1.553.29-.356.13-.68.357-.97.616a2.175 2.175 0 0 0-.615.97c-.13.291-.259.744-.291 1.553-.033.873-.065 1.132-.065 3.364 0 2.233 0 2.492.065 3.365.032.809.161 1.262.29 1.553.13.356.357.68.616.97.258.291.582.486.97.615.291.13.744.259 1.553.291.873.033 1.132.033 3.364.033 2.233 0 2.491 0 3.365-.065.809-.032 1.262-.162 1.553-.291a2.828 2.828 0 0 0 1.585-1.586c.13-.29.259-.744.291-1.552.032-.841.032-1.1.032-3.333 0-2.232 0-2.49-.064-3.364-.033-.809-.162-1.262-.259-1.553zm-6.503 9.188a4.266 4.266 0 0 1-4.27-4.27 4.266 4.266 0 0 1 4.27-4.27 4.266 4.266 0 0 1 4.27 4.27 4.266 4.266 0 0 1-4.27 4.27zm4.433-7.732c-.55 0-1.003-.453-1.003-1.003 0-.55.453-1.003 1.003-1.003.55 0 1.002.453 1.002 1.003 0 .55-.452 1.003-1.002 1.003z" fill="currentColor"/><path d="M14.526 0C6.503 0 0 6.503 0 14.526S6.503 29.05 14.526 29.05s14.524-6.5 14.524-14.524S22.55 0 14.526 0zm8.282 17.955a6.51 6.51 0 0 1-.389 2.038 4.174 4.174 0 0 1-2.426 2.426c-.518.194-1.132.356-2.038.389-.874.032-1.165.064-3.43.064-2.264 0-2.555 0-3.429-.064a6.509 6.509 0 0 1-2.038-.389c-.55-.194-1.067-.55-1.488-.97a4.239 4.239 0 0 1-.97-1.488c-.194-.518-.356-1.133-.389-2.038-.032-.874-.064-1.165-.064-3.43 0-2.264 0-2.555.064-3.429A6.51 6.51 0 0 1 6.6 9.026c.194-.55.55-1.068.97-1.488a4.24 4.24 0 0 1 1.488-.97c.518-.195 1.133-.357 2.038-.389.874-.032 1.165-.065 3.43-.065 2.264 0 2.555 0 3.429.065a6.511 6.511 0 0 1 2.038.388c.55.194 1.068.55 1.488.97.42.421.744.907.97 1.489.195.518.357 1.132.389 2.038.032.874.065 1.165.065 3.43-.065 2.296-.065 2.587-.098 3.46z" fill="currentColor"/></svg>