<svg width="16" height="13" fill="none" xmlns="http://www.w3.org/2000/svg"><path d="M14.666 0H1.334C.597 0 0 .597 0 1.334v9.335C0 11.403.597 12 1.334 12H14.67c.734 0 1.334-.597 1.334-1.334V1.334A1.338 1.338 0 0 0 14.666 0zm-4.657 5.975c1.732-1.575 4.403-4.019 5.288-4.828.019.06.037.119.037.184v9.335c0 .062-.018.115-.034.175-.894-.85-3.563-3.382-5.29-4.866zm4.657-5.31c.05 0 .093.02.137.029-1.153 1.056-4.981 4.56-6.319 5.765A.748.748 0 0 1 8 6.666a.749.749 0 0 1-.484-.207C6.178 5.253 2.35 1.75 1.194.694c.047-.01.09-.028.137-.028h13.335zM.703 10.842c-.015-.057-.034-.113-.034-.175V1.334c0-.065.018-.125.037-.184.885.81 3.553 3.253 5.288 4.828-1.731 1.481-4.4 4.013-5.29 4.863zm.631.493c-.053 0-.1-.018-.15-.03.92-.879 3.61-3.426 5.303-4.876.222.2.422.385.582.528.275.247.597.378.931.378.334 0 .656-.13.931-.378.16-.144.363-.325.582-.528 1.696 1.45 4.384 3.997 5.303 4.875-.05.013-.097.031-.15.031H1.334z" fill="currentColor"/></svg>