<svg width="20" height="21" fill="none" xmlns="http://www.w3.org/2000/svg"><path d="M19.95 5.881c-.048-1.063-.22-1.793-.466-2.427a4.88 4.88 0 0 0-1.157-1.774 4.922 4.922 0 0 0-1.77-1.152C15.92.28 15.194.109 14.131.063 13.06.012 12.72 0 10.004 0 7.288 0 6.948.012 5.881.059 4.818.105 4.088.278 3.455.524A4.883 4.883 0 0 0 1.68 1.68 4.925 4.925 0 0 0 .528 3.45C.28 4.089.109 4.815.063 5.878.012 6.948 0 7.288 0 10.004s.012 3.056.059 4.123c.047 1.063.219 1.793.465 2.426a4.933 4.933 0 0 0 1.156 1.774c.5.508 1.106.903 1.77 1.153.638.247 1.364.418 2.427.465 1.067.047 1.407.059 4.123.059s3.056-.012 4.123-.059c1.063-.047 1.793-.218 2.426-.465a5.116 5.116 0 0 0 2.927-2.927c.247-.637.419-1.364.465-2.426.047-1.067.059-1.407.059-4.123s-.004-3.056-.05-4.123zm-1.802 8.168c-.043.976-.207 1.504-.344 1.856a3.318 3.318 0 0 1-1.9 1.899c-.351.137-.882.3-1.855.344-1.056.047-1.372.058-4.041.058-2.67 0-2.99-.011-4.04-.058-.978-.043-1.505-.207-1.857-.344a3.076 3.076 0 0 1-1.149-.746 3.11 3.11 0 0 1-.746-1.15c-.137-.351-.301-.883-.344-1.856-.047-1.055-.059-1.371-.059-4.04 0-2.67.012-2.99.059-4.04.043-.978.207-1.505.344-1.857a3.04 3.04 0 0 1 .75-1.149 3.106 3.106 0 0 1 1.149-.746c.352-.137.883-.301 1.856-.344 1.055-.047 1.372-.059 4.04-.059 2.674 0 2.99.012 4.041.059.977.043 1.505.207 1.857.344.433.16.828.414 1.148.746.333.324.587.715.747 1.149.137.352.3.883.344 1.856.047 1.055.058 1.372.058 4.04 0 2.67-.011 2.982-.058 4.038z" fill="currentColor"/><path d="M10.004 4.865a5.14 5.14 0 0 0 0 10.278 5.14 5.14 0 0 0 0-10.278zm0 8.472a3.334 3.334 0 1 1 0-6.667 3.334 3.334 0 0 1 0 6.667zm6.542-8.674a1.2 1.2 0 1 1-2.4 0 1.2 1.2 0 0 1 2.4 0z" fill="currentColor"/></svg>