<svg width="20" height="20" fill="none" xmlns="http://www.w3.org/2000/svg"><path d="M9.997 0a9.985 9.985 0 0 0-6.92 17.195c.006.006.008.014.014.02.058.055.12.102.18.156.16.143.32.29.49.428.09.072.185.143.277.209.16.119.32.238.487.348.114.072.231.143.347.214.155.093.308.187.467.272.135.071.273.133.41.198.15.071.298.142.452.207.153.064.307.114.463.17.156.055.29.107.44.152.168.051.34.09.512.133.143.034.281.074.428.103.197.04.397.064.597.091.124.018.244.042.37.054.326.032.656.05.989.05.333 0 .663-.018.99-.05.125-.012.245-.036.369-.054.2-.027.4-.052.597-.091.143-.029.285-.071.428-.104.172-.042.344-.081.513-.132.15-.045.293-.101.439-.152.146-.052.311-.108.463-.17.152-.063.302-.137.452-.207.137-.065.275-.127.41-.198.159-.085.312-.179.467-.272.116-.071.233-.136.347-.214.167-.11.327-.229.487-.348.092-.072.187-.136.277-.209.17-.136.33-.28.49-.428.06-.054.122-.1.18-.157.006-.005.008-.013.014-.019 3.982-3.815 4.117-10.136.302-14.118A9.984 9.984 0 0 0 9.997 0zm1.4 9.615c-.004 0-.008 0-.012.004-.19.106-.39.19-.597.253-.037.01-.072.025-.111.034-.071.019-.146.032-.22.045a2.892 2.892 0 0 1-.42.042h-.08a2.892 2.892 0 0 1-.42-.042c-.071-.013-.147-.026-.22-.045-.037-.009-.071-.023-.11-.034a3.023 3.023 0 0 1-.597-.253l-.013-.004a2.856 2.856 0 1 1 2.8 0zm-3.218 1.4a4.234 4.234 0 0 0 3.637 0 5.73 5.73 0 0 1 3.894 5.352c-.03.027-.059.054-.09.08a8.307 8.307 0 0 1-.641.509 7.885 7.885 0 0 1-.691.448l-.383.214a9.853 9.853 0 0 1-.72.33c-.127.051-.26.099-.393.143-.12.042-.241.085-.363.121-.143.043-.293.078-.44.114-.116.027-.23.057-.347.08-.17.033-.342.056-.516.08-.098.012-.196.03-.295.04a8.685 8.685 0 0 1-.833.042c-.28 0-.558-.015-.833-.042-.099-.01-.197-.028-.295-.04-.174-.024-.347-.047-.516-.08-.117-.023-.231-.053-.347-.08a9.942 9.942 0 0 1-.44-.114c-.122-.036-.243-.08-.363-.12a9.842 9.842 0 0 1-.393-.143 7.353 7.353 0 0 1-.373-.163 6.513 6.513 0 0 1-.73-.382 8.98 8.98 0 0 1-.933-.629 8.728 8.728 0 0 1-.4-.327c-.031-.024-.06-.054-.09-.081a5.73 5.73 0 0 1 3.894-5.352zm8.797 3.936a7.177 7.177 0 0 0-3.823-4.923 4.284 4.284 0 1 0-6.312 0 7.177 7.177 0 0 0-3.823 4.923 8.565 8.565 0 1 1 15.548-4.954 8.513 8.513 0 0 1-1.59 4.954z" fill="currentColor"/></svg>