<svg width="29" height="30" fill="none" xmlns="http://www.w3.org/2000/svg"><path d="M14.5 0C6.491 0 0 6.715 0 15s6.491 15 14.5 15S29 23.285 29 15 22.509 0 14.5 0zm8.3 21.581-2.552.034s-.549.1-1.26-.401c-.936-.668-1.84-2.439-2.55-2.205-.71.234-.678 1.804-.678 1.804s0 .334-.162.501c-.162.2-.517.234-.517.234h-1.13s-2.519.167-4.715-2.238c-2.422-2.606-4.553-7.751-4.553-7.751s-.13-.334 0-.501c.161-.2.549-.2.549-.2l2.712-.034s.259.034.452.167c.162.1.226.334.226.334s.453 1.136 1.034 2.205c1.13 2.038 1.68 2.472 2.067 2.272.549-.3.387-2.873.387-2.873s0-.936-.29-1.337c-.226-.334-.646-.4-.84-.434-.162-.033.097-.4.42-.568.484-.234 1.356-.267 2.39-.267.807 0 1.033.067 1.324.134.936.233.613 1.135.613 3.307 0 .702-.129 1.67.355 2.004.194.134.71.034 2.003-2.205.613-1.069 1.065-2.305 1.065-2.305s.097-.233.259-.334c.161-.1.355-.066.355-.066l2.874-.034s.872-.1 1.001.3c.162.435-.323 1.404-1.485 3.007-1.906 2.64-2.132 2.406-.55 3.942 1.518 1.47 1.841 2.172 1.906 2.272.614 1.136-.71 1.236-.71 1.236z" fill="currentColor"/></svg>