<svg width="123" height="38" fill="none" xmlns="http://www.w3.org/2000/svg"><g clip-path="url(#a)" fill="#fff"><path d="M4.762 31.436c.038-.208.058-.416.096-.624.116-.813.444-1.57.906-2.25a6.396 6.396 0 0 1 2.352-2.1c.636-.34 1.33-.492 2.044-.624 1.002-.17 2.005-.34 2.988-.511 1.947-.34 3.894-.662 5.842-1.003 1.214-.208 2.41-.435 3.624-.643a58.821 58.821 0 0 1 1.793-.302c.829-.133 1.465-.719 1.6-1.476.154-.889-.54-1.57-1.446-1.4-1.06.19-2.12.36-3.18.55-1.717.302-3.452.585-5.168.888l-2.834.51c-.81.133-1.6.285-2.41.398-1.098.17-2.178.057-3.2-.397-.944-.435-1.716-1.06-2.217-1.967-.212-.36-.366-.757-.52-1.154-.097-.246-.039-.303.212-.34.655-.114 1.33-.227 1.985-.341 1.176-.208 2.372-.416 3.548-.624 1.465-.265 2.93-.51 4.395-.776 1.6-.283 3.2-.548 4.8-.832 1.331-.227 2.68-.454 4.01-.7.83-.151 1.659-.265 2.507-.132 1.465.208 2.66.87 3.509 2.062.983 1.361 1.157 2.893.829 4.482-.328 1.57-1.118 2.875-2.275 3.991-.771.757-1.658 1.343-2.7 1.703-.5.17-1.02.302-1.56.397-.868.17-1.716.303-2.584.454-1.003.17-2.024.34-3.027.53l-3.875.68c-.906.152-1.793.322-2.699.473-1.58.284-3.162.549-4.743.814-.732.132-1.484.245-2.217.378-.038 0-.077.038-.115.038h-.27v-.152zM30.885 6.828c.019.057.077.133.077.19.019.567-.116 1.134-.328 1.664-.405 1.06-1.06 1.93-1.947 2.648-.579.473-1.215.851-1.947 1.04a39.6 39.6 0 0 1-2.16.435c-1.542.284-3.084.53-4.627.795l-3.585.624c-1.408.246-2.815.473-4.222.719-.965.17-1.948.34-2.912.51-.867.152-1.754.303-2.622.436-.443.075-.867.15-1.31.226-.328.057-.367 0-.27-.302.424-1.438 1.214-2.667 2.332-3.689 1.041-.945 2.237-1.607 3.644-1.872 1.658-.303 3.316-.568 4.955-.87.964-.17 1.908-.34 2.853-.511 1.157-.208 2.294-.397 3.45-.586.965-.17 1.91-.34 2.854-.492 1.176-.208 2.333-.397 3.509-.605.694-.114 1.369-.246 2.063-.379a.148.148 0 0 0 .096-.038c.039.057.058.057.097.057z"/><path d="M2.988 30.566a8.56 8.56 0 0 1 .424-.7 8.27 8.27 0 0 1 .637-.813l-.386-.227A3.538 3.538 0 0 1 1.87 25.76l.039-13.656c0-1.249.694-2.421 1.812-3.045l12.088-6.772a3.656 3.656 0 0 1 3.605.019l7.326 4.199c.945-.17 1.89-.322 2.853-.492L20.34.718A5.552 5.552 0 0 0 14.883.7L2.795 7.49C1.118 8.436.058 10.195.058 12.106L0 25.76a5.349 5.349 0 0 0 2.718 4.653l.27.152zM32.717 7.83a7.806 7.806 0 0 1-.926 1.608 3.507 3.507 0 0 1 1.408 2.818l-.058 13.657c0 1.248-.694 2.42-1.813 3.045L19.26 35.73a3.656 3.656 0 0 1-3.605-.02l-6.092-3.48c-.945.17-1.89.322-2.834.492l8 4.578a5.453 5.453 0 0 0 2.757.718 5.54 5.54 0 0 0 2.718-.7l12.07-6.771a5.412 5.412 0 0 0 2.756-4.634l.058-13.657a5.43 5.43 0 0 0-2.371-4.426zm22.343 2.819c0-.511-.211-.72-.732-.927l-4.588-1.74c-1.562-.587-2.294-1.324-2.294-3.084V3.461c0-2.156 1.04-3.178 3.238-3.178h4.068c2.198 0 3.24 1.022 3.24 3.178v1.324c0 .303-.213.51-.521.51h-2.083c-.308 0-.52-.207-.52-.51v-.719c0-.624-.424-1.021-1.041-1.021h-2.198c-.636 0-1.041.416-1.041 1.021v.624c0 .511.212.72.733.927l4.588 1.76c1.562.586 2.294 1.323 2.294 3.082v1.438c0 2.156-1.04 3.178-3.239 3.178h-4.492c-2.197 0-3.239-1.022-3.239-3.178v-1.324c0-.303.213-.51.52-.51h2.083c.309 0 .52.207.52.51v.719c0 .624.425 1.021 1.042 1.021h2.622c.636 0 1.04-.416 1.04-1.021v-.643zm13.477 4.198c-.424 0-.636-.208-.732-.51l-2.719-7.793h-.212v7.792c0 .303-.212.511-.52.511h-2.082c-.309 0-.521-.208-.521-.51V1.02c0-.302.212-.51.52-.51h2.93c.425 0 .637.208.734.51l3.142 8.815h.212l3.142-8.815c.097-.302.309-.51.733-.51h2.93c.309 0 .521.208.521.51v13.335c0 .303-.212.511-.52.511h-2.083c-.308 0-.52-.208-.52-.51V6.543h-.212l-2.719 7.792c-.096.303-.308.511-.732.511h-1.292zm19.029 0c-.425 0-.637-.208-.733-.51l-2.718-7.793h-.212v7.792c0 .303-.213.511-.521.511H81.3c-.309 0-.52-.208-.52-.51V1.02c0-.302.211-.51.52-.51h2.93c.424 0 .636.208.733.51l3.123 8.815h.212l3.143-8.815c.096-.302.308-.51.732-.51h2.93c.31 0 .521.208.521.51v13.335c0 .303-.212.511-.52.511h-2.082c-.309 0-.521-.208-.521-.51V6.543h-.212l-2.719 7.792c-.096.303-.308.511-.732.511h-1.272zM54.27 35.07c0 .188-.096.302-.308.302H52.65c-.193 0-.309-.095-.309-.303V23.285h-4.434c-.193 0-.308-.094-.308-.302V21.79c0-.19.096-.303.308-.303h10.796c.193 0 .309.095.309.303v1.192c0 .189-.097.302-.309.302H54.27V35.07zm7.365-10.31c0-2.27 1.214-3.461 3.624-3.461h5.051c2.43 0 3.625 1.192 3.625 3.461v7.32c0 2.27-1.215 3.462-3.625 3.462h-5.05c-2.43 0-3.625-1.192-3.625-3.462v-7.32zm10.391 0c0-1.097-.597-1.683-1.716-1.683h-5.05c-1.119 0-1.717.586-1.717 1.683v7.32c0 1.097.598 1.684 1.716 1.684h5.051c1.118 0 1.716-.587 1.716-1.684v-7.32zm18.47 7.34c0 2.27-1.215 3.462-3.625 3.462h-4.434c-2.43 0-3.624-1.192-3.624-3.462V21.81c0-.189.096-.302.308-.302h1.31c.194 0 .31.094.31.303V32.1c0 1.096.597 1.683 1.715 1.683h4.434c1.119 0 1.716-.587 1.716-1.684V21.81c0-.189.097-.302.309-.302h1.31c.193 0 .31.094.31.303V32.1h-.04zm4.838-7.34c0-2.27 1.215-3.461 3.624-3.461h4.647c2.429 0 3.624 1.192 3.624 3.461v.795c0 .189-.096.302-.308.302h-1.311c-.193 0-.309-.094-.309-.302v-.795c0-1.097-.597-1.683-1.716-1.683h-4.646c-1.118 0-1.716.586-1.716 1.683v7.32c0 1.097.598 1.684 1.716 1.684h4.646c1.119 0 1.716-.587 1.716-1.684v-.794c0-.19.097-.303.309-.303h1.311c.192 0 .308.095.308.303v.794c0 2.27-1.214 3.462-3.624 3.462h-4.647c-2.429 0-3.624-1.192-3.624-3.462v-7.32zm25.737-2.97c0-.188.097-.302.309-.302h1.311c.193 0 .308.095.308.303v13.26c0 .188-.096.302-.308.302h-1.311c-.193 0-.309-.095-.309-.284v-5.863h-7.46v5.844c0 .19-.097.303-.309.303h-1.311c-.193 0-.308-.095-.308-.303V21.79c0-.188.096-.302.308-.302h1.311c.193 0 .309.095.309.303v5.637h7.46V21.79z"/></g><defs><clipPath id="a"><path fill="#fff" d="M0 0h123v38H0z"/></clipPath></defs></svg>