
<svg width="93" height="30" viewBox="0 0 93 30" fill="none" xmlns="http://www.w3.org/2000/svg"><path d="M3.6 24.253c.029-.16.043-.321.072-.481a4.178 4.178 0 0 1 .686-1.736 4.87 4.87 0 0 1 1.778-1.62c.481-.262 1.006-.38 1.545-.481.758-.132 1.516-.263 2.26-.394 1.472-.263 2.944-.51 4.416-.773.919-.16 1.822-.336 2.74-.497.453-.087.904-.16 1.356-.233.627-.102 1.108-.554 1.21-1.138.117-.685-.408-1.21-1.093-1.08-.802.146-1.604.278-2.405.424-1.297.233-2.61.452-3.907.685l-2.143.394c-.612.102-1.21.22-1.822.307-.83.13-1.647.043-2.42-.307-.714-.335-1.297-.817-1.676-1.517a6.034 6.034 0 0 1-.393-.89c-.073-.19-.03-.233.16-.263l1.501-.262c.89-.16 1.793-.321 2.683-.482 1.107-.204 2.215-.393 3.323-.598 1.21-.219 2.42-.423 3.63-.642 1.005-.175 2.026-.35 3.032-.54.627-.116 1.253-.204 1.895-.101 1.108.16 2.011.67 2.653 1.59.743 1.05.874 2.232.627 3.457-.248 1.211-.846 2.218-1.72 3.079-.584.583-1.254 1.035-2.041 1.313a7.79 7.79 0 0 1-1.181.306c-.656.131-1.297.233-1.953.35-.758.131-1.53.263-2.289.409l-2.93.525c-.685.116-1.356.248-2.04.364-1.196.22-2.391.424-3.587.628-.553.102-1.122.19-1.676.291-.029 0-.058.03-.087.03H3.6v-.117zM23.352 5.272c.014.044.058.102.058.146.015.438-.087.876-.248 1.284a4.789 4.789 0 0 1-1.472 2.042c-.437.365-.918.657-1.472.803-.54.131-1.079.233-1.633.335-1.166.22-2.332.409-3.498.613l-2.711.482c-1.064.19-2.129.364-3.193.554-.729.131-1.472.262-2.2.394-.657.116-1.327.233-1.983.335-.336.059-.656.117-.991.175-.248.044-.277 0-.205-.233a6.187 6.187 0 0 1 1.764-2.845c.787-.73 1.691-1.24 2.755-1.444 1.254-.234 2.508-.438 3.746-.671.73-.132 1.444-.263 2.158-.394.874-.16 1.734-.306 2.61-.452.728-.132 1.442-.263 2.157-.38.889-.16 1.763-.306 2.652-.467.525-.087 1.035-.19 1.56-.291.03 0 .059-.015.073-.03.03.044.044.044.073.044z" fill="#3C9CF5"/><path d="M2.26 23.581c.101-.19.203-.365.32-.54.146-.218.306-.423.481-.627l-.291-.175a2.739 2.739 0 0 1-1.356-2.363l.03-10.534c0-.962.524-1.867 1.37-2.348l9.139-5.223a2.717 2.717 0 0 1 2.726.014l5.539 3.24c.714-.132 1.429-.249 2.157-.38L15.38.56a4.126 4.126 0 0 0-4.126-.015l-9.14 5.238a4.12 4.12 0 0 0-2.07 3.56L0 19.875a4.14 4.14 0 0 0 2.055 3.588l.204.117zM24.737 6.045c-.19.452-.422.86-.7 1.24a2.724 2.724 0 0 1 1.065 2.174l-.044 10.533c0 .963-.525 1.867-1.37 2.349l-9.125 5.223a2.717 2.717 0 0 1-2.726-.015l-4.606-2.684c-.715.13-1.429.248-2.143.379l6.05 3.53c.64.38 1.355.555 2.084.555a4.12 4.12 0 0 0 2.055-.54l9.125-5.223a4.188 4.188 0 0 0 2.085-3.574l.043-10.533a4.211 4.211 0 0 0-1.793-3.414z" fill="#263238"/><path d="M41.631 8.22c0-.395-.16-.555-.554-.716l-3.47-1.342c-1.18-.452-1.734-1.02-1.734-2.378V2.676c0-1.664.787-2.451 2.45-2.451h3.075c1.662 0 2.449.787 2.449 2.45v1.022c0 .233-.16.394-.394.394H41.88a.375.375 0 0 1-.394-.394v-.555c0-.481-.32-.787-.787-.787h-1.662c-.48 0-.787.32-.787.787v.482c0 .394.16.554.554.715l3.47 1.356c1.18.453 1.734 1.022 1.734 2.378v1.11c0 1.662-.787 2.45-2.449 2.45h-3.396c-1.662 0-2.45-.788-2.45-2.45V8.16c0-.233.161-.394.394-.394h1.575c.233 0 .393.16.393.394v.554c0 .482.321.788.788.788h1.982c.481 0 .787-.32.787-.788V8.22zm10.189 3.239c-.32 0-.48-.16-.553-.394l-2.056-6.01h-.16v6.01c0 .233-.16.394-.394.394h-1.574a.375.375 0 0 1-.393-.394V.795c0-.234.16-.395.393-.395h2.216c.32 0 .48.16.554.394l2.376 6.799h.16L54.765.794c.073-.233.233-.394.554-.394h2.216c.233 0 .393.16.393.394V11.08c0 .233-.16.393-.393.393H55.96a.375.375 0 0 1-.393-.394V5.054h-.16l-2.056 6.01c-.073.234-.233.395-.554.395h-.976zm14.387 0c-.32 0-.48-.16-.554-.394l-2.055-6.01h-.16v6.01c0 .233-.16.394-.394.394H61.47a.375.375 0 0 1-.394-.394V.795c0-.234.16-.395.394-.395h2.215c.321 0 .481.16.554.394l2.362 6.799h.16L69.137.794C69.21.561 69.37.4 69.691.4h2.216c.233 0 .393.16.393.394V11.08c0 .233-.16.393-.393.393h-1.575a.375.375 0 0 1-.393-.394V5.054h-.16l-2.056 6.01c-.073.234-.233.395-.554.395h-.962zM41.034 27.053c0 .146-.073.233-.233.233h-.992c-.145 0-.233-.073-.233-.233v-9.089h-3.352c-.146 0-.234-.073-.234-.233v-.92c0-.145.073-.233.233-.233h8.163c.146 0 .234.073.234.233v.92c0 .145-.073.233-.233.233h-3.353v9.089zm5.568-7.952c0-1.75.918-2.67 2.74-2.67h3.82c1.836 0 2.74.92 2.74 2.67v5.646c0 1.751-.919 2.67-2.74 2.67h-3.82c-1.837 0-2.74-.919-2.74-2.67v-5.646zm7.857 0c0-.846-.452-1.298-1.298-1.298h-3.819c-.846 0-1.297.452-1.297 1.298v5.646c0 .846.451 1.299 1.297 1.299h3.82c.845 0 1.297-.453 1.297-1.299v-5.646zm13.964 5.661c0 1.75-.918 2.67-2.74 2.67H62.33c-1.836 0-2.74-.92-2.74-2.67v-7.937c0-.146.073-.233.233-.233h.991c.146 0 .233.073.233.233v7.937c0 .846.452 1.298 1.298 1.298h3.353c.845 0 1.297-.452 1.297-1.298v-7.937c0-.146.073-.233.233-.233h.991c.146 0 .234.073.234.233v7.937h-.03zm3.659-5.661c0-1.75.918-2.67 2.74-2.67h3.513c1.837 0 2.74.92 2.74 2.67v.613c0 .146-.072.234-.232.234h-.992c-.145 0-.233-.073-.233-.234v-.613c0-.846-.452-1.298-1.297-1.298h-3.513c-.846 0-1.297.452-1.297 1.298v5.646c0 .846.451 1.299 1.297 1.299h3.513c.845 0 1.297-.453 1.297-1.299v-.612c0-.146.073-.234.234-.234h.99c.147 0 .234.073.234.234v.612c0 1.751-.918 2.67-2.74 2.67h-3.513c-1.837 0-2.741-.919-2.741-2.67v-5.646zm19.46-2.29c0-.145.073-.233.233-.233h.992c.145 0 .233.073.233.233v10.227c0 .146-.073.234-.233.234h-.992c-.145 0-.233-.073-.233-.219V22.53h-5.641v4.508c0 .146-.073.234-.233.234h-.991c-.146 0-.234-.073-.234-.234V16.811c0-.145.073-.233.234-.233h.99c.147 0 .234.073.234.233v4.348h5.641v-4.348z" fill="#3C9CF5"/></svg>
